<svg xmlns="http://www.w3.org/2000/svg" width="364" height="188" viewBox="0 0 364 188">
  <defs>
    <style>
    </style>
  </defs>
  <path id="Rounded_Rectangle_12_copy_2" data-name="Rounded Rectangle 12 copy 2" style="fill: #dcdcdc; stroke: #dcdcdc; stroke-width: 4px; fill-rule: evenodd;" d="M51.77,97.765L202.7,50.189A2.463,2.463,0,0,1,205.79,51.8l26.248,83.265a2.464,2.464,0,0,1-1.609,3.09L79.5,185.73a2.464,2.464,0,0,1-3.09-1.609L50.161,100.855A2.463,2.463,0,0,1,51.77,97.765Z"/>
  <path id="Rounded_Rectangle_13_copy_3" data-name="Rounded Rectangle 13 copy 3" style="fill: #dcdcdc; stroke: #dcdcdc; stroke-width: 4px; fill-rule: evenodd; opacity: 0.83;" d="M110.17,14.269l94.559,36.517a1.646,1.646,0,0,1,.809,2.567L149.013,137.5a2.826,2.826,0,0,1-3.214,1.013L51.24,101.992a1.647,1.647,0,0,1-.809-2.568l56.525-84.142A2.827,2.827,0,0,1,110.17,14.269Z"/>
  <path id="Rounded_Rectangle_12_copy" data-name="Rounded Rectangle 12 copy" style="fill: #c9c9c9; stroke: #c9c9c9; stroke-width: 4px; fill-rule: evenodd;" d="M102.418,76.887l156.2-25.415a2.463,2.463,0,0,1,2.827,2.036l14.021,86.171a2.463,2.463,0,0,1-2.036,2.827l-156.2,25.416a2.464,2.464,0,0,1-2.827-2.036L100.382,79.713A2.464,2.464,0,0,1,102.418,76.887Z"/>
  <path id="Rounded_Rectangle_13_copy_2" data-name="Rounded Rectangle 13 copy 2" style="fill: #c9c9c9; stroke: #c9c9c9; stroke-width: 4px; fill-rule: evenodd; opacity: 0.83;" d="M172.2,2.635l88.338,49.714a1.647,1.647,0,0,1,.432,2.657l-68.019,75.155a2.825,2.825,0,0,1-3.327.542L101.282,80.989a1.646,1.646,0,0,1-.432-2.657L168.869,3.176A2.825,2.825,0,0,1,172.2,2.635Z"/>
  <path id="Rounded_Rectangle_12" data-name="Rounded Rectangle 12" style="fill: #b7b7b7; stroke: #b7b7b7; stroke-width: 4px; fill-rule: evenodd;" d="M154.536,66.917h157.19a3,3,0,0,1,3,3v86.218a3,3,0,0,1-3,3H154.536a3,3,0,0,1-3-3V69.917A3,3,0,0,1,154.536,66.917Z"/>
  <path id="Rounded_Rectangle_13" data-name="Rounded Rectangle 13" style="fill: #b7b7b7; stroke: #b7b7b7; stroke-width: 4px; fill-rule: evenodd; opacity: 0.83;" d="M234.8,4.832L314,68.088a1.646,1.646,0,0,1,0,2.692L234.8,134.036a2.826,2.826,0,0,1-3.37,0L152.221,70.78a1.646,1.646,0,0,1,0-2.692L231.428,4.832A2.825,2.825,0,0,1,234.8,4.832Z"/>
  <path id="Rounded_Rectangle_13_copy" data-name="Rounded Rectangle 13 copy" style="fill-rule: evenodd;fill: #fff;" d="M314,68.088a1.646,1.646,0,0,1,0,2.692L234.8,134.036a2.826,2.826,0,0,1-3.37,0L152.221,70.78a1.646,1.646,0,0,1,0-2.692"/>
  <path id="Rounded_Rectangle_10_copy" data-name="Rounded Rectangle 10 copy" style="stroke: #b7b7b7; fill-rule: evenodd; fill: #fff; stroke-width: 4px;" d="M173.791,82.967c-1.536,0-2.781-.692-2.781-1.545V25.281c0-.853,1.245-1.545,2.781-1.545H293.385c1.536,0,2.781.692,2.781,1.545V81.422c0,0.853-1.245,1.545-2.781,1.545"/>
  <path id="Rounded_Rectangle_11" data-name="Rounded Rectangle 11" style="fill: #b7b7b7; stroke: #b7b7b7; stroke-width: 4px; fill-rule: evenodd;" d="M195.308,48.289h76.544a3,3,0,0,1,3,3v0.774a3,3,0,0,1-3,3H195.308a3,3,0,0,1-3-3V51.289A3,3,0,0,1,195.308,48.289Z"/>
  <path id="Rounded_Rectangle_11_copy" data-name="Rounded Rectangle 11 copy" style="fill: #b7b7b7; stroke: #b7b7b7; stroke-width: 4px; fill-rule: evenodd;" d="M195.308,69.457h76.544a3,3,0,0,1,3,3v0.774a3,3,0,0,1-3,3H195.308a3,3,0,0,1-3-3V72.457A3,3,0,0,1,195.308,69.457Z"/>
</svg>
