<svg id="nh_empty_files" xmlns="http://www.w3.org/2000/svg" viewBox="0 0 239.42 187.76"><path id="Rounded_Rectangle_14_copy" data-name="Rounded Rectangle 14 copy" d="M197.28,130.79,164.11,10.42a2.37,2.37,0,0,0-2.93-1.82L55.55,43.06A2.64,2.64,0,0,0,54,46.33L92,184a2.37,2.37,0,0,0,2.93,1.82l89.9-29.33Z" transform="translate(-51.91 -0.11)" fill="#fff" stroke="#e1e1e2" stroke-width="4" fill-rule="evenodd"/><path id="Rounded_Rectangle_15" data-name="Rounded Rectangle 15" d="M60.92,41.49a3.55,3.55,0,0,1,6.8-2L73.07,57.3a3.55,3.55,0,0,1-6.8,2l-1.94-6.45" transform="translate(-51.91 -0.11)" fill="none" stroke="#e1e1e2" stroke-width="2"/><line x1="106.97" y1="83.79" x2="60.87" y2="97.22" fill="none" stroke="#e1e1e2" stroke-linecap="round" stroke-linejoin="round" stroke-width="2"/><line x1="35.1" y1="104.73" x2="46.77" y2="101.33" fill="none" stroke="#e1e1e2" stroke-linecap="round" stroke-linejoin="round" stroke-width="2"/><line x1="49.36" y1="153.68" x2="90.99" y2="141.56" fill="none" stroke="#e1e1e2" stroke-linecap="round" stroke-linejoin="round" stroke-width="2"/><line x1="30.62" y1="89.34" x2="102.49" y2="68.41" fill="none" stroke="#e1e1e2" stroke-linecap="round" stroke-linejoin="round" stroke-width="2"/><line x1="39.58" y1="120.11" x2="111.45" y2="99.18" fill="none" stroke="#e1e1e2" stroke-linecap="round" stroke-linejoin="round" stroke-width="2"/><line x1="44.74" y1="137.83" x2="116.61" y2="116.9" fill="none" stroke="#e1e1e2" stroke-linecap="round" stroke-linejoin="round" stroke-width="2"/><line x1="79.67" y1="58.37" x2="26.14" y2="73.96" fill="none" stroke="#e1e1e2" stroke-linecap="round" stroke-linejoin="round" stroke-width="2"/><path id="Rounded_Rectangle_14_copy-2" data-name="Rounded Rectangle 14 copy-2" d="M240.05,128.89,224.25,4.42a2.44,2.44,0,0,0-2.64-2.29L112.38,18.55a2.58,2.58,0,0,0-2,3l18.07,142.32a2.44,2.44,0,0,0,2.64,2.29l93-14Z" transform="translate(-51.91 -0.11)" fill="#fff" stroke="#d1d2d2" stroke-width="4" fill-rule="evenodd"/><line x1="156.41" y1="72.22" x2="108.77" y2="78.18" fill="none" stroke="#d1d2d2" stroke-linecap="round" stroke-linejoin="round" stroke-width="2"/><line x1="82.13" y1="81.52" x2="94.19" y2="80.01" fill="none" stroke="#d1d2d2" stroke-linecap="round" stroke-linejoin="round" stroke-width="2"/><line x1="88.47" y1="132.11" x2="131.5" y2="126.72" fill="none" stroke="#d1d2d2" stroke-linecap="round" stroke-linejoin="round" stroke-width="2"/><line x1="162.75" y1="122.81" x2="144.82" y2="125.05" fill="none" stroke="#d1d2d2" stroke-linecap="round" stroke-linejoin="round" stroke-width="2"/><line x1="80.14" y1="65.62" x2="154.42" y2="56.32" fill="none" stroke="#d1d2d2" stroke-linecap="round" stroke-linejoin="round" stroke-width="2"/><line x1="84.13" y1="97.42" x2="158.41" y2="88.12" fill="none" stroke="#d1d2d2" stroke-linecap="round" stroke-linejoin="round" stroke-width="2"/><line x1="86.42" y1="115.73" x2="160.7" y2="106.43" fill="none" stroke="#d1d2d2" stroke-linecap="round" stroke-linejoin="round" stroke-width="2"/><line x1="133.47" y1="42.79" x2="78.15" y2="49.72" fill="none" stroke="#d1d2d2" stroke-linecap="round" stroke-linejoin="round" stroke-width="2"/><line x1="152.37" y1="39.93" x2="145.71" y2="40.77" fill="none" stroke="#d1d2d2" stroke-linecap="round" stroke-linejoin="round" stroke-width="2"/><path id="Rounded_Rectangle_15-2" data-name="Rounded Rectangle 15-2" d="M122.93,17.8a3.55,3.55,0,0,1,7-1l2.55,18.45a3.55,3.55,0,0,1-7,1l-.92-6.67" transform="translate(-51.91 -0.11)" fill="none" stroke="#d1d2d2" stroke-linecap="round" stroke-linejoin="round" stroke-width="2"/><path id="Rounded_Rectangle_14_copy-3" data-name="Rounded Rectangle 14 copy-3" stroke="#b7b7b7" d="M289.32,136.3V10.65A2.52,2.52,0,0,0,287,8H176.73a2.52,2.52,0,0,0-2.33,2.67V154.32a2.51,2.51,0,0,0,2.33,2.66h93.86Z" fill="#fff" transform="translate(-51.91 -0.11)" stroke-linecap="round" stroke-linejoin="round" stroke-width="4" fill-rule="evenodd"/><path id="Rounded_Rectangle_14_copy_2-3" data-name="Rounded Rectangle 14 copy 2-3" d="M288.85,137.92H271.72a2.52,2.52,0,0,0-2.43,2.62h0v17.77" transform="translate(-51.91 -0.11)" fill="none" stroke="#b7b7b7" stroke-width="4"/><path id="Rounded_Rectangle_15-3" data-name="Rounded Rectangle 15-3" d="M186,8a3.55,3.55,0,1,1,7.1,0V26.61a3.55,3.55,0,1,1-7.1,0V19.88" transform="translate(-51.91 -0.11)" fill="none" stroke="#b7b7b7" stroke-linecap="round" stroke-linejoin="round" stroke-width="2"/><line x1="218.33" y1="75.9" x2="170.31" y2="75.9" fill="#fff" stroke="#b7b7b7" stroke-linecap="round" stroke-linejoin="round" stroke-width="2"/><line x1="143.47" y1="75.9" x2="155.62" y2="75.9" fill="#fff" stroke="#b7b7b7" stroke-linecap="round" stroke-linejoin="round" stroke-width="2"/><line x1="143.47" y1="126.89" x2="186.83" y2="126.89" fill="#fff" stroke="#b7b7b7" stroke-linecap="round" stroke-linejoin="round" stroke-width="2"/><line x1="218.33" y1="126.89" x2="200.26" y2="126.89" fill="#fff" stroke="#b7b7b7" stroke-linecap="round" stroke-linejoin="round" stroke-width="2"/><line x1="143.47" y1="59.88" x2="218.33" y2="59.88" fill="#fff" stroke="#b7b7b7" stroke-linecap="round" stroke-linejoin="round" stroke-width="2"/><line x1="143.47" y1="91.92" x2="218.33" y2="91.92" fill="#fff" stroke="#b7b7b7" stroke-linecap="round" stroke-linejoin="round" stroke-width="2"/><line x1="143.47" y1="110.38" x2="218.33" y2="110.38" fill="#fff" stroke="#b7b7b7" stroke-linecap="round" stroke-linejoin="round" stroke-width="2"/><line x1="199.22" y1="43.85" x2="143.47" y2="43.85" fill="#fff" stroke="#b7b7b7" stroke-linecap="round" stroke-linejoin="round" stroke-width="2"/><line x1="218.33" y1="43.36" x2="211.61" y2="43.36" fill="#fff" stroke="#b7b7b7" stroke-linecap="round" stroke-linejoin="round" stroke-width="2"/></svg>
