<svg xmlns="http://www.w3.org/2000/svg" width="364" height="188" viewBox="0 0 364 188">
  <defs>
    <style>  
    </style>
  </defs>
  <path id="Rounded_Rectangle_5_copy_3" data-name="Rounded Rectangle 5 copy 3" style="fill: #dcdcdc; stroke: #dcdcdc; stroke-width: 4px; fill-rule: evenodd;" d="M10.36,60.889L192.069,2.13a2.935,2.935,0,0,1,3.7,1.9l38.285,119.36a2.951,2.951,0,0,1-1.9,3.712L50.446,185.865a2.935,2.935,0,0,1-3.7-1.9L8.465,64.6A2.952,2.952,0,0,1,10.36,60.889Z"/>
  <path id="Rounded_Rectangle_6_copy_3" data-name="Rounded Rectangle 6 copy 3" style="fill: #dcdcdc; stroke: #dcdcdc; stroke-width: 4px; fill-rule: evenodd;" d="M6.219,47.265L72.282,25.9a3.108,3.108,0,0,1,3.942,1.958L92.4,40.949a3.126,3.126,0,0,1-2.063,3.9L13.422,69.723A3.108,3.108,0,0,1,9.48,67.765l-5.324-16.6A3.126,3.126,0,0,1,6.219,47.265Z"/>
  <path id="Rounded_Rectangle_5_copy" data-name="Rounded Rectangle 5 copy" style="fill: #c9c9c9; stroke: #c9c9c9; stroke-width: 4px; fill-rule: evenodd;" d="M85.744,34.872L274.758,7.982a2.94,2.94,0,0,1,3.32,2.507L295.6,134.646a2.948,2.948,0,0,1-2.5,3.335L104.086,164.87a2.939,2.939,0,0,1-3.32-2.507L83.249,38.207A2.948,2.948,0,0,1,85.744,34.872Z"/>
  <path id="Rounded_Rectangle_6_copy" data-name="Rounded Rectangle 6 copy" style="fill: #c9c9c9; stroke: #c9c9c9; stroke-width: 4px; fill-rule: evenodd;" d="M83.97,20.739l68.719-9.776a3.112,3.112,0,0,1,3.553,2.6l13.729,15.66a3.122,3.122,0,0,1-2.694,3.491L87.266,44.1a3.112,3.112,0,0,1-3.553-2.6L81.277,24.231A3.121,3.121,0,0,1,83.97,20.739Z"/>
  <path id="Rounded_Rectangle_5" data-name="Rounded Rectangle 5" style="fill: #b7b7b7; stroke: #b7b7b7;stroke-width: 4px; fill-rule: evenodd;" d="M166.426,22.72H357a3,3,0,0,1,3,3V150.808a3,3,0,0,1-3,3H166.426a3,3,0,0,1-3-3V25.72A3,3,0,0,1,166.426,22.72Z"/>
  <path id="Rounded_Rectangle_6" data-name="Rounded Rectangle 6" style="fill: #b7b7b7; stroke: #b7b7b7;stroke-width: 4px; fill-rule: evenodd;" d="M166.586,8.5h69.331a3.113,3.113,0,0,1,3.151,3.073l11.393,17.411a3.113,3.113,0,0,1-3.151,3.073H166.586a3.113,3.113,0,0,1-3.152-3.073V11.575A3.113,3.113,0,0,1,166.586,8.5Z"/>
</svg>
