<svg id="files" xmlns="http://www.w3.org/2000/svg" width="364" height="188" viewBox="0 0 364 188">
  <defs>
    <style>

      .cls-1 {
        fill: #e1e1e2; stroke: #e1e1e2; stroke-width: 4px; fill-rule: evenodd;
      }

      .cls-2 {
            stroke-width: 4px; fill-rule: evenodd; fill: #c9c9c9; stroke: #c9c9c9;

          }

      .cls-3 {
        stroke: #e1e1e2; stroke-width: 4px; fill-rule: evenodd; fill: #fff;
      }

       .cls-4 {
        stroke-width: 4px; fill-rule: evenodd; fill: none; stroke: #b7b7b7;
      }



      .cls-5 {
        stroke: #e1e1e2; fill-rule: evenodd; fill: none; stroke-width: 3px;
      }

      .cls-6 {
        fill: #e1e1e2; fill-rule: evenodd; stroke-width: 4px; stroke: #d1d2d2;
      }

      .cls-7 {
        stroke-width: 4px; fill-rule: evenodd; stroke: #d1d2d2; fill: #fff;
      }

      .cls-8 {
        stroke: #d1d2d2; fill-rule: evenodd; stroke-width: 3px; fill: none;
      }

      .cls-9 {
        stroke: #d1d2d2; fill: #d1d2d2; stroke-width: 4px; fill-rule: evenodd;
      }

      .cls-10 {
        stroke-width: 4px; fill-rule: evenodd; fill: #fff; stroke: #b7b7b7;
      }


      .cls-11 {
        fill-rule: evenodd; fill: none; stroke: #b7b7b7; stroke-width: 3px;
      }

      .cls-12 {
        fill: #b7b7b7; stroke-width: 4px; fill-rule: evenodd; stroke: #b7b7b7;
      }

    
    </style>
  </defs>
  <path id="Rounded_Rectangle_14_copy_5" data-name="Rounded Rectangle 14 copy 5" style="fill: #e1e1e2; stroke: #e1e1e2; stroke-width: 4px; fill-rule: evenodd;" d="M126.743,146.755l-17.856,5.354a2.636,2.636,0,0,0-1.782,3.274q2.553,8.512,5.1,17.025"/>
  <path id="Rounded_Rectangle_14_copy_3" data-name="Rounded Rectangle 14 copy 3" style="stroke-width: 4px; fill-rule: evenodd; fill: #c9c9c9; stroke: #c9c9c9;" d="M167.56,135.722l-18.467,2.551a2.637,2.637,0,0,0-2.263,2.963q1.216,8.8,2.432,17.606"/>
  <path id="Rounded_Rectangle_14_copy" data-name="Rounded Rectangle 14 copy" style=" stroke: #e1e1e2; stroke-width: 4px; fill-rule: evenodd; fill: #fff;" d="M209.912,130.785L173.824,10.421A2.6,2.6,0,0,0,170.632,8.6L55.7,43.058a2.6,2.6,0,0,0-1.664,3.276L95.3,183.958a2.6,2.6,0,0,0,3.192,1.821l97.827-29.331Z"/>
  <path id="Rounded_Rectangle_14_copy_2" data-name="Rounded Rectangle 14 copy 2" style="stroke-width: 4px; fill-rule: evenodd; fill: none; stroke: #b7b7b7;" d="M218.948,125.554H200.306a2.636,2.636,0,0,0-2.647,2.625v17.773"/>
  <path id="Rounded_Rectangle_15" data-name="Rounded Rectangle 15" style="stroke: #e1e1e2;fill-rule: evenodd; fill: none; stroke-width: 3px;" d="M60.922,41.494a3.548,3.548,0,1,1,6.8-2.038L73.067,57.3a3.548,3.548,0,0,1-6.8,2.038l-1.934-6.451"/>
  <path id="Rounded_Rectangle_11" data-name="Rounded Rectangle 11" style=" fill: #e1e1e2; stroke: #e1e1e2; stroke-width: 4px; fill-rule: evenodd;" d="M83.4,69.852l78.156-23.433a2.661,2.661,0,0,1,3.313,1.785l0.629,2.1a2.661,2.661,0,0,1-1.785,3.313L85.557,77.046a2.661,2.661,0,0,1-3.313-1.784l-0.629-2.1A2.661,2.661,0,0,1,83.4,69.852Z"/>
  <path id="Rounded_Rectangle_11_copy" data-name="Rounded Rectangle 11 copy" style="fill: #e1e1e2; stroke: #e1e1e2; stroke-width: 4px; fill-rule: evenodd;" d="M89.913,91.769L168.07,68.336a2.661,2.661,0,0,1,3.313,1.785l0.628,2.1a2.661,2.661,0,0,1-1.784,3.313L92.07,98.964a2.661,2.661,0,0,1-3.313-1.784l-0.629-2.1A2.661,2.661,0,0,1,89.913,91.769Z"/>
  <path id="Rounded_Rectangle_11_copy_2" data-name="Rounded Rectangle 11 copy 2" style="fill: #e1e1e2; stroke: #e1e1e2; stroke-width: 4px; fill-rule: evenodd;" d="M97.324,113.592l78.157-23.433a2.66,2.66,0,0,1,3.312,1.784l0.629,2.1a2.661,2.661,0,0,1-1.784,3.313L99.481,120.786A2.661,2.661,0,0,1,96.169,119l-0.629-2.1A2.661,2.661,0,0,1,97.324,113.592Z"/>
  <path id="Rounded_Rectangle_11_copy_3" data-name="Rounded Rectangle 11 copy 3" style="fill: #e1e1e2; stroke: #e1e1e2; stroke-width: 4px; fill-rule: evenodd;" d="M103.92,135.688l78.13-23.426a2.661,2.661,0,0,1,3.313,1.785l0.629,2.1a2.661,2.661,0,0,1-1.785,3.313l-78.13,23.425a2.661,2.661,0,0,1-3.313-1.785l-0.628-2.1A2.66,2.66,0,0,1,103.92,135.688Z"/>
  <path id="Rounded_Rectangle_14_copy_5-2" data-name="Rounded Rectangle 14 copy 5" style="fill: #e1e1e2; fill-rule: evenodd; stroke-width: 4px; stroke: #d1d2d2;" d="M171.827,131.915l-18.467,2.551a2.636,2.636,0,0,0-2.263,2.962l2.433,17.606"/>
  <path id="Rounded_Rectangle_14_copy_3-2" data-name="Rounded Rectangle 14 copy 3" style="stroke-width: 4px; fill-rule: evenodd; fill: #c9c9c9; stroke: #c9c9c9;" d="M214.513,127.328H195.872a2.636,2.636,0,0,0-2.647,2.625v17.773"/>
  <path id="Rounded_Rectangle_14_copy-2" data-name="Rounded Rectangle 14 copy" style=" stroke-width: 4px; fill-rule: evenodd; stroke: #d1d2d2; fill: #fff;" d="M256.461,128.894L239.266,4.418a2.6,2.6,0,0,0-2.875-2.289L117.538,18.547a2.6,2.6,0,0,0-2.147,2.982l19.66,142.325a2.6,2.6,0,0,0,2.875,2.289l101.168-13.975Z"/>
  <path id="Rounded_Rectangle_14_copy_2-2" data-name="Rounded Rectangle 14 copy 2" style="stroke-width: 4px; fill-rule: evenodd; fill: none; stroke: #b7b7b7;" d="M262.406,125.554H243.764a2.636,2.636,0,0,0-2.647,2.625v17.773"/>
  <path id="Rounded_Rectangle_15-2" data-name="Rounded Rectangle 15" style="stroke: #d1d2d2; fill-rule: evenodd; stroke-width: 3px; fill: none;" d="M122.934,17.8a3.547,3.547,0,1,1,7.028-.971l2.549,18.45a3.548,3.548,0,0,1-7.029.971s-0.421-3.051-.921-6.671"/>
  <path id="Rounded_Rectangle_11-2" data-name="Rounded Rectangle 11" style="stroke: #d1d2d2; fill: #d1d2d2; stroke-width: 4px; fill-rule: evenodd;" d="M140.795,49.272l80.826-11.165a2.661,2.661,0,0,1,3,2.272l0.3,2.169a2.661,2.661,0,0,1-2.271,3L141.822,56.713a2.66,2.66,0,0,1-3-2.272l-0.3-2.169A2.661,2.661,0,0,1,140.795,49.272Z"/>
  <path id="Rounded_Rectangle_11_copy-2" data-name="Rounded Rectangle 11 copy" style="stroke: #d1d2d2; fill: #d1d2d2; stroke-width: 4px; fill-rule: evenodd;" d="M143.868,71.93L224.7,60.765a2.661,2.661,0,0,1,3,2.271l0.3,2.169a2.661,2.661,0,0,1-2.271,3L144.9,79.37a2.66,2.66,0,0,1-3-2.272l-0.3-2.169A2.661,2.661,0,0,1,143.868,71.93Z"/>
  <path id="Rounded_Rectangle_11_copy_2-2" data-name="Rounded Rectangle 11 copy 2" style="stroke: #d1d2d2; fill: #d1d2d2; stroke-width: 4px; fill-rule: evenodd;" d="M147.844,94.631L228.67,83.466a2.661,2.661,0,0,1,3,2.272l0.3,2.169a2.661,2.661,0,0,1-2.271,3l-80.827,11.165a2.66,2.66,0,0,1-3-2.272l-0.3-2.169A2.661,2.661,0,0,1,147.844,94.631Z"/>
  <path id="Rounded_Rectangle_11_copy_3-2" data-name="Rounded Rectangle 11 copy 3" style="stroke: #d1d2d2; fill: #d1d2d2; stroke-width: 4px; fill-rule: evenodd;" d="M150.972,117.477l80.8-11.161a2.661,2.661,0,0,1,3,2.271l0.3,2.169a2.661,2.661,0,0,1-2.272,3L152,124.917a2.66,2.66,0,0,1-3-2.271l-0.3-2.169A2.661,2.661,0,0,1,150.972,117.477Z"/>
  <path id="Rounded_Rectangle_14_copy_5-3" data-name="Rounded Rectangle 14 copy 5" style=" fill: #e1e1e2; stroke: #e1e1e2; stroke-width: 4px; fill-rule: evenodd;" d="M225.821,127.716H207.179a2.636,2.636,0,0,0-2.646,2.625v17.773"/>
  <path id="Rounded_Rectangle_14_copy_3-3" data-name="Rounded Rectangle 14 copy 3" style="stroke-width: 4px; fill-rule: evenodd; fill: #c9c9c9; stroke: #c9c9c9;" d="M260.41,134.811H241.768a2.636,2.636,0,0,0-2.647,2.625v17.773"/>
  <path id="Rounded_Rectangle_14_copy-3" data-name="Rounded Rectangle 14 copy" style="stroke-width: 4px; fill-rule: evenodd; fill: #fff; stroke: #b7b7b7;" d="M310.072,136.3V10.646a2.6,2.6,0,0,0-2.534-2.661H187.556a2.6,2.6,0,0,0-2.535,2.661V154.322a2.6,2.6,0,0,0,2.535,2.661H289.685Z"/>
  <path id="Rounded_Rectangle_14_copy_2-3" data-name="Rounded Rectangle 14 copy 2" style="stroke-width: 4px; fill-rule: evenodd; fill: none; stroke: #b7b7b7;" d="M308.3,133.037H289.66a2.636,2.636,0,0,0-2.647,2.625v17.773"/>
  <path id="Rounded_Rectangle_15-3" data-name="Rounded Rectangle 15" style="fill-rule: evenodd; fill: none; stroke: #b7b7b7; stroke-width: 3px;" d="M193,7.986a3.548,3.548,0,1,1,7.1,0V26.61a3.548,3.548,0,1,1-7.1,0V19.875"/>
  <path id="Rounded_Rectangle_11-3" data-name="Rounded Rectangle 11" style="fill: #b7b7b7; stroke-width: 4px; fill-rule: evenodd; stroke: #b7b7b7;" d="M206.729,41.6h80.915a3,3,0,0,1,3,3v1.511a3,3,0,0,1-3,3H206.729a3,3,0,0,1-3-3V44.6A3,3,0,0,1,206.729,41.6Z"/>
  <path id="Rounded_Rectangle_11_copy-3" data-name="Rounded Rectangle 11 copy" style="fill: #b7b7b7; stroke-width: 4px; fill-rule: evenodd; stroke: #b7b7b7;" d="M206.673,64.469h80.916a3,3,0,0,1,3,3V68.98a3,3,0,0,1-3,3H206.673a3,3,0,0,1-3-3V67.469A3,3,0,0,1,206.673,64.469Z"/>
  <path id="Rounded_Rectangle_11_copy_2-3" data-name="Rounded Rectangle 11 copy 2" style="fill: #b7b7b7; stroke-width: 4px; fill-rule: evenodd; stroke: #b7b7b7;" d="M207.505,87.5H288.42a3,3,0,0,1,3,3v1.511a3,3,0,0,1-3,3H207.505a3,3,0,0,1-3-3V90.5A3,3,0,0,1,207.505,87.5Z"/>
  <path id="Rounded_Rectangle_11_copy_3-3" data-name="Rounded Rectangle 11 copy 3" style="fill: #b7b7b7; stroke-width: 4px; fill-rule: evenodd; stroke: #b7b7b7;" d="M207.477,110.56h80.888a3,3,0,0,1,3,3v1.511a3,3,0,0,1-3,3H207.477a3,3,0,0,1-3-3V113.56A3,3,0,0,1,207.477,110.56Z"/>
</svg>
