<svg id="nh_empty_tasks" data-name="Layer 4" xmlns="http://www.w3.org/2000/svg" viewBox="0 0 260.1 185.84"><rect x="70.07" y="25.1" width="114.8" height="148.09" rx="3" transform="translate(-72.87 35.72) rotate(-15.18)" stroke-width="4" stroke="#e1e1e2" stroke-linecap="round" stroke-linejoin="round" fill="#fff"/><rect x="77.13" y="31.63" width="100.18" height="135.21" rx="2" transform="translate(-72.91 35.66) rotate(-15.18)" stroke-width="2" stroke="#e1e1e2" stroke-linecap="round" stroke-linejoin="round" fill="#fff"/><path id="Shape_1_copy_3-7" data-name="Shape 1 copy 3-7" stroke="#e1e1e2" d="M85.66,84.89l3.86,1.53,4.4-13.9" fill="#fff" transform="translate(-51.36 -1.11)" stroke-linecap="round" stroke-linejoin="round" stroke-width="2" fill-rule="evenodd"/><path id="Shape_1_copy_3-7-2" data-name="Shape 1 copy 3-7" stroke="#e1e1e2" d="M93.49,113.73l3.85,1.54,4.41-13.91" fill="#fff" transform="translate(-51.36 -1.11)" stroke-linecap="round" stroke-linejoin="round" stroke-width="2" fill-rule="evenodd"/><path id="Shape_1_copy_3-7-3" data-name="Shape 1 copy 3-7" stroke="#e1e1e2" d="M101.13,143.36,105,144.9,109.39,131" fill="#fff" transform="translate(-51.36 -1.11)" stroke-linecap="round" stroke-linejoin="round" stroke-width="2" fill-rule="evenodd"/><path id="Rounded_Rectangle_2_copy-3" data-name="Rounded Rectangle 2 copy-3" stroke="#e1e1e2" d="M75.89,31.5l61.44-16.56a2.5,2.5,0,0,1,3.07,1.77l3.79,14a2.51,2.51,0,0,1-1.77,3.07h0L81,50.35a2.52,2.52,0,0,1-3.08-1.77l-3.78-14a2.5,2.5,0,0,1,1.76-3.07Z" fill="#fff" transform="translate(-51.36 -1.11)" stroke-linecap="round" stroke-linejoin="round" stroke-width="2" fill-rule="evenodd"/><line x1="109.26" y1="90.64" x2="69.22" y2="101.5" fill="#fff" stroke="#e1e1e2" stroke-linecap="round" stroke-linejoin="round" stroke-width="2"/><line x1="61.39" y1="72.65" x2="101.43" y2="61.79" fill="#fff" stroke="#e1e1e2" stroke-linecap="round" stroke-linejoin="round" stroke-width="2"/><line x1="117.27" y1="120.16" x2="77.23" y2="131.03" fill="#fff" stroke="#e1e1e2" stroke-linecap="round" stroke-linejoin="round" stroke-width="2"/><rect x="118.55" y="11.85" width="114.8" height="148.09" rx="3" transform="translate(-60.46 20.8) rotate(-6.95)" stroke-width="4" stroke="#d1d2d2" stroke-linecap="round" stroke-linejoin="round" fill="#fff"/><rect x="125.61" y="18.35" width="100.18" height="135.21" rx="2" transform="translate(-60.47 20.77) rotate(-6.95)" stroke-width="2" stroke="#d1d2d2" stroke-linecap="round" stroke-linejoin="round" fill="#fff"/><path id="Shape_1_copy_3-7-4" data-name="Shape 1 copy 3-7" stroke="#d1d2d2" d="M136.62,65.8l3.6,2.07,6.35-13.13" fill="#fff" transform="translate(-51.36 -1.11)" stroke-linecap="round" stroke-linejoin="round" stroke-width="2" fill-rule="evenodd"/><path id="Shape_1_copy_3-7-5" data-name="Shape 1 copy 3-7" stroke="#d1d2d2" d="M140.24,95.47l3.59,2.07,6.35-13.13" fill="#fff" transform="translate(-51.36 -1.11)" stroke-linecap="round" stroke-linejoin="round" stroke-width="2" fill-rule="evenodd"/><path id="Shape_1_copy_3-7-6" data-name="Shape 1 copy 3-7" stroke="#d1d2d2" d="M143.55,125.89l3.6,2.07,6.35-13.13" fill="#fff" transform="translate(-51.36 -1.11)" stroke-linecap="round" stroke-linejoin="round" stroke-width="2" fill-rule="evenodd"/><path id="Rounded_Rectangle_2_copy-3-2" data-name="Rounded Rectangle 2 copy-3" stroke="#d1d2d2" d="M134.59,11.57,197.77,4a2.52,2.52,0,0,1,2.79,2.19l1.74,14.41a2.51,2.51,0,0,1-2.19,2.78h0l-63.18,7.59a2.51,2.51,0,0,1-2.79-2.18L132.4,14.35a2.5,2.5,0,0,1,2.19-2.78Z" fill="#fff" transform="translate(-51.36 -1.11)" stroke-linecap="round" stroke-linejoin="round" stroke-width="2" fill-rule="evenodd"/><line x1="158.46" y1="82.21" x2="117.28" y2="87.23" fill="#fff" stroke="#d1d2d2" stroke-linecap="round" stroke-linejoin="round" stroke-width="2"/><line x1="113.66" y1="57.56" x2="154.85" y2="52.54" fill="#fff" stroke="#d1d2d2" stroke-linecap="round" stroke-linejoin="round" stroke-width="2"/><line x1="162.16" y1="112.58" x2="120.98" y2="117.6" fill="#fff" stroke="#d1d2d2" stroke-linecap="round" stroke-linejoin="round" stroke-width="2"/><rect x="123.24" y="5.74" width="114.8" height="148.09" rx="3" stroke-width="4" stroke="#b7b7b7" stroke-linecap="round" stroke-linejoin="round" fill="#fff"/><rect x="130.28" y="12.21" width="100.18" height="135.21" rx="2" stroke-width="2" stroke="#b7b7b7" stroke-linecap="round" stroke-linejoin="round" fill="#fff"/><path id="Shape_1_copy_3-7-7" data-name="Shape 1 copy 3-7" d="M195.39,56.19l3.31,2.5,7.9-12.27" transform="translate(-51.36 -1.11)" fill="none" stroke="#b7b7b7" stroke-linecap="round" stroke-width="2" fill-rule="evenodd"/><path id="Shape_1_copy_3-7-8" data-name="Shape 1 copy 3-7" d="M195.39,86.08l3.31,2.5,7.9-12.27" transform="translate(-51.36 -1.11)" fill="none" stroke="#b7b7b7" stroke-linecap="round" stroke-width="2" fill-rule="evenodd"/><path id="Shape_1_copy_3-7-9" data-name="Shape 1 copy 3-7" d="M195,116.68l3.32,2.49,7.89-12.27" transform="translate(-51.36 -1.11)" fill="none" stroke="#b7b7b7" stroke-linecap="round" stroke-width="2" fill-rule="evenodd"/><path id="Rounded_Rectangle_2_copy-3-3" data-name="Rounded Rectangle 2 copy-3" d="M199.93,2.11l63.63.11a2.5,2.5,0,0,1,2.51,2.5l0,14.52a2.5,2.5,0,0,1-2.5,2.5h0l-63.63-.11a2.51,2.51,0,0,1-2.51-2.5l0-14.52a2.51,2.51,0,0,1,2.51-2.5Z" transform="translate(-51.36 -1.11)" fill="#fff" stroke="#b7b7b7" stroke-width="2" fill-rule="evenodd"/><line x1="214.57" y1="81.33" x2="173.08" y2="81.33" fill="#fff" stroke="#b7b7b7" stroke-linecap="round" stroke-linejoin="round" stroke-width="2"/><line x1="173.08" y1="51.44" x2="214.57" y2="51.44" fill="#fff" stroke="#b7b7b7" stroke-linecap="round" stroke-linejoin="round" stroke-width="2"/><line x1="214.57" y1="111.92" x2="173.08" y2="111.92" fill="#fff" stroke="#b7b7b7" stroke-linecap="round" stroke-linejoin="round" stroke-width="2"/><rect x="275.38" y="102.94" width="15.81" height="69.69" rx="2" transform="translate(97.46 -148.2) rotate(38.79)" stroke-width="2" stroke="#b7b7b7" stroke-linecap="round" stroke-linejoin="round" fill="#fff"/><polygon points="210.09 163.84 215.99 168.58 208.93 171.32 201.87 174.06 203.03 166.57 204.19 159.09 210.09 163.84" fill="#fff" stroke="#b7b7b7" stroke-linecap="round" stroke-linejoin="round" stroke-width="2"/><line x1="241.75" y1="111.76" x2="254.15" y2="121.72" fill="#fff" stroke="#b7b7b7" stroke-linecap="round" stroke-linejoin="round" stroke-width="2"/></svg>
