<?xml version="1.0" encoding="utf-8"?>
<!-- Generator: Adobe Illustrator 22.0.1, SVG Export Plug-In . SVG Version: 6.00 Build 0)  -->
<svg version="1.1" id="computational_x5F_tools" xmlns="http://www.w3.org/2000/svg" xmlns:xlink="http://www.w3.org/1999/xlink"
	 x="0px" y="0px" viewBox="0 0 32 32" style="enable-background:new 0 0 32 32;" xml:space="preserve">
<polyline style="fill:none;stroke:#FFFFFF;stroke-width:0.5;stroke-linecap:round;stroke-linejoin:round;stroke-miterlimit:10;" points="
	6.3,17.9 1.8,17.9 1.8,6.2 "/>
<line style="fill:none;stroke:#FFFFFF;stroke-width:0.5;stroke-linecap:round;stroke-linejoin:round;stroke-miterlimit:10;" x1="0.9" y1="7.8" x2="1.8" y2="7.8"/>
<line style="fill:none;stroke:#FFFFFF;stroke-width:0.5;stroke-linecap:round;stroke-linejoin:round;stroke-miterlimit:10;" x1="0.9" y1="11.2" x2="1.8" y2="11.2"/>
<line style="fill:none;stroke:#FFFFFF;stroke-width:0.5;stroke-linecap:round;stroke-linejoin:round;stroke-miterlimit:10;" x1="0.9" y1="14.6" x2="1.8" y2="14.6"/>
<polyline style="fill:none;stroke:#FFFFFF;stroke-width:0.5;stroke-linecap:round;stroke-linejoin:round;stroke-miterlimit:10;" points="
	3.5,17.7 3.5,10.8 9.1,10.8 9.1,15.8 "/>
<polyline style="fill:none;stroke:#FFFFFF;stroke-width:0.5;stroke-linecap:round;stroke-linejoin:round;stroke-miterlimit:10;" points="
	11.4,16.1 11.4,6.9 17.1,6.9 17.1,16.1 "/>
<polyline style="fill:none;stroke:#FFFFFF;stroke-width:0.5;stroke-linecap:round;stroke-linejoin:round;stroke-miterlimit:10;" points="
	19.4,15.2 19.4,9 25.1,9 25.1,12 "/>
<circle style="fill:none;stroke:#FFFFFF;stroke-width:0.5;stroke-linecap:round;stroke-linejoin:round;stroke-miterlimit:10;" cx="1.3" cy="20.1" r="0.9"/>
<circle style="fill:none;stroke:#FFFFFF;stroke-width:0.5;stroke-linecap:round;stroke-linejoin:round;stroke-miterlimit:10;" cx="5.1" cy="26.3" r="0.9"/>
<circle style="fill:none;stroke:#FFFFFF;stroke-width:0.5;stroke-linecap:round;stroke-linejoin:round;stroke-miterlimit:10;" cx="11.8" cy="19.6" r="0.9"/>
<circle style="fill:none;stroke:#FFFFFF;stroke-width:0.5;stroke-linecap:round;stroke-linejoin:round;stroke-miterlimit:10;" cx="17.7" cy="21.2" r="0.9"/>
<circle style="fill:none;stroke:#FFFFFF;stroke-width:0.5;stroke-linecap:round;stroke-linejoin:round;stroke-miterlimit:10;" cx="29" cy="18.3" r="0.9"/>
<line style="fill:none;stroke:#FFFFFF;stroke-width:0.5;stroke-linecap:round;stroke-linejoin:round;stroke-miterlimit:10;" x1="13.4" y1="19.9" x2="16.1" y2="20.7"/>
<line style="fill:none;stroke:#FFFFFF;stroke-width:0.5;stroke-linecap:round;stroke-linejoin:round;stroke-miterlimit:10;" x1="6.6" y1="25.2" x2="10.6" y2="20.8"/>
<g style="opacity:0.5;">
	<g>
		<path style="fill:#FFFFFF;" d="M14.4,24.6c0,0,0.1,0,0.1,0c0.3,0.1,0.4,0.3,0.4,0.6c0,0.2-0.3,0.4-0.5,0.4c0,0-0.1,0-0.1,0
			c-0.3-0.1-0.4-0.3-0.4-0.6C14,24.8,14.2,24.6,14.4,24.6 M14.4,24.1C14.4,24.1,14.4,24.1,14.4,24.1c-0.5,0-0.9,0.3-1,0.8
			c-0.1,0.5,0.2,1.1,0.8,1.2c0.1,0,0.1,0,0.2,0c0.5,0,0.9-0.3,1-0.8c0.1-0.5-0.2-1.1-0.8-1.2C14.6,24.1,14.5,24.1,14.4,24.1
			L14.4,24.1z"/>
	</g>
	
		<line style="fill:none;stroke:#FFFFFF;stroke-width:0.5;stroke-linecap:round;stroke-linejoin:round;stroke-miterlimit:10;" x1="15.1" y1="24.3" x2="16.6" y2="22.6"/>
</g>
<g style="opacity:0.5;">
	<g>
		<path style="fill:#FFFFFF;" d="M30.8,23.1c0.1,0,0.3,0.1,0.4,0.2c0.2,0.2,0.2,0.5,0,0.7c-0.1,0.1-0.2,0.1-0.3,0.1
			c-0.1,0-0.3-0.1-0.4-0.2c-0.2-0.2-0.2-0.5,0-0.7C30.6,23.2,30.7,23.1,30.8,23.1 M30.8,22.6C30.8,22.6,30.8,22.6,30.8,22.6
			c-0.2,0-0.5,0.1-0.7,0.3c-0.2,0.2-0.3,0.4-0.3,0.7c0,0.3,0.1,0.5,0.3,0.7c0.2,0.2,0.5,0.3,0.7,0.3c0.2,0,0.5-0.1,0.7-0.3
			c0.4-0.4,0.4-1,0.1-1.4C31.4,22.8,31.1,22.6,30.8,22.6L30.8,22.6z"/>
	</g>
	
		<line style="fill:none;stroke:#FFFFFF;stroke-width:0.5;stroke-linecap:round;stroke-linejoin:round;stroke-miterlimit:10;" x1="30.6" y1="22.6" x2="30.1" y2="20.4"/>
</g>
<g style="opacity:0.5;">
	<g>
		<path style="fill:#FFFFFF;" d="M25.1,14.1c0,0,0.1,0,0.1,0c0.3,0.1,0.4,0.3,0.4,0.6c-0.1,0.2-0.3,0.4-0.5,0.4c0,0-0.1,0-0.1,0
			c-0.3-0.1-0.4-0.3-0.4-0.6C24.7,14.2,24.9,14.1,25.1,14.1 M25.1,13.6C25.1,13.6,25.1,13.6,25.1,13.6c-0.5,0-0.8,0.3-1,0.7
			c-0.1,0.3,0,0.5,0.1,0.7c0.1,0.2,0.4,0.4,0.6,0.5c0.1,0,0.2,0,0.2,0c0.5,0,0.8-0.3,1-0.7c0.1-0.3,0-0.5-0.1-0.7
			c-0.1-0.2-0.4-0.4-0.6-0.5C25.3,13.6,25.2,13.6,25.1,13.6L25.1,13.6z"/>
	</g>
	
		<line style="fill:none;stroke:#FFFFFF;stroke-width:0.5;stroke-linecap:round;stroke-linejoin:round;stroke-miterlimit:10;" x1="25.9" y1="15.3" x2="27.5" y2="16.8"/>
</g>
<line style="fill:none;stroke:#FFFFFF;stroke-width:0.5;stroke-linecap:round;stroke-linejoin:round;stroke-miterlimit:10;" x1="2.3" y1="21.9" x2="4.2" y2="24.8"/>
<line style="fill:none;stroke:#FFFFFF;stroke-width:0.5;stroke-linecap:round;stroke-linejoin:round;stroke-miterlimit:10;" x1="19.7" y1="20.9" x2="27.3" y2="18.9"/>
</svg>
