<?xml version="1.0" encoding="utf-8"?>
<!-- Generator: Adobe Illustrator 22.0.1, SVG Export Plug-In . SVG Version: 6.00 Build 0)  -->
<svg version="1.1" id="machiene_x5F_readable" xmlns="http://www.w3.org/2000/svg" xmlns:xlink="http://www.w3.org/1999/xlink"
	 x="0px" y="0px" viewBox="0 0 32 32" style="enable-background:new 0 0 32 32;" xml:space="preserve">
<path style="opacity:0.5;fill:none;stroke:#FFFFFF;stroke-width:0.5;stroke-linecap:round;stroke-linejoin:round;stroke-miterlimit:10;" d="
	M9,22.5c-0.3,0-0.6-0.3-0.6-0.6V5c0-0.3,0.3-0.6,0.6-0.6h12.2c0.3,0,0.6,0.3,0.6,0.6"/>
<path style="fill:none;stroke:#FFFFFF;stroke-width:0.5;stroke-linecap:round;stroke-linejoin:round;stroke-miterlimit:10;" d="
	M22.6,23.9H10.3c-0.3,0-0.6-0.3-0.6-0.6V6.4c0-0.3,0.3-0.6,0.6-0.6h12.3c0.3,0,0.6,0.3,0.6,0.6v16.8C23.2,23.6,22.9,23.9,22.6,23.9z
	"/>
<path style="fill:none;stroke:#FFFFFF;stroke-width:0.5;stroke-linecap:round;stroke-linejoin:round;stroke-miterlimit:10;" d="
	M30.8,12.1l0,2.4c0,0.4-0.3,0.7-0.7,0.7l-2.7,0c-0.4,0-0.7-0.3-0.7-0.7l0-2.7c0-0.4,0.3-0.7,0.7-0.7l2.6,0"/>
<circle style="fill:none;stroke:#FFFFFF;stroke-width:0.5;stroke-linecap:round;stroke-linejoin:round;stroke-miterlimit:10;" cx="30.9" cy="11.3" r="0.8"/>
<line style="fill:none;stroke:#FFFFFF;stroke-width:0.5;stroke-linecap:round;stroke-linejoin:round;stroke-miterlimit:10;" x1="26.4" y1="13.6" x2="15" y2="13.6"/>
<line style="fill:none;stroke:#FFFFFF;stroke-width:0.5;stroke-linecap:round;stroke-linejoin:round;stroke-miterlimit:10;" x1="11.1" y1="13.6" x2="13.4" y2="13.6"/>
<path style="fill:none;stroke:#FFFFFF;stroke-width:0.5;stroke-linecap:round;stroke-linejoin:round;stroke-miterlimit:10;" d="
	M1.2,20.1l0,2.4c0,0.4,0.3,0.7,0.7,0.7l2.7,0c0.4,0,0.7-0.3,0.7-0.7l0-2.7c0-0.4-0.3-0.7-0.7-0.7l-2.6,0"/>
<circle style="fill:none;stroke:#FFFFFF;stroke-width:0.5;stroke-linecap:round;stroke-linejoin:round;stroke-miterlimit:10;" cx="1.2" cy="19" r="0.8"/>
<circle style="fill:none;stroke:#FFFFFF;stroke-width:0.5;stroke-linecap:round;stroke-linejoin:round;stroke-miterlimit:10;" cx="5.6" cy="9.5" r="0.8"/>
<line style="fill:none;stroke:#FFFFFF;stroke-width:0.5;stroke-linecap:round;stroke-linejoin:round;stroke-miterlimit:10;" x1="5.7" y1="21.1" x2="17.1" y2="21.1"/>
<line style="fill:none;stroke:#FFFFFF;stroke-width:0.5;stroke-linecap:round;stroke-linejoin:round;stroke-miterlimit:10;" x1="21" y1="21.1" x2="18.7" y2="21.1"/>
<line style="fill:none;stroke:#FFFFFF;stroke-width:0.5;stroke-linecap:round;stroke-linejoin:round;stroke-miterlimit:10;" x1="12" y1="16.2" x2="20.8" y2="16.1"/>
<line style="opacity:0.5;fill:none;stroke:#FFFFFF;stroke-width:0.5;stroke-linecap:round;stroke-linejoin:round;stroke-miterlimit:10;" x1="6.6" y1="16.1" x2="9.1" y2="16.1"/>
<line style="fill:none;stroke:#FFFFFF;stroke-width:0.5;stroke-linecap:round;stroke-linejoin:round;stroke-miterlimit:10;" x1="10.1" y1="16.1" x2="10.9" y2="16.1"/>
<path style="opacity:0.5;fill:none;stroke:#FFFFFF;stroke-width:0.5;stroke-linecap:round;stroke-linejoin:round;stroke-miterlimit:10;" d="
	M6.1,17H5c-0.2,0-0.3-0.1-0.3-0.3v-1.1c0-0.2,0.1-0.3,0.3-0.3h1.1c0.2,0,0.3,0.1,0.3,0.3v1.1C6.4,16.9,6.3,17,6.1,17z"/>
<line style="fill:none;stroke:#FFFFFF;stroke-width:0.5;stroke-linecap:round;stroke-linejoin:round;stroke-miterlimit:10;" x1="11.5" y1="11.2" x2="20.3" y2="11.1"/>
<line style="fill:none;stroke:#FFFFFF;stroke-width:0.5;stroke-linecap:round;stroke-linejoin:round;stroke-miterlimit:10;" x1="6.2" y1="11.2" x2="8.7" y2="11.2"/>
<line style="fill:none;stroke:#FFFFFF;stroke-width:0.5;stroke-linecap:round;stroke-linejoin:round;stroke-miterlimit:10;" x1="9.6" y1="11.2" x2="10.5" y2="11.2"/>
<path style="fill:none;stroke:#FFFFFF;stroke-width:0.5;stroke-linecap:round;stroke-linejoin:round;stroke-miterlimit:10;" d="
	M5.8,10.3v1.9c0,0.3-0.3,0.6-0.6,0.6H3.1c-0.3,0-0.6-0.3-0.6-0.6v-2.1c0-0.3,0.3-0.6,0.6-0.6h1.6"/>
<line style="fill:none;stroke:#FFFFFF;stroke-width:0.5;stroke-linecap:round;stroke-linejoin:round;stroke-miterlimit:10;" x1="19.7" y1="18.7" x2="10.8" y2="18.6"/>
<line style="fill:none;stroke:#FFFFFF;stroke-width:0.5;stroke-linecap:round;stroke-linejoin:round;stroke-miterlimit:10;" x1="25" y1="18.7" x2="22.5" y2="18.7"/>
<line style="fill:none;stroke:#FFFFFF;stroke-width:0.5;stroke-linecap:round;stroke-linejoin:round;stroke-miterlimit:10;" x1="21.6" y1="18.7" x2="20.7" y2="18.7"/>
<line style="opacity:0.5;fill:none;stroke:#FFFFFF;stroke-width:0.5;stroke-linecap:round;stroke-linejoin:round;stroke-miterlimit:10;" x1="10.3" y1="26.9" x2="11" y2="26.9"/>
<path style="fill:none;stroke:#FFFFFF;stroke-width:0.5;stroke-linecap:round;stroke-linejoin:round;stroke-miterlimit:10;" d="
	M25.5,19.5h1.1c0.2,0,0.3-0.1,0.3-0.3v-1.1c0-0.2-0.1-0.3-0.3-0.3h-1.1c-0.2,0-0.3,0.1-0.3,0.3v1.1C25.2,19.4,25.4,19.5,25.5,19.5z"
	/>
<line style="fill:none;stroke:#FFFFFF;stroke-width:0.5;stroke-linecap:round;stroke-linejoin:round;stroke-miterlimit:10;" x1="19.9" y1="8.8" x2="11" y2="8.8"/>
<line style="opacity:0.5;fill:none;stroke:#FFFFFF;stroke-width:0.5;stroke-linecap:round;stroke-linejoin:round;stroke-miterlimit:10;" x1="25.2" y1="8.8" x2="22.7" y2="8.8"/>
<line style="fill:none;stroke:#FFFFFF;stroke-width:0.5;stroke-linecap:round;stroke-linejoin:round;stroke-miterlimit:10;" x1="21.8" y1="8.8" x2="20.9" y2="8.8"/>
<path style="opacity:0.5;fill:none;stroke:#FFFFFF;stroke-width:0.5;stroke-linecap:round;stroke-linejoin:round;stroke-miterlimit:10;" d="
	M25.8,9.7h1.1c0.2,0,0.3-0.1,0.3-0.3V8.3c0-0.2-0.1-0.3-0.3-0.3h-1.1c-0.2,0-0.3,0.1-0.3,0.3v1.1C25.5,9.5,25.6,9.7,25.8,9.7z"/>
<line style="opacity:0.5;fill:none;stroke:#FFFFFF;stroke-width:0.5;stroke-linecap:round;stroke-linejoin:round;stroke-miterlimit:10;" x1="5" y1="26.9" x2="9" y2="26.9"/>
<path style="fill:none;stroke:#FFFFFF;stroke-width:0.5;stroke-linecap:round;stroke-linejoin:round;stroke-miterlimit:10;" d="
	M7.8,24.6c-1,0.2-1.9,0.6-2.8,1.1h11.3"/>
<line style="opacity:0.5;fill:none;stroke:#FFFFFF;stroke-width:0.5;stroke-linecap:round;stroke-linejoin:round;stroke-miterlimit:10;" x1="12.1" y1="26.9" x2="17.7" y2="26.9"/>
</svg>
