<?xml version="1.0" encoding="utf-8"?>
<!-- Generator: Adobe Illustrator 22.0.1, SVG Export Plug-In . SVG Version: 6.00 Build 0)  -->
<svg version="1.1" id="discoverable_x5F_data" xmlns="http://www.w3.org/2000/svg" xmlns:xlink="http://www.w3.org/1999/xlink"
	 x="0px" y="0px" viewBox="0 0 32 32" style="enable-background:new 0 0 32 32;" xml:space="preserve">
<g style="opacity:0.5;">
	<g>
		<path d="M15.8,6.7c-0.1,0-0.1-0.1-0.2-0.1s-0.1-0.1,0-0.2c0-0.1,0.1-0.2,0.3-0.2c0.1,0,0.2,0.1,0.2,0.1s0.1,0.1,0,0.2
			C16.1,6.7,16,6.8,15.8,6.7C15.9,6.8,15.9,6.8,15.8,6.7z"/>
		<path style="fill:#FFFFFF;" d="M15.9,5.7c-0.4,0-0.7,0.2-0.7,0.6c-0.1,0.4,0.2,0.8,0.6,0.9c0.1,0,0.1,0,0.2,0
			c0.4,0,0.7-0.2,0.7-0.6c0.1-0.4-0.2-0.8-0.6-0.9C16,5.7,15.9,5.7,15.9,5.7L15.9,5.7z"/>
	</g>
	<g>
		<path d="M13,7c-0.1,0-0.2-0.1-0.2-0.2c0-0.1,0-0.1,0-0.2c0-0.1,0.1-0.1,0.1-0.1c0,0,0,0,0.1,0c0.2,0,0.2,0.1,0.3,0.2
			c0,0.1,0,0.1,0,0.2C13.2,6.9,13.2,6.9,13,7L13,7z"/>
		<path style="fill:#FFFFFF;" d="M13,6c-0.1,0-0.2,0-0.3,0.1c-0.4,0.2-0.6,0.6-0.4,1c0.1,0.3,0.4,0.5,0.7,0.5c0.1,0,0.2,0,0.3-0.1
			c0.4-0.2,0.6-0.6,0.4-1C13.6,6.2,13.3,6,13,6L13,6z"/>
	</g>
	<g>
		<path d="M10.8,8.7c0,0-0.1,0-0.2-0.1c-0.1-0.1-0.1-0.3-0.1-0.4c0-0.1,0.1-0.1,0.2-0.1c0,0,0.1,0,0.2,0.1c0.1,0.1,0.1,0.3,0.1,0.4
			C11,8.7,10.9,8.7,10.8,8.7z"/>
		<path style="fill:#FFFFFF;" d="M10.8,7.7c-0.2,0-0.5,0.1-0.6,0.3C10,8.3,10,8.8,10.4,9.1c0.1,0.1,0.3,0.1,0.4,0.1
			c0.2,0,0.5-0.1,0.6-0.3c0.2-0.3,0.2-0.8-0.2-1.1C11.1,7.7,11,7.7,10.8,7.7L10.8,7.7z"/>
	</g>
	<g>
		<path d="M9.9,11.3c-0.1,0-0.1,0-0.2-0.1c0-0.1-0.1-0.1-0.1-0.2c0-0.1,0.1-0.2,0.3-0.2c0.2,0,0.3,0.1,0.3,0.3
			C10.1,11.2,10,11.3,9.9,11.3L9.9,11.3z"/>
		<path style="fill:#FFFFFF;" d="M9.9,10.3c-0.4,0-0.7,0.3-0.8,0.7c0,0.4,0.3,0.8,0.7,0.8c0,0,0,0,0.1,0c0.4,0,0.7-0.3,0.8-0.7
			C10.7,10.7,10.3,10.3,9.9,10.3C9.9,10.3,9.9,10.3,9.9,10.3L9.9,10.3z"/>
	</g>
</g>
<g style="opacity:0.5;">
	<g>
		<path d="M19.6,6.1c-0.1,0-0.1,0-0.2-0.1s-0.1-0.1-0.1-0.2s0-0.1,0.1-0.2c0,0,0.1-0.1,0.2-0.1c0.1,0,0.1,0,0.2,0.1s0.1,0.1,0.1,0.2
			s0,0.1-0.1,0.2C19.7,6.1,19.7,6.1,19.6,6.1z"/>
		<path style="fill:#FFFFFF;" d="M19.6,5.1c-0.2,0-0.4,0.1-0.5,0.2c-0.3,0.3-0.3,0.8,0,1.1c0.1,0.1,0.3,0.2,0.5,0.2
			c0.2,0,0.4-0.1,0.5-0.2c0.3-0.3,0.3-0.8,0-1.1C20,5.2,19.8,5.1,19.6,5.1L19.6,5.1z"/>
	</g>
	<g>
		<path d="M16.9,4.5c0,0-0.1,0-0.1,0c-0.1-0.1-0.2-0.2-0.1-0.3C16.7,4,16.8,4,16.9,4c0,0,0.1,0,0.1,0c0.1,0.1,0.2,0.2,0.1,0.3
			C17.1,4.4,17.1,4.5,16.9,4.5z"/>
		<path style="fill:#FFFFFF;" d="M16.9,3.5c-0.3,0-0.6,0.2-0.7,0.5c-0.2,0.4,0,0.8,0.4,1C16.7,5,16.8,5,16.9,5
			c0.3,0,0.6-0.2,0.7-0.5c0.2-0.4,0-0.8-0.4-1C17.1,3.5,17,3.5,16.9,3.5L16.9,3.5z"/>
	</g>
	<g>
		<path d="M13.8,4c-0.1,0-0.3-0.1-0.3-0.3c0-0.1,0-0.1,0.1-0.2s0.1-0.1,0.2-0.1c0.1,0,0.3,0.1,0.3,0.3C14,3.9,13.9,4,13.8,4L13.8,4z
			"/>
		<path style="fill:#FFFFFF;" d="M13.8,3C13.8,3,13.8,3,13.8,3C13.4,3,13,3.3,13,3.8c0,0.4,0.3,0.8,0.8,0.8c0,0,0,0,0,0
			c0.4,0,0.8-0.3,0.8-0.8C14.5,3.3,14.2,3,13.8,3L13.8,3z"/>
	</g>
	<g>
		<path d="M10.7,4.8c-0.1,0-0.2-0.1-0.2-0.2c0-0.1,0-0.1,0-0.2c0-0.1,0.1-0.1,0.1-0.1c0,0,0.1,0,0.1,0c0.1,0,0.2,0.1,0.2,0.2
			c0.1,0.1,0,0.3-0.1,0.3C10.8,4.8,10.8,4.8,10.7,4.8z"/>
		<path style="fill:#FFFFFF;" d="M10.7,3.8c-0.1,0-0.2,0-0.3,0.1C10,4,9.8,4.4,10,4.8c0.1,0.3,0.4,0.5,0.7,0.5c0.1,0,0.2,0,0.3-0.1
			c0.4-0.2,0.6-0.6,0.4-1C11.3,3.9,11,3.8,10.7,3.8L10.7,3.8z"/>
	</g>
	<g>
		<path d="M8.3,6.6c-0.1,0-0.1,0-0.2-0.1C8,6.5,8,6.3,8.1,6.2c0,0,0.1-0.1,0.2-0.1s0.1,0,0.2,0.1c0.1,0.1,0.1,0.3,0,0.4
			C8.4,6.6,8.3,6.6,8.3,6.6z"/>
		<path style="fill:#FFFFFF;" d="M8.3,5.6c-0.2,0-0.4,0.1-0.5,0.2c-0.3,0.3-0.3,0.8,0,1.1c0.1,0.1,0.3,0.2,0.5,0.2
			c0.2,0,0.4-0.1,0.5-0.2c0.3-0.3,0.3-0.8,0-1.1C8.6,5.7,8.5,5.6,8.3,5.6L8.3,5.6z"/>
	</g>
	<g>
		<path d="M6.7,9.3c0,0-0.1,0-0.1,0c-0.1,0-0.1-0.1-0.1-0.1s0-0.1,0-0.2c0-0.1,0.1-0.2,0.2-0.2c0,0,0.1,0,0.1,0C6.9,8.8,7,9,6.9,9.1
			C6.9,9.2,6.8,9.3,6.7,9.3z"/>
		<path style="fill:#FFFFFF;" d="M6.7,8.2C6.4,8.2,6.1,8.4,6,8.7c-0.2,0.4,0,0.8,0.4,1c0.1,0,0.2,0.1,0.3,0.1c0.3,0,0.6-0.2,0.7-0.5
			c0.2-0.4,0-0.8-0.4-1C6.9,8.3,6.8,8.2,6.7,8.2L6.7,8.2z"/>
	</g>
	<g>
		<path d="M6.2,12.4c-0.1,0-0.3-0.1-0.3-0.3c0-0.1,0-0.1,0.1-0.2s0.1-0.1,0.2-0.1c0.1,0,0.3,0.1,0.3,0.3C6.4,12.3,6.3,12.4,6.2,12.4
			L6.2,12.4z"/>
		<path style="fill:#FFFFFF;" d="M6.2,11.4C6.2,11.4,6.2,11.4,6.2,11.4c-0.4,0-0.8,0.3-0.8,0.8c0,0.4,0.3,0.8,0.8,0.8c0,0,0,0,0,0
			c0.4,0,0.8-0.3,0.8-0.8C6.9,11.7,6.6,11.4,6.2,11.4L6.2,11.4z"/>
	</g>
	<g>
		<path d="M7,15.5c-0.1,0-0.2-0.1-0.2-0.2c-0.1-0.1,0-0.3,0.1-0.3c0,0,0.1,0,0.1,0c0.1,0,0.2,0.1,0.2,0.2c0,0.1,0,0.1,0,0.2
			c0,0.1-0.1,0.1-0.1,0.1C7,15.5,7,15.5,7,15.5z"/>
		<path style="fill:#FFFFFF;" d="M7,14.5c-0.1,0-0.2,0-0.3,0.1c-0.4,0.2-0.6,0.6-0.4,1C6.4,15.8,6.7,16,7,16c0.1,0,0.2,0,0.3-0.1
			c0.4-0.2,0.6-0.6,0.4-1C7.5,14.6,7.3,14.5,7,14.5L7,14.5z"/>
	</g>
</g>
<g style="opacity:0.5;">
	<g>
		<path d="M24.4,8.8c-0.1,0-0.2-0.1-0.3-0.2c0-0.1,0-0.3,0.2-0.3c0,0,0,0,0,0c0.2,0,0.3,0.1,0.3,0.2C24.7,8.6,24.6,8.7,24.4,8.8
			L24.4,8.8z"/>
		<path style="fill:#FFFFFF;" d="M24.4,7.8c-0.1,0-0.2,0-0.2,0c-0.4,0.1-0.6,0.6-0.5,1c0.1,0.3,0.4,0.5,0.7,0.5c0.1,0,0.2,0,0.2,0
			c0.4-0.1,0.6-0.6,0.5-1C25,8,24.7,7.8,24.4,7.8L24.4,7.8z"/>
	</g>
	<g>
		<path d="M23,6c-0.1,0-0.2,0-0.2-0.1c0-0.1-0.1-0.1,0-0.2s0.1-0.1,0.1-0.2c0.1,0,0.1,0,0.1,0c0.1,0,0.2,0,0.2,0.1
			c0.1,0.1,0.1,0.3-0.1,0.4C23.1,6,23,6,23,6z"/>
		<path style="fill:#FFFFFF;" d="M23,4.9c-0.1,0-0.3,0-0.4,0.1c-0.3,0.2-0.4,0.7-0.2,1.1c0.1,0.2,0.4,0.3,0.6,0.3
			c0.1,0,0.3,0,0.4-0.1c0.3-0.2,0.4-0.7,0.2-1.1C23.5,5.1,23.2,4.9,23,4.9L23,4.9z"/>
	</g>
	<g>
		<path d="M20.9,3.7c0,0-0.1,0-0.2-0.1c-0.1-0.1-0.1-0.3,0-0.4c0-0.1,0.1-0.1,0.2-0.1c0,0,0.1,0,0.2,0.1c0.1,0.1,0.1,0.3,0,0.4
			C21,3.7,20.9,3.7,20.9,3.7z"/>
		<path style="fill:#FFFFFF;" d="M20.9,2.7c-0.2,0-0.4,0.1-0.6,0.3C20,3.3,20.1,3.8,20.4,4c0.1,0.1,0.3,0.2,0.5,0.2
			c0.2,0,0.4-0.1,0.6-0.3c0.3-0.3,0.2-0.8-0.1-1.1C21.2,2.7,21,2.7,20.9,2.7L20.9,2.7z"/>
	</g>
	<g>
		<path d="M18.2,2.1C18.1,2.1,18.1,2.1,18.2,2.1c-0.2-0.1-0.3-0.2-0.2-0.4c0-0.1,0.1-0.2,0.2-0.2c0.2,0,0.2,0.1,0.2,0.2
			c0,0.1,0,0.1,0,0.2C18.4,2,18.3,2.1,18.2,2.1z"/>
		<path style="fill:#FFFFFF;" d="M18.2,1.1c-0.3,0-0.6,0.2-0.7,0.5c-0.2,0.4,0,0.8,0.4,1c0.1,0,0.2,0.1,0.3,0.1
			c0.3,0,0.6-0.2,0.7-0.5c0.2-0.4,0-0.8-0.4-1C18.3,1.1,18.2,1.1,18.2,1.1L18.2,1.1z"/>
	</g>
	<g>
		<path d="M15,1.4c-0.1,0-0.1,0-0.2-0.1c0-0.1-0.1-0.1-0.1-0.2c0-0.1,0.1-0.2,0.3-0.2c0.1,0,0.2,0,0.2,0.1c0,0.1,0.1,0.1,0.1,0.2
			C15.3,1.3,15.1,1.4,15,1.4L15,1.4z"/>
		<path style="fill:#FFFFFF;" d="M15,0.3c-0.4,0-0.7,0.3-0.8,0.7c0,0.4,0.3,0.8,0.7,0.8c0,0,0,0,0.1,0c0.4,0,0.7-0.3,0.8-0.7
			C15.8,0.7,15.5,0.4,15,0.3C15.1,0.3,15,0.3,15,0.3L15,0.3z"/>
	</g>
	<g>
		<path d="M11.7,1.6c-0.1,0-0.2-0.1-0.3-0.2c0-0.1,0-0.1,0-0.2c0-0.1,0.1-0.1,0.2-0.1c0,0,0,0,0,0c0.2,0,0.3,0.1,0.3,0.2
			C12,1.4,11.9,1.6,11.7,1.6L11.7,1.6z"/>
		<path style="fill:#FFFFFF;" d="M11.7,0.6c-0.1,0-0.1,0-0.2,0c-0.4,0.1-0.7,0.5-0.6,0.9c0.1,0.4,0.4,0.6,0.7,0.6c0.1,0,0.1,0,0.2,0
			c0.4-0.1,0.7-0.5,0.6-0.9C12.4,0.8,12.1,0.6,11.7,0.6L11.7,0.6z"/>
	</g>
	<g>
		<path d="M8.8,2.8c-0.1,0-0.2,0-0.2-0.1c0-0.1,0-0.1,0-0.2c0-0.1,0.1-0.1,0.1-0.2c0,0,0.1,0,0.1,0c0.1,0,0.2,0,0.2,0.1
			c0,0.1,0,0.1,0,0.2C9,2.7,9,2.7,8.9,2.8C8.9,2.8,8.8,2.8,8.8,2.8z"/>
		<path style="fill:#FFFFFF;" d="M8.8,1.8c-0.1,0-0.3,0-0.4,0.1C8,2.1,7.9,2.6,8.1,2.9c0.1,0.2,0.4,0.4,0.7,0.4c0.1,0,0.3,0,0.4-0.1
			c0.4-0.2,0.5-0.7,0.3-1C9.3,1.9,9,1.8,8.8,1.8L8.8,1.8z"/>
	</g>
	<g>
		<path d="M6.3,4.8c-0.1,0-0.1,0-0.2-0.1c-0.1,0-0.1-0.1-0.1-0.2c0-0.1,0-0.1,0.1-0.2c0.1-0.1,0.1-0.1,0.2-0.1c0.1,0,0.1,0,0.2,0.1
			c0.1,0,0.1,0.1,0.1,0.2c0,0.1,0,0.1-0.1,0.2C6.5,4.7,6.4,4.8,6.3,4.8z"/>
		<path style="fill:#FFFFFF;" d="M6.3,3.7C6.1,3.7,5.9,3.8,5.8,4C5.5,4.3,5.5,4.8,5.8,5C6,5.2,6.2,5.3,6.3,5.3
			c0.2,0,0.4-0.1,0.6-0.2c0.3-0.3,0.3-0.8,0-1.1C6.7,3.8,6.5,3.7,6.3,3.7L6.3,3.7z"/>
	</g>
	<g>
		<path d="M4.6,7.3c0,0-0.1,0-0.1,0c-0.1,0-0.1-0.1-0.1-0.2c0-0.1,0-0.1,0-0.2c0.1-0.1,0.2-0.1,0.2-0.1c0,0,0.1,0,0.1,0
			c0.1,0,0.1,0.1,0.1,0.2c0,0.1,0,0.1,0,0.2C4.8,7.3,4.7,7.3,4.6,7.3z"/>
		<path style="fill:#FFFFFF;" d="M4.6,6.3C4.3,6.3,4,6.5,3.9,6.7c-0.2,0.4,0,0.8,0.3,1c0.1,0.1,0.2,0.1,0.3,0.1
			c0.3,0,0.6-0.2,0.7-0.4c0.2-0.4,0-0.8-0.3-1C4.8,6.3,4.7,6.3,4.6,6.3L4.6,6.3z"/>
	</g>
	<g>
		<path d="M3.6,10.4c-0.1,0-0.2-0.2-0.2-0.3c0-0.1,0.1-0.2,0.3-0.2c0.2,0,0.3,0.2,0.3,0.3C3.9,10.3,3.7,10.4,3.6,10.4L3.6,10.4z"/>
		<path style="fill:#FFFFFF;" d="M3.6,9.3c-0.4,0-0.7,0.3-0.8,0.6c-0.1,0.4,0.2,0.8,0.6,0.9c0,0,0.1,0,0.1,0c0.4,0,0.7-0.3,0.8-0.6
			c0.1-0.4-0.2-0.8-0.6-0.9C3.7,9.4,3.7,9.3,3.6,9.3L3.6,9.3z"/>
	</g>
	<g>
		<path d="M3.6,13.7c-0.1,0-0.2-0.1-0.3-0.2c0-0.1,0-0.1,0-0.2s0.1-0.1,0.2-0.1c0,0,0,0,0,0c0.2,0,0.3,0.1,0.3,0.2
			C3.9,13.5,3.8,13.7,3.6,13.7L3.6,13.7z"/>
		<path style="fill:#FFFFFF;" d="M3.6,12.7c0,0-0.1,0-0.1,0c-0.4,0.1-0.7,0.5-0.6,0.9c0.1,0.4,0.4,0.6,0.8,0.6c0,0,0.1,0,0.1,0
			c0.4-0.1,0.7-0.5,0.6-0.9C4.3,12.9,4,12.7,3.6,12.7L3.6,12.7z"/>
	</g>
	<g>
		<path d="M4.6,16.7c-0.1,0-0.2,0-0.2-0.1c0-0.1,0-0.1,0-0.2c0-0.1,0.1-0.1,0.1-0.2c0,0,0.1,0,0.1,0c0.1,0,0.2,0,0.2,0.1
			c0.1,0.1,0,0.3-0.1,0.4C4.7,16.7,4.6,16.7,4.6,16.7z"/>
		<path style="fill:#FFFFFF;" d="M4.6,15.7c-0.1,0-0.2,0-0.3,0.1c-0.4,0.2-0.5,0.6-0.3,1c0.1,0.3,0.4,0.4,0.7,0.4
			c0.1,0,0.2,0,0.3-0.1c0.4-0.2,0.5-0.6,0.3-1C5.1,15.9,4.9,15.7,4.6,15.7L4.6,15.7z"/>
	</g>
	<g>
		<path d="M6.3,19.3c0,0-0.1,0-0.2-0.1c-0.1-0.1-0.1-0.3,0-0.4c0,0,0.1-0.1,0.2-0.1c0,0,0.1,0,0.2,0.1c0,0.1,0.1,0.1,0.1,0.2
			c0,0.1,0,0.1-0.1,0.2C6.5,19.3,6.4,19.3,6.3,19.3z"/>
		<path style="fill:#FFFFFF;" d="M6.3,18.3c-0.2,0-0.4,0.1-0.5,0.2c-0.3,0.3-0.3,0.8,0,1.1c0.2,0.2,0.4,0.2,0.6,0.2
			c0.2,0,0.4-0.1,0.5-0.2c0.3-0.3,0.3-0.8,0-1.1C6.8,18.4,6.6,18.3,6.3,18.3L6.3,18.3z"/>
	</g>
	<g>
		<path d="M8.8,21.3c0,0-0.1,0-0.1,0c-0.1,0-0.1-0.1-0.1-0.2c0-0.1,0-0.1,0-0.2c0-0.1,0.1-0.1,0.2-0.1c0,0,0.1,0,0.1,0
			C9,20.8,9.1,21,9,21.1C9,21.2,8.9,21.3,8.8,21.3z"/>
		<path style="fill:#FFFFFF;" d="M8.8,20.2c-0.3,0-0.5,0.1-0.7,0.4c-0.2,0.4-0.1,0.8,0.3,1c0.1,0.1,0.3,0.1,0.4,0.1
			c0.3,0,0.5-0.1,0.7-0.4c0.2-0.4,0.1-0.8-0.3-1C9,20.3,8.9,20.2,8.8,20.2L8.8,20.2z"/>
	</g>
</g>
<g style="opacity:0.5;">
	<g>
		<path style="fill:#FFFFFF;" d="M18,12c-0.4,0-0.8-0.3-0.8-0.8s0.3-0.8,0.8-0.8s0.8,0.3,0.8,0.8S18.4,12,18,12z"/>
		<path style="fill:#FFFFFF;" d="M18,11c0.1,0,0.3,0.1,0.3,0.3s-0.1,0.3-0.3,0.3s-0.3-0.1-0.3-0.3S17.8,11,18,11 M18,10
			c-0.7,0-1.3,0.6-1.3,1.3c0,0.7,0.6,1.3,1.3,1.3s1.3-0.6,1.3-1.3C19.2,10.6,18.7,10,18,10L18,10z"/>
	</g>
	<g>
		<path style="fill:#FFFFFF;" d="M11.8,14.1c-0.2,0-0.5-0.1-0.6-0.3c-0.2-0.3-0.2-0.8,0.2-1.1c0.1-0.1,0.3-0.1,0.4-0.1
			c0.2,0,0.5,0.1,0.6,0.3c0.1,0.2,0.2,0.4,0.1,0.6s-0.1,0.4-0.3,0.5C12.1,14,11.9,14.1,11.8,14.1z"/>
		<path style="fill:#FFFFFF;" d="M11.8,13c0,0,0.1,0,0.2,0.1c0.1,0.1,0.1,0.1,0,0.2c0,0,0,0.1-0.1,0.2c0,0-0.1,0.1-0.2,0.1
			c0,0-0.1,0-0.2-0.1c-0.1-0.1-0.1-0.1,0-0.2c0,0,0-0.1,0.1-0.2C11.7,13,11.7,13,11.8,13 M11.8,12c-0.3,0-0.5,0.1-0.7,0.2
			c-0.6,0.4-0.7,1.2-0.3,1.8c0.2,0.3,0.6,0.5,1,0.5c0.3,0,0.5-0.1,0.7-0.2c0.6-0.4,0.7-1.2,0.3-1.8C12.5,12.2,12.2,12,11.8,12
			L11.8,12z"/>
	</g>
	<g>
		<path style="fill:#FFFFFF;" d="M18,12c-0.4,0-0.8-0.3-0.8-0.8s0.3-0.8,0.8-0.8s0.8,0.3,0.8,0.8S18.4,12,18,12z"/>
		<path style="fill:#FFFFFF;" d="M18,11c0.1,0,0.3,0.1,0.3,0.3s-0.1,0.3-0.3,0.3s-0.3-0.1-0.3-0.3S17.8,11,18,11 M18,10
			c-0.7,0-1.3,0.6-1.3,1.3c0,0.7,0.6,1.3,1.3,1.3s1.3-0.6,1.3-1.3C19.2,10.6,18.7,10,18,10L18,10z"/>
	</g>
</g>
<g style="opacity:0.5;">
	<path style="fill:#FFFFFF;stroke:#FFFFFF;stroke-miterlimit:10;" d="M21.3,7.8c-0.6,0.4-1.4,0.2-1.7-0.4"/>
	<g>
		<path style="fill:#FFFFFF;" d="M17.2,19.5c-0.3,0-0.6-0.2-0.7-0.4c-0.1-0.2-0.1-0.4,0-0.6c0.1-0.2,0.2-0.3,0.4-0.4
			c0.1,0,0.2-0.1,0.3-0.1c0.3,0,0.6,0.2,0.7,0.4c0.1,0.2,0.1,0.4,0,0.6c-0.1,0.2-0.2,0.3-0.4,0.4C17.4,19.5,17.3,19.5,17.2,19.5z"/>
		<path style="fill:#FFFFFF;" d="M17.2,18.5c0.1,0,0.2,0,0.2,0.2c0.1,0.1,0,0.3-0.1,0.3c0,0-0.1,0-0.1,0c-0.1,0-0.2,0-0.2-0.2
			c0-0.1,0-0.2,0-0.2c0,0,0.1-0.1,0.1-0.1C17.1,18.5,17.1,18.5,17.2,18.5 M17.2,17.5c-0.2,0-0.4,0-0.5,0.1c-0.6,0.3-0.9,1-0.6,1.7
			c0.2,0.5,0.7,0.7,1.1,0.7c0.2,0,0.4,0,0.5-0.1c0.6-0.3,0.9-1,0.6-1.7C18.1,17.8,17.6,17.5,17.2,17.5L17.2,17.5z"/>
	</g>
</g>
<g style="opacity:0.5;">
	<path style="fill:#FFFFFF;stroke:#FFFFFF;stroke-miterlimit:10;" d="M13.1,24.5c0-0.7,0.6-1.3,1.3-1.3c0.7,0,1.3,0.6,1.3,1.3
		c0,0.3-0.1,0.7-0.4,0.9"/>
	<g>
		<path style="fill:#FFFFFF;" d="M23.5,20.9c-0.2,0-0.4-0.1-0.5-0.2c-0.1-0.1-0.2-0.3-0.2-0.5c0-0.2,0.1-0.4,0.2-0.5
			c0.1-0.1,0.3-0.2,0.5-0.2c0.2,0,0.4,0.1,0.5,0.2c0.1,0.1,0.2,0.3,0.2,0.5c0,0.2-0.1,0.4-0.2,0.5C23.9,20.9,23.7,20.9,23.5,20.9z"
			/>
		<path style="fill:#FFFFFF;" d="M23.5,19.9c0,0,0.1,0,0.2,0.1c0.1,0.1,0.1,0.3,0,0.4c-0.1,0.1-0.1,0.1-0.2,0.1c0,0-0.1,0-0.2-0.1
			c-0.1-0.1-0.1-0.3,0-0.4C23.4,19.9,23.4,19.9,23.5,19.9 M23.5,18.9c-0.3,0-0.6,0.1-0.9,0.4c-0.5,0.5-0.5,1.3,0,1.8
			c0.2,0.2,0.6,0.4,0.9,0.4c0.3,0,0.6-0.1,0.9-0.4c0.5-0.5,0.5-1.3,0-1.8C24.1,19,23.8,18.9,23.5,18.9L23.5,18.9z"/>
	</g>
	<g>
		<path style="fill:#FFFFFF;" d="M26.1,16.6c-0.1,0-0.2,0-0.3-0.1c-0.2-0.1-0.3-0.2-0.4-0.4c-0.1-0.2-0.1-0.4,0-0.6
			c0.1-0.3,0.4-0.5,0.7-0.5c0.1,0,0.2,0,0.3,0.1c0.4,0.2,0.6,0.6,0.4,1C26.7,16.4,26.4,16.6,26.1,16.6z"/>
		<path style="fill:#FFFFFF;" d="M26.1,15.6c0,0,0.1,0,0.1,0c0.1,0.1,0.2,0.2,0.1,0.3c0,0.1-0.2,0.2-0.2,0.2c0,0-0.1,0-0.1,0
			c-0.1,0-0.1-0.1-0.1-0.1c0,0,0-0.1,0-0.2C25.9,15.6,26,15.6,26.1,15.6 M26.1,14.6c-0.5,0-1,0.3-1.2,0.8c-0.3,0.6,0,1.4,0.7,1.7
			c0.2,0.1,0.3,0.1,0.5,0.1c0.5,0,1-0.3,1.2-0.8c0.3-0.6,0-1.4-0.7-1.7C26.4,14.6,26.3,14.6,26.1,14.6L26.1,14.6z"/>
	</g>
</g>
<g>
	<path style="fill:#FFFFFF;" d="M15.4,15.5c-0.4,0-0.8-0.3-0.8-0.8c0-0.4,0.3-0.8,0.8-0.8s0.8,0.3,0.8,0.8
		C16.1,15.2,15.8,15.5,15.4,15.5z"/>
	<path style="fill:#FFFFFF;" d="M15.4,14.5c0.1,0,0.3,0.1,0.3,0.3S15.5,15,15.4,15s-0.3-0.1-0.3-0.3S15.2,14.5,15.4,14.5 M15.4,13.5
		c-0.7,0-1.3,0.6-1.3,1.3c0,0.7,0.6,1.3,1.3,1.3c0.7,0,1.3-0.6,1.3-1.3C16.6,14,16.1,13.5,15.4,13.5L15.4,13.5z"/>
</g>
<g>
	<path style="fill:#FFFFFF;" d="M19.7,23.3c-0.4,0-0.8-0.3-0.8-0.8s0.3-0.8,0.8-0.8c0.4,0,0.8,0.3,0.8,0.8S20.1,23.3,19.7,23.3z"/>
	<path style="fill:#FFFFFF;" d="M19.7,22.3c0.1,0,0.3,0.1,0.3,0.3s-0.1,0.3-0.3,0.3s-0.3-0.1-0.3-0.3S19.6,22.3,19.7,22.3
		 M19.7,21.3c-0.7,0-1.3,0.6-1.3,1.3c0,0.7,0.6,1.3,1.3,1.3c0.7,0,1.3-0.6,1.3-1.3C21,21.9,20.4,21.3,19.7,21.3L19.7,21.3z"/>
</g>
<g style="opacity:0.5;">
	<path style="fill:#FFFFFF;" d="M14.5,10.3c-0.4,0-0.8-0.3-0.8-0.8c0-0.4,0.3-0.8,0.8-0.8c0.4,0,0.8,0.3,0.8,0.8
		C15.3,10,14.9,10.3,14.5,10.3z"/>
	<path style="fill:#FFFFFF;" d="M14.5,9.3c0.1,0,0.3,0.1,0.3,0.3s-0.1,0.3-0.3,0.3s-0.3-0.1-0.3-0.3S14.4,9.3,14.5,9.3 M14.5,8.3
		c-0.7,0-1.3,0.6-1.3,1.3c0,0.7,0.6,1.3,1.3,1.3c0.7,0,1.3-0.6,1.3-1.3C15.8,8.8,15.2,8.3,14.5,8.3L14.5,8.3z"/>
</g>
<g>
	<path style="fill:#FFFFFF;" d="M21.5,16.5c-0.1,0-0.3,0-0.4-0.1c-0.4-0.2-0.5-0.7-0.2-1.1c0.1-0.2,0.4-0.3,0.6-0.3
		c0.1,0,0.3,0,0.4,0.1c0.4,0.2,0.5,0.7,0.2,1.1C22,16.4,21.7,16.5,21.5,16.5z"/>
	<path style="fill:#FFFFFF;" d="M21.5,15.5c0.1,0,0.1,0,0.1,0c0.1,0,0.1,0.1,0.1,0.2c0,0,0,0.1,0,0.2C21.6,16,21.5,16,21.5,16
		c-0.1,0-0.1,0-0.1,0c-0.1,0-0.1-0.1-0.1-0.2c0,0,0-0.1,0-0.2C21.3,15.5,21.4,15.5,21.5,15.5 M21.5,14.5c-0.4,0-0.8,0.2-1.1,0.6
		c-0.4,0.6-0.2,1.4,0.4,1.7C21,17,21.2,17,21.5,17c0.4,0,0.8-0.2,1.1-0.6c0.4-0.6,0.2-1.4-0.4-1.7C21.9,14.6,21.7,14.5,21.5,14.5
		L21.5,14.5z"/>
</g>
<g>
	<path style="fill:#FFFFFF;" d="M22.3,12.2c-0.1,0-0.3,0-0.4-0.1c-0.4-0.2-0.5-0.7-0.2-1.1c0.1-0.2,0.4-0.3,0.6-0.3
		c0.1,0,0.3,0,0.4,0.1c0.4,0.2,0.5,0.7,0.2,1.1C22.8,12.1,22.6,12.2,22.3,12.2z"/>
	<path style="fill:#FFFFFF;" d="M22.3,11.2c0.1,0,0.1,0,0.1,0c0.1,0,0.1,0.1,0.1,0.2c0,0,0,0.1,0,0.2c-0.1,0.1-0.2,0.1-0.2,0.1
		c-0.1,0-0.1,0-0.1,0c-0.1,0-0.1-0.1-0.1-0.2c0,0,0-0.1,0-0.2C22.2,11.2,22.3,11.2,22.3,11.2 M22.3,10.2c-0.4,0-0.8,0.2-1.1,0.6
		c-0.4,0.6-0.2,1.4,0.4,1.7c0.2,0.1,0.5,0.2,0.7,0.2c0.4,0,0.8-0.2,1.1-0.6c0.4-0.6,0.2-1.4-0.4-1.7C22.8,10.2,22.6,10.2,22.3,10.2
		L22.3,10.2z"/>
</g>
<g>
	<path style="fill:#FFFFFF;" d="M12.4,19c-0.4,0-0.8-0.3-0.8-0.8s0.3-0.8,0.8-0.8c0.4,0,0.8,0.3,0.8,0.8S12.8,19,12.4,19z"/>
	<path style="fill:#FFFFFF;" d="M12.4,18c0.1,0,0.3,0.1,0.3,0.3s-0.1,0.3-0.3,0.3s-0.3-0.1-0.3-0.3S12.2,18,12.4,18 M12.4,17
		c-0.7,0-1.3,0.6-1.3,1.3c0,0.7,0.6,1.3,1.3,1.3c0.7,0,1.3-0.6,1.3-1.3C13.6,17.5,13.1,17,12.4,17L12.4,17z"/>
</g>
<path style="fill:#FFFFFF;stroke:#FFFFFF;stroke-linecap:round;stroke-linejoin:round;stroke-miterlimit:10;" d="M23.6,24.4l-1,0.7
	l3.6,6.1c0.2,0.2,0.6,0.3,0.8,0.1l1-0.7c0.3-0.2,0.4-0.6,0.2-0.8L23.6,24.4z"/>
<circle style="fill:none;stroke:#FFFFFF;stroke-width:0.8;stroke-miterlimit:10;" cx="18" cy="16.5" r="9.3"/>
</svg>
