<?xml version="1.0" encoding="utf-8"?>
<!-- Generator: Adobe Illustrator 22.0.1, SVG Export Plug-In . SVG Version: 6.00 Build 0)  -->
<svg version="1.1" xmlns="http://www.w3.org/2000/svg" xmlns:xlink="http://www.w3.org/1999/xlink"
	 x="0px" y="0px" viewBox="0 0 32 32" style="enable-background:new 0 0 32 32;" xml:space="preserve">

    <g id="files" style="display:inline;fill:none;stroke:#000;stroke-width:1.3px; stroke-miterlimit:10;">
        <path d="M7.9,25.7
            c-0.5,0-0.9-0.4-0.9-0.8V1.3c0-0.4,0.4-0.8,0.9-0.8h18.5c0.5,0,0.9,0.4,0.9,0.8"/>
        <path d="M29,27.9H10.3
            c-0.5,0-0.9-0.4-0.9-0.9V3.5c0-0.5,0.4-0.9,0.9-0.9H29c0.5,0,0.9,0.4,0.9,0.9V27C29.9,27.5,29.5,27.9,29,27.9z"/>
        
            <line style="stroke-linecap:round;stroke-linejoin:round;" x1="26.8" y1="13.5" x2="17.5" y2="13.5"/>
        
            <line style="stroke-linecap:round;stroke-linejoin:round;" x1="12.3" y1="13.5" x2="15.7" y2="13.5"/>
        
            <line style="stroke-linecap:round;stroke-linejoin:round;" x1="12.3" y1="24" x2="20.7" y2="24"/>
        
            <line style="stroke-linecap:round;stroke-linejoin:round;" x1="26.8" y1="24" x2="23.3" y2="24"/>
        
            <line style="stroke-linecap:round;stroke-linejoin:round;" x1="12.3" y1="10.2" x2="26.8" y2="10.2"/>
        
            <line style="stroke-linecap:round;stroke-linejoin:round;" x1="12.3" y1="16.8" x2="26.8" y2="16.8"/>
        
            <line style="stroke-linecap:round;stroke-linejoin:round;" x1="12.3" y1="20.6" x2="26.8" y2="20.6"/>
        
            <line style="stroke-linecap:round;stroke-linejoin:round;" x1="23.1" y1="6.9" x2="12.3" y2="6.9"/>
        
            <line style="stroke-linecap:round;stroke-linejoin:round;" x1="26.8" y1="6.8" x2="25.5" y2="6.8"/>
        
            <line style="display:inline;opacity:0.5;fill:none;stroke:#00A09F;" x1="10.3" y1="31.7" x2="11.3" y2="31.7"/>
        
            <line style="display:inline;opacity:0.5;fill:none;stroke:#00A09F;" x1="2.3" y1="31.7" x2="8.4" y2="31.7"/>
        <path style="display:inline;fill:none;stroke:#00A09F;stroke-linecap:round;" d="M6.5,28.4
            C5,28.8,3.6,29.3,2.3,30h17.2"/>
        
            <line style="display:inline;opacity:0.5;fill:none;stroke:#00A09F;stroke-linecap:round;" x1="13.1" y1="31.7" x2="21.6" y2="31.7"/>
    </g>
</svg>
