<?xml version="1.0" encoding="utf-8"?>
<!-- Generator: Adobe Illustrator 22.0.1, SVG Export Plug-In . SVG Version: 6.00 Build 0)  -->
<svg version="1.1" xmlns="http://www.w3.org/2000/svg" xmlns:xlink="http://www.w3.org/1999/xlink"
	 x="0px" y="0px" viewBox="0 0 32 32" style="enable-background:new 0 0 32 32;" xml:space="preserve">
    <g id="members" style="stroke-width:1.3; display:inline; fill:none; stroke:#000;stroke-miterlimit:10;stroke-linecap:round;">
        <g id="member_01">
            <path d="M10.3,19.4
                c1.1-2.9,3.2-4.8,5.7-4.8c2.5,0,4.7,2,5.7,4.8"/>
        </g>
        <path d="M19.2,11.4
            c0,1.7-0.3,2.3-0.5,2.6c-0.2,0.2-0.8,0.5-2.7,0.5s-2.6-0.4-2.7-0.5c-0.2-0.2-0.5-0.8-0.5-2.6s1.4-3.1,3.2-3.1S19.2,9.7,19.2,11.4z"
            />
        <g id="member_02">
            <path d="M19.7,16.1
                c1.2-2,3-3.3,5-3.3c2.5,0,4.7,2,5.7,4.8"/>
        </g>
        <path d="M28,9.8c0,1.7-0.3,2.2-0.5,2.5
            c-0.2,0.2-0.8,0.5-2.7,0.5s-2.6-0.4-2.7-0.5c-0.2-0.2-0.5-0.8-0.5-2.5s1.4-3,3.2-3C26.6,6.9,28,8.1,28,9.8z"/>
        <path d="M10.3,9.8c0,1.7-0.3,2.2-0.5,2.5
            C9.5,12.5,9,12.8,7,12.8s-2.6-0.4-2.7-0.5c-0.2-0.2-0.5-0.8-0.5-2.5s1.4-3,3.2-3S10.3,8.1,10.3,9.8z"/>
        <path d="M1.5,17.5
            c1.1-2.8,3.2-4.7,5.7-4.7c2,0,3.8,1.3,5,3.3 M1.5,17.5C1.5,17.5,1.5,17.5,1.5,17.5 M1.5,17.6C1.5,17.6,1.5,17.6,1.5,17.6"/>
        <path style="stroke:#00A09F;" d="M31.7,18.9
            c-3.9,2.2-9.4,3.6-15.4,3.6c-6.3,0-12-1.5-15.9-3.9"/>
        <g style="opacity:0.5;">
            <g>
                <path style="stroke:#00A09F;stroke-linejoin:round;" d="M30.2,21.5
                    c-0.7,0.4-1.5,0.7-2.3,1"/>
                
                    <path style="stroke:#00A09F;stroke-linejoin:round;stroke-dasharray:0.8358,1.6717,4.1791,1.6717;" d="
                    M26.3,23c-2.2,0.7-4.7,1.1-7.4,1.3"/>
                
                    <path style="stroke:#00A09F;stroke-linejoin:round;stroke-dasharray:4.1791,1.6717,0.8358,1.6717,4.1791,1.6717;" d="
                    M18.1,24.4c-0.7,0-1.3,0.1-2,0.1c-4.1,0-7.9-0.6-11.2-1.7"/>
                <path style="stroke:#00A09F;stroke-linejoin:round;" d="M4.1,22.4
                    c-0.8-0.3-1.6-0.6-2.3-1"/>
            </g>
        </g>
    </g>
</svg>
