<?xml version="1.0" encoding="utf-8"?>
<!-- Generator: Adobe Illustrator 22.0.1, SVG Export Plug-In . SVG Version: 6.00 Build 0)  -->
<svg version="1.1" xmlns="http://www.w3.org/2000/svg" xmlns:xlink="http://www.w3.org/1999/xlink"
	 x="0px" y="0px" viewBox="0 0 32 32" style="enable-background:new 0 0 32 32;" xml:space="preserve">
    <g id="pending_invites" style="display:inline; fill: none; stroke:#000; stroke-width:1.3;stroke-linecap:round;stroke-miterlimit:10;">
        <path d="M0.4,20.3
                C2.3,15.4,6,12,10.3,12 M0.4,20.3C0.4,20.3,0.4,20.3,0.4,20.3 M0.2,21.9 M34.6,26.3"/>
      
        <line style="stroke:#00A09F;stroke-linejoin:round;" x1="16.7" y1="29.5" x2="31.5" y2="29.5"/>
        <g style="opacity:0.5;">
            <line style="stroke:#00A09F;stroke-linejoin:round;" x1="16.7" y1="31.7" x2="19.2" y2="31.7"/>
        
            <line style="stroke:#00A09F;stroke-linejoin:round;stroke-dasharray:4.919,2.4595;" x1="21.7" y1="31.7" x2="27.8" y2="31.7"/>
        
            <line style="stroke:#00A09F;stroke-linejoin:round;" x1="29" y1="31.7" x2="31.5" y2="31.7"/>
        </g>
        <path style="stroke-width:1px;fill:#00A09F; stroke:#00A09F; " d="M24.1,12.6c3.8,0,7,3.1,7,7s-3.1,7-7,7s-7-3.1-7-7S20.2,12.6,24.1,12.6 M24.1,12.1
            c-4.1,0-7.5,3.3-7.5,7.5S20,27,24.1,27s7.5-3.3,7.5-7.5S28.2,12.1,24.1,12.1L24.1,12.1z"/>
        <polyline  points="
            24.1,16.2 24.1,20 26.4,22.3"/>
        <path style="stroke-linejoin:round;" d="
            M11.8,12.1c2.7,0,5.2,0.9,7.2,2.3"/>
        <path style="stroke-linejoin:round;" d="
        M17.9,6.3c0,3.3-0.6,4.3-1,4.9c-0.4,0.4-1.4,1-5.1,1s-4.9-0.8-5.1-1c-0.4-0.4-1-1.6-1-4.9s2.7-5.8,6.2-5.8S17.9,3,17.9,6.3z"/>
    </g>
</svg>
