<svg fill-rule="evenodd" clip-rule="evenodd" stroke-linejoin="round" stroke-miterlimit="10" xmlns="http://www.w3.org/2000/svg" aria-labelledby="title" viewBox="0 0 32 32" preserveAspectRatio="xMidYMid meet" class="InlineSvg-gigSlh hwPeQh"><g id="list" style="stroke:#FFF; fill:#FFF;"><path d="M29,29.7H2.9c-0.6,0-1.1-0.5-1.1-1.1v-5.2 c0-0.6,0.5-1.1,1.1-1.1H29c0.6,0,1.1,0.5,1.1,1.1v5.2C30.1,29.2,29.6,29.7,29,29.7z"></path><path d="M29,19.6H2.9c-0.6,0-1.1-0.5-1.1-1.1v-5.2 c0-0.6,0.5-1.1,1.1-1.1H29c0.6,0,1.1,0.5,1.1,1.1v5.2C30.1,19.1,29.6,19.6,29,19.6z"></path><path d="M29,9.5H2.9C2.3,9.5,1.8,9,1.8,8.4V3.2 c0-0.6,0.5-1.1,1.1-1.1H29c0.6,0,1.1,0.5,1.1,1.1v5.2C30.1,9,29.6,9.5,29,9.5z"></path></g></svg>
