<?xml version="1.0" encoding="utf-8"?>
<!-- Generator: Adobe Illustrator 22.0.1, SVG Export Plug-In . SVG Version: 6.00 Build 0)  -->
<svg version="1.1" xmlns="http://www.w3.org/2000/svg" xmlns:xlink="http://www.w3.org/1999/xlink"
	 x="0px" y="0px" viewBox="0 0 32 32" style="enable-background:new 0 0 32 32;" xml:space="preserve">
    <g id="filesize" style="display:inline;fill:none;stroke:#000;stroke-width:1.3px;stroke-miterlimit:10;stroke-linecap:round;">
        <path d="M26.6,28H5.6c-0.5,0-1-0.4-1-1
            V1.4c0-0.5,0.4-1,1-1h20.9c0.5,0,1,0.4,1,1V27C27.5,27.5,27.1,28,26.6,28z"/>
        
            <line x1="24.2" y1="12.2" x2="13.8" y2="12.2"/>
        
            <line x1="7.9" y1="12.3" x2="11.8" y2="12.3"/>
        
            <line x1="7.9" y1="23.9" x2="17.3" y2="23.9"/>
        
            <line x1="24.2" y1="23.9" x2="20.3" y2="23.9"/>
        
            <line x1="7.9" y1="8.6" x2="24.2" y2="8.6"/>
        
            <line x1="7.9" y1="15.9" x2="24.2" y2="15.9"/>
        
            <line x1="7.9" y1="20" x2="24.2" y2="20"/>
        
            <line x1="20" y1="4.9" x2="7.9" y2="4.9"/>
        
            <line x1="24.2" y1="4.9" x2="22.7" y2="4.9"/>
        
            <line style="stroke:#00A09F;stroke-linejoin:round;" x1="4.7" y1="31.7" x2="4.7" y2="29.6"/>
        
            <line style="stroke:#00A09F;stroke-linejoin:round;" x1="27.5" y1="31.7" x2="27.5" y2="29.6"/>
        
            <line style="stroke:#00A09F;" x1="4.9" y1="30.7" x2="27.3" y2="30.7"/>
        
            <line style="stroke:#00A09F;stroke-linejoin:round;" x1="0.3" y1="0.4" x2="2.6" y2="0.4"/>
        
            <line style="stroke:#00A09F;stroke-linejoin:round;" x1="0.3" y1="28" x2="2.6" y2="28"/>
        
            <line style="stroke:#00A09F;" x1="1.5" y1="0.7" x2="1.5" y2="27.7"/>
    </g>
</svg>
