<svg fill-rule="evenodd" clip-rule="evenodd" stroke-linejoin="round" stroke-miterlimit="10" xmlns="http://www.w3.org/2000/svg" aria-labelledby="title" viewBox="0 0 32 32" preserveAspectRatio="xMidYMid meet" class="InlineSvg-gigSlh hwPeQh"><g id="grid" style="stroke:#FFF; fill:#FFF;"><path d="M11.6,12.2H2.7c-0.4,0-0.8-0.3-0.8-0.8V2.9 c0-0.4,0.3-0.8,0.8-0.8h8.9c0.4,0,0.8,0.3,0.8,0.8v8.5C12.3,11.8,12,12.2,11.6,12.2z"></path><path d="M29.4,12.2h-8.9c-0.4,0-0.8-0.3-0.8-0.8V2.9 c0-0.4,0.3-0.8,0.8-0.8h8.9c0.4,0,0.8,0.3,0.8,0.8v8.5C30.2,11.8,29.8,12.2,29.4,12.2z"></path><path d="M11.6,29.6H2.7c-0.4,0-0.8-0.3-0.8-0.8v-8.5 c0-0.4,0.3-0.8,0.8-0.8h8.9c0.4,0,0.8,0.3,0.8,0.8v8.5C12.3,29.3,12,29.6,11.6,29.6z"></path><path d="M29.4,29.6h-8.9c-0.4,0-0.8-0.3-0.8-0.8v-8.5 c0-0.4,0.3-0.8,0.8-0.8h8.9c0.4,0,0.8,0.3,0.8,0.8v8.5C30.2,29.3,29.8,29.6,29.4,29.6z"></path></g></svg>
