<?xml version="1.0" encoding="iso-8859-1"?>
<!-- Generator: Adobe Illustrator 19.0.0, SVG Export Plug-In . SVG Version: 6.00 Build 0)  -->
<svg version="1.1" id="caret_right" xmlns="http://www.w3.org/2000/svg" xmlns:xlink="http://www.w3.org/1999/xlink" x="0px" y="0px"
	 viewBox="0 0 32 32"  xml:space="preserve">
     <g id="caret-right">
     <path
       d="M22.5,16.4c0,0,0-0.1,0-0.1c0,0,0-0.1,0-0.1
   c0.1-0.5-0.1-1-0.4-1.4c-0.1-0.1-0.2-0.2-0.4-0.3l-9.3-8.5c0,0,0,0,0,0c-0.7-0.6-1.8-0.5-2.4,0.1s-0.5,1.8,0.1,2.4l8.2,7.4
   l-8.1,7.4C9.5,24,9.4,25.1,10,25.8c0.6,0.7,1.7,0.8,2.4,0.1c0,0,0,0,0,0l9.3-8.5c0.1-0.1,0.2-0.2,0.3-0.3
   C22.3,16.9,22.4,16.7,22.5,16.4z"
     />
   </g>
</svg>
