<?xml version="1.0" encoding="utf-8"?>
<!-- Generator: Adobe Illustrator 22.0.1, SVG Export Plug-In . SVG Version: 6.00 Build 0)  -->
<svg version="1.1" xmlns="http://www.w3.org/2000/svg" xmlns:xlink="http://www.w3.org/1999/xlink"
	 x="0px" y="0px" viewBox="0 0 32 32" style="enable-background:new 0 0 32 32;" xml:space="preserve">
    <g id="tasks" style="display:inline;stroke:#000; fill:none; stroke-width:1.3px; stroke-linecap:round; stroke-miterlimit:10;">
            <line style="opacity:0.5;stroke:#00A09F;" x1="10.8" y1="31.5" x2="11.8" y2="31.5"/>
        
            <line style="opacity:0.5;stroke:#00A09F;" x1="13.5" y1="31.5" x2="21.7" y2="31.5"/>
            <path style="stroke:#00A09F;" d="M20.7,26.5
            l-3.6,0.7l0.4-3.8"/>
            <path style="fill:#00A09F;stroke:#00A09F;" d="M28.6,12.7l2.7,2.7L20.6,26.1l-2.7-2.7L28.6,12.7 M28.6,12.1c-0.1,0-0.2,0-0.3,0.1L17.5,23.1
                c-0.2,0.2-0.2,0.4,0,0.6l2.8,2.8c0.1,0.1,0.2,0.1,0.3,0.1c0.1,0,0.2,0,0.3-0.1l10.8-10.8c0.2-0.2,0.2-0.4,0-0.6l-2.8-2.8
                C28.8,12.2,28.7,12.1,28.6,12.1L28.6,12.1z"/>
        
            <line  x1="10.7" y1="6.9" x2="22.7" y2="6.9"/>
        
            <line  x1="10.7" y1="13.5" x2="22.7" y2="13.5"/>
        
            <line  x1="10.7" y1="20.7" x2="19.8" y2="20.7"/>
        
            <polyline style="stroke-linejoin:round;" points="
            3.8,7.5 5.2,8.6 7,5.2"/>
        
            <polyline style="stroke-linejoin:round;" points="
            3.8,14.1 5.2,15.2 7,11.8"/>
        
            <polyline style="stroke-linejoin:round;" points="
            3.9,21.3 5.2,22.5 7.1,19"/>
            <path  d="M14.3,27.1
            H5.8c-2.7,0-4.8-2.2-4.8-4.8V5.5c0-2.7,2.2-4.8,4.8-4.8h16.7c2.7,0,4.8,2.2,4.8,4.8V10"/>
        
            <path style="stroke:#00A09F;stroke-linejoin:round;" d="
            M0.6,26.4c0.7,1.7,2.5,3,4.4,3l16.7,0"/>
    </g>
</svg>
