<?xml version="1.0" encoding="utf-8"?>
<!-- Generator: Adobe Illustrator 24.0.2, SVG Export Plug-In . SVG Version: 6.00 Build 0)  -->
<svg version="1.1" id="Layer_1" xmlns="http://www.w3.org/2000/svg" xmlns:xlink="http://www.w3.org/1999/xlink" x="0px" y="0px"
	 viewBox="0 0 1909.7 501.9" style="enable-background:new 0 0 1909.7 501.9;" xml:space="preserve">
<style type="text/css">
	.st0{display:none;opacity:0.17;fill:#2E294E;enable-background:new    ;}
	.st1{fill:#FB1D26;}
	.st2{fill:#F16371;}
	.st3{fill:#FF0000;}
	.st4{fill:#414241;}
</style>
<path class="st0" d="M904.5,151.4v-1.5h8.1v1.5h-3.1v8.6h-1.8v-8.6H904.5z M915.9,155.5v4.5h-1.8v-10.2h1.8v3.8h0.1
	c0.4-0.9,1.1-1.4,2.3-1.4c1.6,0,2.6,1,2.6,2.9v4.9H919v-4.6c0-1-0.6-1.6-1.5-1.6C916.5,153.8,915.9,154.4,915.9,155.5z M926,160.1
	c-2.3,0-3.7-1.5-3.7-3.9s1.4-4,3.6-4c1.9,0,3.5,1.2,3.5,3.9v0.6h-5.3c0,1.3,0.8,2.1,1.9,2.1c0.8,0,1.4-0.3,1.6-1l1.7,0.2
	C929,159.3,927.8,160.1,926,160.1z M924.1,155.5h3.6c0-1-0.7-1.8-1.7-1.8C924.9,153.7,924.2,154.5,924.1,155.5z M938.5,149.8h1.8
	v7.2c0,2-1.3,3.2-3.3,3.2c-1.8,0-3.2-1-3.2-2.8h1.8c0,0.8,0.6,1.3,1.4,1.3c0.9,0,1.4-0.6,1.4-1.6L938.5,149.8L938.5,149.8z
	 M945.6,160.1c-2.2,0-3.7-1.6-3.7-3.9c0-2.4,1.4-3.9,3.7-3.9c2.2,0,3.7,1.6,3.7,3.9C949.2,158.6,947.8,160.1,945.6,160.1z
	 M945.6,158.7c1.2,0,1.8-1.1,1.8-2.5s-0.6-2.5-1.8-2.5s-1.8,1.1-1.8,2.5S944.4,158.7,945.6,158.7z M955.6,156.8v-4.4h1.8v7.6h-1.7
	v-1.4h-0.1c-0.3,0.9-1.2,1.5-2.3,1.5c-1.5,0-2.5-1-2.5-2.9v-4.9h1.8v4.6c0,1,0.6,1.6,1.4,1.6C954.8,158.5,955.6,158,955.6,156.8z
	 M959.3,160v-7.6h1.7v1.3h0.1c0.3-0.9,1-1.4,1.9-1.4c0.2,0,0.5,0,0.6,0v1.7c-0.2,0-0.5-0.1-0.8-0.1c-1,0-1.7,0.7-1.7,1.7v4.5
	L959.3,160L959.3,160z M966.6,155.5v4.5h-1.8v-7.6h1.7v1.3h0.1c0.3-0.9,1.1-1.4,2.3-1.4c1.6,0,2.6,1,2.6,2.9v4.9h-1.8v-4.6
	c0-1-0.6-1.6-1.5-1.6C967.3,153.8,966.6,154.4,966.6,155.5z M975.6,160.2c-1.5,0-2.6-0.8-2.6-2.3c0-1.7,1.4-2.2,2.9-2.3
	c1.3-0.1,1.9-0.2,1.9-0.7l0,0c0-0.8-0.5-1.2-1.3-1.2c-0.9,0-1.4,0.4-1.6,1l-1.7-0.2c0.4-1.4,1.6-2.1,3.2-2.1c1.5,0,3.1,0.6,3.1,2.6
	v5.1h-1.7v-1h-0.1C977.5,159.6,976.8,160.2,975.6,160.2z M976,158.8c1.1,0,1.8-0.7,1.8-1.6v-0.9c-0.2,0.2-1.2,0.3-1.7,0.4
	c-0.8,0.1-1.4,0.4-1.4,1.1C974.8,158.5,975.3,158.8,976,158.8z M983.2,149.8V160h-1.8v-10.2H983.2z M991.9,160.1
	c-2.2,0-3.7-1.6-3.7-3.9c0-2.4,1.4-3.9,3.7-3.9c2.2,0,3.7,1.6,3.7,3.9C995.5,158.6,994.1,160.1,991.9,160.1z M991.9,158.7
	c1.2,0,1.8-1.1,1.8-2.5s-0.6-2.5-1.8-2.5s-1.8,1.1-1.8,2.5S990.6,158.7,991.9,158.7z M1001,152.4v1.4h-1.6v6.2h-1.8v-6.2h-1.1v-1.4
	h1.1v-0.7c0-1.5,1.1-2.3,2.4-2.3c0.6,0,1.1,0.1,1.4,0.2l-0.4,1.4c-0.1,0-0.4-0.1-0.7-0.1c-0.7,0-0.9,0.3-0.9,0.9v0.6L1001,152.4
	L1001,152.4z M914,172.9c0,3.3-2,5.2-4.7,5.2s-4.7-1.9-4.7-5.2s2-5.2,4.7-5.2S914,169.6,914,172.9z M912.1,172.9
	c0-2.3-1.2-3.6-2.8-3.6c-1.7,0-2.8,1.3-2.8,3.6s1.2,3.6,2.8,3.6C911,176.5,912.1,175.2,912.1,172.9z M915.7,180.9v-10.5h1.8v1.3h0.1
	c0.3-0.6,0.8-1.4,2.2-1.4c1.8,0,3.2,1.4,3.2,3.9s-1.3,3.9-3.1,3.9c-1.3,0-1.9-0.8-2.2-1.3h-0.1v4.1H915.7z M917.4,174.2
	c0,1.5,0.6,2.5,1.8,2.5s1.8-1,1.8-2.5c0-1.4-0.6-2.4-1.8-2.4C918.1,171.7,917.4,172.7,917.4,174.2z M927.8,178.1
	c-2.3,0-3.7-1.5-3.7-3.9s1.4-4,3.6-4c1.9,0,3.5,1.2,3.5,3.9v0.6h-5.3c0,1.3,0.8,2.1,1.9,2.1c0.8,0,1.4-0.3,1.6-1l1.7,0.2
	C930.8,177.3,929.6,178.1,927.8,178.1z M925.9,173.5h3.6c0-1-0.7-1.8-1.7-1.8C926.6,171.7,925.9,172.5,925.9,173.5z M934.5,173.5
	v4.5h-1.8v-7.6h1.7v1.3h0.1c0.3-0.9,1.1-1.4,2.3-1.4c1.6,0,2.6,1,2.6,2.9v4.9h-1.8v-4.6c0-1-0.6-1.6-1.5-1.6
	C935.2,171.8,934.5,172.4,934.5,173.5z M950.3,170.6c-0.1-0.9-0.8-1.4-1.9-1.4c-1.2,0-1.8,0.6-1.8,1.3c0,0.9,0.9,1.2,1.7,1.4l1,0.2
	c1.5,0.4,3,1.2,3,2.9c0,1.8-1.4,3-3.9,3c-2.4,0-3.9-1.1-4-3.2h1.8c0.1,1.1,1,1.6,2.1,1.6c1.2,0,2-0.6,2-1.5c0-0.8-0.7-1.1-1.8-1.4
	l-1.2-0.3c-1.7-0.4-2.7-1.3-2.7-2.7c0-1.8,1.6-3,3.7-3c2.2,0,3.6,1.2,3.7,2.9h-1.7L950.3,170.6L950.3,170.6z M957.1,178.1
	c-2.2,0-3.7-1.6-3.7-3.9c0-2.4,1.4-3.9,3.7-3.9c2.2,0,3.7,1.6,3.7,3.9C960.8,176.6,959.4,178.1,957.1,178.1z M957.1,176.7
	c1.2,0,1.8-1.1,1.8-2.5s-0.6-2.5-1.8-2.5s-1.8,1.1-1.8,2.5S955.9,176.7,957.1,176.7z M967.2,174.8v-4.4h1.8v7.6h-1.7v-1.4h-0.1
	c-0.3,0.9-1.2,1.5-2.3,1.5c-1.5,0-2.5-1-2.5-2.9v-4.9h1.8v4.6c0,1,0.6,1.6,1.4,1.6C966.4,176.5,967.2,176,967.2,174.8z M970.8,178
	v-7.6h1.7v1.3h0.1c0.3-0.9,1-1.4,1.9-1.4c0.4,0,0.8,0.1,1,0.3L975,172c-0.2-0.1-0.4-0.2-0.7-0.2c-0.9,0-1.7,0.7-1.7,1.6v4.5
	L970.8,178L970.8,178z M980,178.1c-2.3,0-3.7-1.6-3.7-3.9c0-2.3,1.4-3.9,3.6-3.9c1.9,0,3.2,1.1,3.3,2.7h-1.7
	c-0.1-0.7-0.7-1.3-1.5-1.3c-1.1,0-1.8,0.9-1.8,2.5s0.7,2.5,1.8,2.5c0.8,0,1.4-0.5,1.5-1.3h1.7C983.1,177,981.9,178.1,980,178.1z
	 M988.1,178.1c-2.3,0-3.7-1.5-3.7-3.9s1.4-4,3.6-4c1.9,0,3.5,1.2,3.5,3.9v0.6h-5.3c0,1.3,0.8,2.1,1.9,2.1c0.8,0,1.4-0.3,1.6-1
	l1.7,0.2C991.1,177.3,989.9,178.1,988.1,178.1z M986.2,173.5h3.6c0-1-0.7-1.8-1.7-1.8C986.9,171.7,986.2,172.5,986.2,173.5z
	 M1002.1,170.6c-0.1-0.9-0.8-1.4-1.9-1.4c-1.2,0-1.8,0.6-1.8,1.3c0,0.9,0.9,1.2,1.7,1.4l1,0.2c1.5,0.4,3,1.2,3,2.9
	c0,1.8-1.4,3-3.9,3c-2.4,0-3.9-1.1-4-3.2h1.8c0.1,1.1,1,1.6,2.1,1.6c1.2,0,2-0.6,2-1.5c0-0.8-0.7-1.1-1.8-1.4l-1.2-0.3
	c-1.7-0.4-2.7-1.3-2.7-2.7c0-1.8,1.6-3,3.7-3c2.2,0,3.6,1.2,3.7,2.9h-1.7L1002.1,170.6L1002.1,170.6z M1008.9,178.1
	c-2.2,0-3.7-1.6-3.7-3.9c0-2.4,1.4-3.9,3.7-3.9c2.2,0,3.7,1.6,3.7,3.9C1012.6,176.6,1011.1,178.1,1008.9,178.1z M1008.9,176.7
	c1.2,0,1.8-1.1,1.8-2.5s-0.6-2.5-1.8-2.5s-1.8,1.1-1.8,2.5S1007.7,176.7,1008.9,176.7z M1018,170.4v1.4h-1.6v6.2h-1.8v-6.2h-1.1
	v-1.4h1.1v-0.7c0-1.5,1.1-2.3,2.4-2.3c0.6,0,1.1,0.1,1.4,0.2l-0.4,1.4c-0.1,0-0.4-0.1-0.7-0.1c-0.7,0-0.9,0.3-0.9,0.9v0.6
	L1018,170.4L1018,170.4z M1023.2,170.4v1.4h-1.5v3.9c0,0.7,0.4,0.9,0.8,0.9c0.2,0,0.4,0,0.5-0.1l0.3,1.4c-0.2,0.1-0.5,0.2-1.1,0.2
	c-1.4,0-2.4-0.7-2.4-2.1v-4.2h-1.1v-1.4h1.1v-1.8h1.8v1.8L1023.2,170.4L1023.2,170.4z M1026.3,178l-2.2-7.6h1.8l1.3,5.4h0.1l1.4-5.4
	h1.8l1.4,5.3h0.1l1.3-5.3h1.8l-2.2,7.6h-1.9l-1.4-5.2h-0.1l-1.4,5.2H1026.3z M1038.7,178.2c-1.5,0-2.6-0.8-2.6-2.3
	c0-1.7,1.4-2.2,2.9-2.3c1.3-0.1,1.9-0.2,1.9-0.7l0,0c0-0.8-0.5-1.2-1.3-1.2c-0.9,0-1.4,0.4-1.6,1l-1.7-0.2c0.4-1.4,1.6-2.1,3.2-2.1
	c1.5,0,3.1,0.6,3.1,2.6v5.1h-1.7v-1h-0.1C1040.6,177.6,1039.9,178.2,1038.7,178.2z M1039.1,176.8c1.1,0,1.8-0.7,1.8-1.6v-0.9
	c-0.2,0.2-1.2,0.3-1.7,0.4c-0.8,0.1-1.4,0.4-1.4,1.1C1037.8,176.5,1038.4,176.8,1039.1,176.8z M1044.5,178v-7.6h1.7v1.3h0.1
	c0.3-0.9,1-1.4,1.9-1.4c0.4,0,0.8,0.1,1,0.3l-0.6,1.5c-0.2-0.1-0.4-0.2-0.7-0.2c-0.9,0-1.7,0.7-1.7,1.6v4.5L1044.5,178L1044.5,178z
	 M1053.7,178.1c-2.3,0-3.7-1.5-3.7-3.9s1.4-4,3.6-4c1.9,0,3.5,1.2,3.5,3.9v0.6h-5.3c0,1.3,0.8,2.1,1.9,2.1c0.8,0,1.4-0.3,1.6-1
	l1.7,0.2C1056.7,177.3,1055.5,178.1,1053.7,178.1z M1051.8,173.5h3.6c0-1-0.7-1.8-1.7-1.8C1052.5,171.7,1051.8,172.5,1051.8,173.5z"
	/>
<g>
	<path class="st1" d="M1262,75.8c0.1-2.3,0.2-5.9,0.6-9.5c1.1-11.5,1.3-12.1,10.2-9.6c31.9,9.1,41.4,34.6,36,68.8
		c-0.8,5.1-4.8,5.4-8,5.9c-13.2,2.1-29.5-10.5-35-26.9C1262.9,95.7,1262.2,86.5,1262,75.8z"/>
	<path class="st2" d="M1311.6,124.3c2.1-12.3,3.3-23.7,1.3-35.4c-1.7-9.7-5.4-17.9-12.2-23.5c-2.7-2.2-3.4-4.1-1.2-7.3
		c4.5-6.5,9.2-12.7,15.1-17.5c2.1-1.7,3.6-1.6,5.5,0.6C1338.6,62.1,1334.4,108,1311.6,124.3z"/>
	<g>
		<path class="st3" d="M0,52h47.6l107.9,182l32.2,59.9h1.8c-1.9-29.2-4.8-61.8-4.8-92.1V52h36v287.9h-41.1l-113-182.2L32.9,97.9H31
			c2,29.3,5.1,60.2,5.1,90.4v151.5H0V52z"/>
		<path class="st3" d="M258.5,235.6c0-69.3,50.4-112,103.3-112c58.6,0,91.7,39,91.7,99.9c0,7.6-0.7,15.2-1.8,20.5H297
			c2.8,45.1,32.6,74.4,76.4,74.4c22.1,0,40.2-6.6,57.2-17l13.9,23.6c-20.2,12.2-44.6,22.1-75.9,22.1
			C307.3,347,258.5,305.5,258.5,235.6z M419.2,218.9c0-42.7-20.7-65.9-56.7-65.9c-32.3,0-61.2,24-65.9,65.9H419.2z"/>
		<path class="st3" d="M479.6,261.8V127.1h40.5v130.3c0,39.7,12.8,56.6,42.8,56.6c23.2,0,39.3-10.8,60.8-35.9v-151h40.5v212.8h-32.5
			l-3.3-33.4h-1.3c-21.5,23.3-44.7,38.6-76.6,38.6C501.6,345.2,479.6,316.2,479.6,261.8z"/>
		<path class="st3" d="M712.6,127.1h34l3.2,37.5h1.3c15.5-26.2,38.2-42.6,63.3-42.6c9.9,0,16.8,1.2,23.8,4.2l-7,30.6
			c-7.7-2.2-12.7-3.4-21.6-3.4c-18.8,0-41.3,12.5-56.3,47.4v139h-40.5V127.1H712.6z"/>
		<path class="st3" d="M830.5,234.7c0-71.1,50.2-112,106.5-112s106.5,40.9,106.5,112c0,70.5-50.2,111.4-106.5,111.4
			S830.5,305.2,830.5,234.7z M1003.4,234.7c0-48.8-26.8-82-66.3-82s-66.3,33.2-66.3,82s26.8,81.4,66.3,81.4
			S1003.4,283.5,1003.4,234.7z"/>
		<path class="st3" d="M1075.1,56.2h40.5v254.5h135.1v29.2H1075L1075.1,56.2L1075.1,56.2z"/>
		<path class="st3" d="M1276.6,163.5h40.5v176.4h-40.5V163.5z"/>
		<path class="st3" d="M1403,319h-4.6l-3.4,20.9h-29.5V27h40.5v85.9l-1.3,38.4c21.9-16.9,48.6-29.9,75.3-29.9
			c61.9,0,95.2,43,95.2,109.1c0,73.2-49,115.9-103.8,115.9C1449,346.5,1424.2,336.2,1403,319z M1528.1,231.5
			c0-47-17.3-78.5-60.6-78.5c-19.5,0-39.7,9.9-61.5,29.1v111.6c20.2,16.2,40.8,22.1,56,22.1C1500,315.8,1528.1,284.1,1528.1,231.5z"
			/>
		<path class="st3" d="M1598.5,127.1h34l3.2,37.5h1.3c15.5-26.2,38.2-42.6,63.3-42.6c9.9,0,16.8,1.2,23.8,4.2l-7,30.6
			c-7.7-2.2-12.7-3.4-21.6-3.4c-18.8,0-41.3,12.5-56.3,47.4v139h-40.5V127.1H1598.5z"/>
		<path class="st3" d="M1714.6,235.6c0-69.3,50.4-112,103.3-112c58.6,0,91.7,39,91.7,99.9c0,7.6-0.7,15.2-1.8,20.5H1753
			c2.8,45.1,32.6,74.4,76.4,74.4c22.1,0,40.2-6.6,57.2-17l13.9,23.6c-20.2,12.2-44.6,22.1-75.9,22.1
			C1763.4,347,1714.6,305.5,1714.6,235.6z M1875.3,218.9c0-42.7-20.7-65.9-56.7-65.9c-32.3,0-61.2,24-65.9,65.9H1875.3z"/>
	</g>
</g>
<g>
	<path class="st4" d="M4.7,366.3c3.8-0.7,8.1-1.2,13-1.6c4.9-0.4,9.4-0.6,13.5-0.6c4.6,0,8.9,0.5,13,1.5c4.1,1,7.7,2.6,10.9,4.9
		c3.1,2.3,5.6,5.3,7.5,8.9c1.9,3.7,2.8,8.1,2.8,13.4c0,8.1-2.2,14.8-6.7,19.8c-4.5,5.1-10.1,8.4-17,10.1l7.2,5.5l25.9,41.3H60.4
		l-28.8-45L17,422.3v47.2H4.7V366.3z M31.5,374.8c-1.3,0-2.6,0-4,0c-1.4,0-2.7,0.1-4,0.1c-1.3,0.1-2.5,0.2-3.7,0.3
		c-1.1,0.1-2.1,0.2-2.8,0.4v38.4h11.6c6.9,0,12.5-1.7,17-5.1c4.5-3.4,6.7-8.6,6.7-15.8c0-5.4-1.8-9.8-5.5-13.3
		C43.2,376.6,38,374.8,31.5,374.8z"/>
	<path class="st4" d="M142.6,463.6c-3,2.4-6.7,4.3-11.2,5.7c-4.5,1.4-9.3,2.1-14.4,2.1c-5.7,0-10.6-0.9-14.8-2.8s-7.6-4.5-10.3-7.9
		c-2.7-3.4-4.7-7.5-6-12.3c-1.3-4.8-1.9-10.1-1.9-16.1c0-12.7,2.8-22.4,8.5-29.1c5.7-6.7,13.8-10,24.3-10c3.4,0,6.8,0.4,10.1,1.1
		c3.4,0.7,6.4,2.2,9.1,4.2c2.7,2.1,4.9,5,6.6,8.9c1.7,3.8,2.5,8.9,2.5,15.1c0,3.3-0.3,6.9-0.9,10.9H96.4c0,4.4,0.4,8.2,1.3,11.6
		c0.9,3.4,2.3,6.2,4.2,8.6c1.9,2.3,4.3,4.1,7.4,5.4c3,1.2,6.7,1.9,11.1,1.9c3.4,0,6.8-0.6,10.1-1.8c3.4-1.2,5.9-2.6,7.6-4.2
		L142.6,463.6z M117,403.7c-5.9,0-10.6,1.5-14.1,4.6c-3.5,3.1-5.6,8.3-6.3,15.8h37c0-7.5-1.4-12.8-4.3-15.9
		C126.3,405.2,122.3,403.7,117,403.7z"/>
	<path class="st4" d="M167.2,395.1h8.2l2.2,8.9h0.6c2.3-3.5,5.2-6.1,8.9-8c3.6-1.8,7.8-2.8,12.4-2.8c9.9,0,17.3,2.9,22.2,8.8
		c4.9,5.9,7.3,15.4,7.3,28.8c0,6.3-0.8,11.9-2.5,16.9c-1.6,5-3.9,9.3-6.9,12.7c-3,3.5-6.6,6.2-10.8,8c-4.2,1.9-8.9,2.8-14.1,2.8
		c-3.7,0-6.6-0.2-8.7-0.7c-2.1-0.4-4.4-1.2-6.9-2.3v31h-11.9V395.1z M197.3,403.7c-5.1,0-9.1,1.3-12,3.9c-2.9,2.6-5,6.6-6.2,12v37
		c1.8,1.4,3.8,2.5,6.1,3.2c2.3,0.7,5.3,1.1,9.1,1.1c6.9,0,12.3-2.6,16.3-7.7c4-5.1,6-12.6,6-22.6c0-4.1-0.3-7.8-1-11.1
		c-0.7-3.3-1.8-6.2-3.4-8.5c-1.5-2.3-3.5-4.1-6-5.4C203.9,404.4,200.9,403.7,197.3,403.7z"/>
	<path class="st4" d="M286.3,406.5c-3-1-5.8-1.5-8.5-1.5c-4.3,0-7.7,1.2-10.1,3.5c-2.5,2.3-4,5.3-4.6,8.9v52.2h-11.9v-74.5h8.3
		l2.2,9.1h0.6c1.9-3.4,4.1-6,6.8-7.8c2.6-1.8,6-2.8,10.1-2.8c2.9,0,6.1,0.5,9.7,1.5L286.3,406.5z"/>
	<path class="st4" d="M300.9,432.3c0-12.6,2.8-22.3,8.4-29c5.6-6.7,13.7-10.1,24.2-10.1c5.6,0,10.4,0.9,14.5,2.8
		c4.1,1.8,7.5,4.5,10.2,7.9c2.7,3.4,4.7,7.6,6,12.4c1.3,4.8,1.9,10.2,1.9,16c0,12.6-2.8,22.3-8.4,29c-5.6,6.7-13.7,10.1-24.2,10.1
		c-5.6,0-10.4-0.9-14.5-2.8c-4.1-1.8-7.5-4.5-10.2-7.9c-2.7-3.4-4.7-7.5-6-12.4C301.5,443.5,300.9,438.2,300.9,432.3z M313.2,432.3
		c0,3.8,0.4,7.4,1.1,10.9c0.7,3.5,1.9,6.5,3.5,9.1c1.6,2.6,3.7,4.7,6.3,6.3c2.6,1.6,5.7,2.4,9.4,2.4c13.5,0.1,20.3-9.4,20.3-28.6
		c0-3.9-0.4-7.5-1.1-11c-0.7-3.5-1.9-6.5-3.5-9.1c-1.6-2.6-3.7-4.6-6.3-6.2c-2.6-1.5-5.7-2.3-9.4-2.3
		C320,403.6,313.2,413.2,313.2,432.3z"/>
	<path class="st4" d="M445.4,443.9c0,5.1,0,9.7,0.1,13.8c0.1,4.1,0.5,8.2,1.3,12.1h-8l-3-10.6h-0.6c-2,3.5-4.9,6.4-8.6,8.6
		c-3.8,2.3-8.2,3.4-13.3,3.4c-9.9,0-17.3-3.1-22.1-9.4c-4.8-6.3-7.2-16-7.2-29.4c0-12.7,3-22.4,9-29c6-6.6,14.3-9.9,24.8-9.9
		c3.7,0,6.6,0.2,8.7,0.6c2.1,0.4,4.4,1,6.9,1.9v-31h11.9V443.9z M415.3,460.9c5.1,0,9.1-1.3,12.1-3.9c3-2.6,5-6.6,6.1-12v-37
		c-1.8-1.4-3.8-2.4-6.1-3c-2.3-0.6-5.3-0.9-9.1-0.9c-6.9,0-12.2,2.3-16.1,6.8c-3.9,4.5-5.8,11.7-5.8,21.7c0,4.1,0.3,7.8,1,11.3
		c0.6,3.5,1.7,6.5,3.2,8.9c1.5,2.5,3.5,4.4,5.9,5.9C408.9,460.2,411.8,460.9,415.3,460.9z"/>
	<path class="st4" d="M482.4,395.1v42.5c0,3.9,0.2,7.3,0.7,10.2c0.4,2.9,1.2,5.4,2.3,7.3c1.1,1.9,2.6,3.4,4.5,4.4
		c1.9,1,4.3,1.5,7.2,1.5c2.7,0,5.1-0.4,7.2-1.3c2.1-0.8,3.9-2,5.6-3.5s3.1-3.2,4.3-5.1c1.2-1.9,2.3-4,3.1-6.2v-49.8H529v53.3
		c0,3.6,0.1,7.3,0.4,11.1c0.2,3.8,0.7,7.2,1.3,10.1h-8.2l-3-11.8h-0.7c-2.3,3.9-5.4,7.1-9.2,9.7s-8.8,3.9-14.8,3.9
		c-4,0-7.5-0.5-10.5-1.4c-3-0.9-5.6-2.6-7.6-5c-2-2.4-3.6-5.6-4.6-9.6s-1.6-9.1-1.6-15.3v-45H482.4z"/>
	<path class="st4" d="M606,464.7c-3,2.2-6.5,3.9-10.6,5c-4.1,1.1-8.3,1.7-12.8,1.7c-5.8,0-10.6-0.9-14.6-2.8c-4-1.8-7.2-4.5-9.8-7.9
		c-2.5-3.4-4.4-7.5-5.5-12.4c-1.1-4.8-1.7-10.2-1.7-16c0-12.6,2.8-22.3,8.3-29c5.6-6.7,13.6-10.1,24-10.1c4.8,0,8.8,0.4,12.1,1.1
		c3.3,0.7,6.3,1.8,9,3.2l-3.4,10.3c-2.3-1.3-4.8-2.3-7.6-3.1c-2.8-0.7-5.8-1.1-8.9-1.1c-14.1,0-21.2,9.5-21.2,28.6
		c0,3.8,0.4,7.4,1.1,10.8c0.7,3.4,2,6.5,3.7,9.1c1.7,2.6,4,4.7,6.9,6.3c2.8,1.6,6.3,2.4,10.5,2.4c3.6,0,6.8-0.5,9.6-1.6
		c2.8-1.1,5.1-2.3,6.9-3.7L606,464.7z"/>
	<path class="st4" d="M625.7,372.4c0-2.3,0.8-4.2,2.3-5.9c1.5-1.6,3.5-2.5,5.9-2.5s4.4,0.8,6.1,2.5c1.7,1.6,2.5,3.6,2.5,5.9
		c0,2.3-0.8,4.2-2.5,5.7c-1.7,1.5-3.7,2.2-6.1,2.2s-4.3-0.7-5.9-2.2C626.5,376.6,625.7,374.7,625.7,372.4z M628.2,395.1h11.9v74.5
		h-11.9V395.1z"/>
	<path class="st4" d="M668.9,365.3h11.9v37.1h0.6c2.3-2.9,5.2-5.1,8.7-6.7c3.5-1.6,7.4-2.4,11.5-2.4c9.6,0,16.9,3.1,21.7,9.2
		c4.8,6.2,7.2,15.7,7.2,28.6c0,13-3.2,22.9-9.5,29.7c-6.4,6.8-15.3,10.1-26.8,10.1c-5.6,0-10.6-0.6-15.1-1.8
		c-4.5-1.2-7.9-2.5-10.2-3.9V365.3z M699.6,403.7c-5,0-9,1.4-12.1,4.2c-3.1,2.8-5.3,6.7-6.7,11.8v37.5c1.9,1.1,4.2,1.9,6.9,2.5
		c2.7,0.5,5.5,0.8,8.3,0.8c6.8,0,12.1-2.4,16.2-7.2c4-4.8,6-12.2,6-22.3c0-3.9-0.3-7.5-1-10.9c-0.7-3.4-1.8-6.3-3.3-8.6
		c-1.5-2.4-3.4-4.3-5.7-5.7C705.8,404.4,703,403.7,699.6,403.7z"/>
	<path class="st4" d="M765.9,451.2c0,3.5,0.6,6,1.8,7.5s2.9,2.2,5.1,2.2c1.3,0,2.7-0.1,4.2-0.3c1.5-0.2,3.2-0.6,5.1-1.3l1.3,9.4
		c-1.6,0.8-3.8,1.4-6.6,1.9c-2.8,0.5-5.3,0.7-7.4,0.7c-4.5,0-8.1-1.3-11-3.8c-2.9-2.5-4.3-6.8-4.3-12.9v-89.4h11.9V451.2z"/>
	<path class="st4" d="M853.8,463.6c-3,2.4-6.7,4.3-11.2,5.7c-4.5,1.4-9.3,2.1-14.4,2.1c-5.7,0-10.6-0.9-14.8-2.8s-7.6-4.5-10.3-7.9
		c-2.7-3.4-4.7-7.5-6-12.3c-1.3-4.8-1.9-10.1-1.9-16.1c0-12.7,2.8-22.4,8.5-29.1c5.7-6.7,13.8-10,24.3-10c3.4,0,6.8,0.4,10.1,1.1
		c3.4,0.7,6.4,2.2,9.1,4.2c2.7,2.1,4.9,5,6.6,8.9c1.7,3.8,2.5,8.9,2.5,15.1c0,3.3-0.3,6.9-0.9,10.9h-47.8c0,4.4,0.4,8.2,1.3,11.6
		c0.9,3.4,2.3,6.2,4.2,8.6c1.9,2.3,4.3,4.1,7.4,5.4c3,1.2,6.7,1.9,11.1,1.9c3.4,0,6.8-0.6,10.1-1.8c3.4-1.2,5.9-2.6,7.6-4.2
		L853.8,463.6z M828.2,403.7c-5.9,0-10.6,1.5-14.1,4.6c-3.5,3.1-5.6,8.3-6.3,15.8h37c0-7.5-1.4-12.8-4.3-15.9
		C837.5,405.2,833.4,403.7,828.2,403.7z"/>
	<path class="st4" d="M922.6,366.3c3.8-0.9,7.8-1.5,12.2-1.8c4.4-0.3,8.7-0.4,13-0.4c4.6,0,9.2,0.4,13.9,1.3c4.7,0.9,9,2.5,12.9,4.9
		c3.9,2.4,7,5.7,9.5,9.8c2.4,4.2,3.7,9.5,3.7,15.9c0,6.4-1.1,11.7-3.4,16.1c-2.3,4.4-5.3,7.9-9.1,10.7c-3.8,2.7-8.1,4.7-13,5.9
		c-4.9,1.2-9.9,1.8-15,1.8c-0.5,0-1.3,0-2.5,0c-1.1,0-2.3,0-3.6-0.1c-1.2,0-2.5-0.1-3.7-0.2c-1.2-0.1-2-0.2-2.5-0.3v39.6h-12.4
		V366.3z M948.1,374.8c-2.6,0-5.1,0.1-7.4,0.1c-2.4,0.1-4.3,0.3-5.7,0.7v43.2c0.5,0.2,1.3,0.3,2.4,0.4c1.1,0.1,2.2,0.1,3.4,0.1
		c1.2,0.1,2.3,0.1,3.4,0.1c1.1,0,1.9,0,2.4,0c3.4,0,6.7-0.3,10.1-1c3.3-0.6,6.3-1.8,9-3.5c2.7-1.7,4.8-4.1,6.5-7.2
		c1.6-3.1,2.5-7,2.5-11.8c0-4.1-0.8-7.5-2.3-10.2c-1.5-2.7-3.6-4.9-6.1-6.6c-2.5-1.6-5.4-2.8-8.6-3.5
		C954.5,375.2,951.3,374.8,948.1,374.8z"/>
	<path class="st4" d="M1038,406.5c-3-1-5.8-1.5-8.5-1.5c-4.3,0-7.6,1.2-10.1,3.5c-2.5,2.3-4,5.3-4.6,8.9v52.2h-11.9v-74.5h8.3
		l2.2,9.1h0.6c1.9-3.4,4.1-6,6.8-7.8c2.6-1.8,6-2.8,10.1-2.8c2.9,0,6.1,0.5,9.7,1.5L1038,406.5z"/>
	<path class="st4" d="M1111.1,463.6c-3,2.4-6.7,4.3-11.2,5.7c-4.5,1.4-9.3,2.1-14.4,2.1c-5.7,0-10.6-0.9-14.8-2.8
		c-4.2-1.8-7.6-4.5-10.3-7.9c-2.7-3.4-4.7-7.5-6-12.3c-1.3-4.8-1.9-10.1-1.9-16.1c0-12.7,2.8-22.4,8.5-29.1c5.7-6.7,13.8-10,24.3-10
		c3.4,0,6.8,0.4,10.1,1.1c3.4,0.7,6.4,2.2,9.1,4.2c2.7,2.1,4.9,5,6.6,8.9c1.7,3.8,2.5,8.9,2.5,15.1c0,3.3-0.3,6.9-0.9,10.9h-47.8
		c0,4.4,0.4,8.2,1.3,11.6c0.9,3.4,2.3,6.2,4.2,8.6c1.9,2.3,4.3,4.1,7.4,5.4c3,1.2,6.7,1.9,11.1,1.9c3.4,0,6.8-0.6,10.1-1.8
		c3.4-1.2,5.9-2.6,7.6-4.2L1111.1,463.6z M1085.5,403.7c-5.9,0-10.6,1.5-14.1,4.6c-3.5,3.1-5.6,8.3-6.3,15.8h37
		c0-7.5-1.4-12.8-4.3-15.9C1094.8,405.2,1090.8,403.7,1085.5,403.7z"/>
	<path class="st4" d="M1135.7,395.1h8.2l2.2,8.9h0.6c2.3-3.5,5.2-6.1,8.9-8c3.6-1.8,7.8-2.8,12.4-2.8c9.9,0,17.3,2.9,22.2,8.8
		c4.9,5.9,7.3,15.4,7.3,28.8c0,6.3-0.8,11.9-2.5,16.9c-1.6,5-3.9,9.3-6.9,12.7c-3,3.5-6.6,6.2-10.8,8c-4.2,1.9-8.9,2.8-14.1,2.8
		c-3.7,0-6.6-0.2-8.7-0.7c-2.1-0.4-4.4-1.2-6.9-2.3v31h-11.9V395.1z M1165.8,403.7c-5.1,0-9.1,1.3-12,3.9c-2.9,2.6-5,6.6-6.2,12v37
		c1.8,1.4,3.8,2.5,6.1,3.2c2.3,0.7,5.3,1.1,9.1,1.1c6.9,0,12.3-2.6,16.3-7.7c4-5.1,6-12.6,6-22.6c0-4.1-0.3-7.8-1-11.1
		c-0.7-3.3-1.8-6.2-3.4-8.5c-1.5-2.3-3.5-4.1-6-5.4C1172.4,404.4,1169.4,403.7,1165.8,403.7z"/>
	<path class="st4" d="M1254.8,406.5c-3-1-5.8-1.5-8.5-1.5c-4.3,0-7.6,1.2-10.1,3.5c-2.5,2.3-4,5.3-4.6,8.9v52.2h-11.9v-74.5h8.3
		l2.2,9.1h0.6c1.9-3.4,4.1-6,6.8-7.8c2.6-1.8,6-2.8,10.1-2.8c2.9,0,6.1,0.5,9.7,1.5L1254.8,406.5z"/>
	<path class="st4" d="M1273.5,372.4c0-2.3,0.8-4.2,2.3-5.9c1.5-1.6,3.5-2.5,5.9-2.5s4.4,0.8,6.1,2.5c1.7,1.6,2.5,3.6,2.5,5.9
		c0,2.3-0.8,4.2-2.5,5.7c-1.7,1.5-3.7,2.2-6.1,2.2s-4.3-0.7-5.9-2.2C1274.3,376.6,1273.5,374.7,1273.5,372.4z M1276.1,395.1h11.9
		v74.5h-11.9V395.1z"/>
	<path class="st4" d="M1364.6,469.6v-42.5c0-7.7-1.1-13.6-3.4-17.5c-2.2-3.9-6.3-5.9-12.3-5.9c-5.3,0-9.6,1.4-13,4.2
		c-3.4,2.8-5.8,6.4-7.2,10.7v51h-11.9v-74.5h8.3l2.2,9.1h0.6c2.4-3.2,5.6-5.8,9.6-7.8c4-2,8.8-3.1,14.4-3.1c4.1,0,7.6,0.5,10.7,1.4
		c3.1,0.9,5.6,2.6,7.7,5c2,2.4,3.6,5.6,4.6,9.6s1.6,9.1,1.6,15.3v45H1364.6z"/>
	<path class="st4" d="M1391.7,395.1h11.6v-14.8l11.9-3.4v18.2h20.3v10.4h-20.3v41.3c0,5.2,0.6,8.8,1.9,11c1.3,2.1,3.5,3.2,6.6,3.2
		c2.6,0,4.8-0.3,6.6-0.8c1.8-0.5,3.8-1.3,6-2.2l2.7,9.1c-2.7,1.3-5.6,2.3-8.8,3.1c-3.2,0.8-6.6,1.2-10.3,1.2
		c-6.1,0-10.3-1.7-12.8-5.1c-2.5-3.4-3.7-9.2-3.7-17.2v-43.5h-11.6V395.1z"/>
	<path class="st4" d="M1546.6,443.1c0-4.2-1.2-7.6-3.7-10.2c-2.5-2.6-5.6-5-9.3-7c-3.7-2-7.8-3.9-12.1-5.7
		c-4.4-1.8-8.4-3.9-12.1-6.5c-3.7-2.5-6.8-5.7-9.3-9.4c-2.5-3.7-3.7-8.5-3.7-14.2c0-8.1,2.8-14.6,8.5-19.4
		c5.7-4.8,13.7-7.2,24.1-7.2c6.1,0,11.6,0.4,16.5,1.3c5,0.9,8.8,2,11.6,3.4l-3.7,11c-2.3-1.1-5.6-2.2-10.1-3.2
		c-4.4-1-9.4-1.5-15-1.5c-6.6,0-11.5,1.5-14.8,4.4c-3.3,2.9-4.9,6.4-4.9,10.4c0,3.9,1.2,7.1,3.7,9.7c2.5,2.6,5.6,4.9,9.3,6.9
		c3.7,2,7.8,4,12.1,6c4.4,2,8.4,4.3,12.1,6.9c3.7,2.6,6.8,5.8,9.3,9.5c2.5,3.7,3.7,8.2,3.7,13.7c0,4.5-0.8,8.5-2.4,12.1
		c-1.6,3.6-3.9,6.7-7,9.2c-3.1,2.6-6.8,4.6-11.2,6c-4.4,1.4-9.3,2.1-14.9,2.1c-7.5,0-13.6-0.6-18.5-1.7c-4.9-1.1-8.6-2.4-11.3-3.8
		l4.2-11c2.3,1.3,5.7,2.5,10.1,3.7c4.5,1.2,9.5,1.8,15,1.8c3.3,0,6.4-0.3,9.2-1c2.9-0.6,5.4-1.7,7.4-3.1c2.1-1.4,3.7-3.3,5-5.4
		C1546,448.6,1546.6,446,1546.6,443.1z"/>
	<path class="st4" d="M1635.2,463.6c-3,2.4-6.7,4.3-11.2,5.7c-4.5,1.4-9.3,2.1-14.4,2.1c-5.7,0-10.6-0.9-14.8-2.8
		c-4.2-1.8-7.6-4.5-10.3-7.9c-2.7-3.4-4.7-7.5-6-12.3c-1.3-4.8-1.9-10.1-1.9-16.1c0-12.7,2.8-22.4,8.5-29.1c5.7-6.7,13.8-10,24.3-10
		c3.4,0,6.8,0.4,10.1,1.1c3.4,0.7,6.4,2.2,9.1,4.2c2.7,2.1,4.9,5,6.6,8.9c1.7,3.8,2.5,8.9,2.5,15.1c0,3.3-0.3,6.9-0.9,10.9H1589
		c0,4.4,0.4,8.2,1.3,11.6c0.9,3.4,2.3,6.2,4.2,8.6c1.9,2.3,4.3,4.1,7.4,5.4c3,1.2,6.7,1.9,11.1,1.9c3.4,0,6.8-0.6,10.1-1.8
		c3.4-1.2,5.9-2.6,7.6-4.2L1635.2,463.6z M1609.5,403.7c-5.9,0-10.6,1.5-14.1,4.6c-3.5,3.1-5.6,8.3-6.3,15.8h37
		c0-7.5-1.4-12.8-4.3-15.9C1618.9,405.2,1614.8,403.7,1609.5,403.7z"/>
	<path class="st4" d="M1694.9,406.5c-3-1-5.8-1.5-8.5-1.5c-4.3,0-7.6,1.2-10.1,3.5c-2.5,2.3-4,5.3-4.6,8.9v52.2h-11.9v-74.5h8.3
		l2.2,9.1h0.6c1.9-3.4,4.1-6,6.8-7.8c2.6-1.8,6-2.8,10.1-2.8c2.9,0,6.1,0.5,9.7,1.5L1694.9,406.5z"/>
	<path class="st4" d="M1735.1,438.7l4.2,14.2h0.1l3.7-14.5l16.7-43.4h12.8l-31.7,76.1h-5.1l-32.3-76.1h13.7L1735.1,438.7z"/>
	<path class="st4" d="M1841.5,463.6c-3,2.4-6.7,4.3-11.2,5.7c-4.5,1.4-9.3,2.1-14.4,2.1c-5.7,0-10.6-0.9-14.8-2.8
		c-4.2-1.8-7.6-4.5-10.3-7.9c-2.7-3.4-4.7-7.5-6-12.3c-1.3-4.8-1.9-10.1-1.9-16.1c0-12.7,2.8-22.4,8.5-29.1c5.7-6.7,13.8-10,24.3-10
		c3.4,0,6.8,0.4,10.1,1.1c3.4,0.7,6.4,2.2,9.1,4.2c2.7,2.1,4.9,5,6.6,8.9c1.7,3.8,2.5,8.9,2.5,15.1c0,3.3-0.3,6.9-0.9,10.9h-47.8
		c0,4.4,0.4,8.2,1.3,11.6c0.9,3.4,2.3,6.2,4.2,8.6c1.9,2.3,4.3,4.1,7.4,5.4c3,1.2,6.7,1.9,11.1,1.9c3.4,0,6.8-0.6,10.1-1.8
		c3.4-1.2,5.9-2.6,7.6-4.2L1841.5,463.6z M1815.9,403.7c-5.9,0-10.6,1.5-14.1,4.6c-3.5,3.1-5.6,8.3-6.3,15.8h37
		c0-7.5-1.4-12.8-4.3-15.9C1825.2,405.2,1821.2,403.7,1815.9,403.7z"/>
	<path class="st4" d="M1901.3,406.5c-3-1-5.8-1.5-8.5-1.5c-4.3,0-7.6,1.2-10.1,3.5c-2.5,2.3-4,5.3-4.6,8.9v52.2h-11.9v-74.5h8.3
		l2.2,9.1h0.6c1.9-3.4,4.1-6,6.8-7.8c2.6-1.8,6-2.8,10.1-2.8c2.9,0,6.1,0.5,9.7,1.5L1901.3,406.5z"/>
</g>
</svg>
