<svg xmlns="http://www.w3.org/2000/svg">
<!--
     fill-rule="evenodd"
     clip-rule="evenodd"
     stroke-linejoin="round"
     stroke-width="0"
     stroke-miterlimit="10"
     aria-labelledby="title"
     viewBox="0 0 32 32"
     preserveAspectRatio="xMidYMid meet"
-->

  <defs>
    <g id="add">
      <path d="M26.69,13.89H18.11V5.31a1.5,1.5,0,0,0-1.5-1.5H15.39a1.5,1.5,0,0,0-1.5,1.5v8.58H5.31a1.5,1.5,0,0,0-1.5,1.5v1.22a1.5,1.5,0,0,0,1.5,1.5h8.58v8.58a1.5,1.5,0,0,0,1.5,1.5h1.22a1.5,1.5,0,0,0,1.5-1.5V18.11h8.58a1.5,1.5,0,0,0,1.5-1.5V15.39A1.5,1.5,0,0,0,26.69,13.89Z" stroke-linecap="round" stroke-linejoin="round"/>
    </g>
  </defs>

  <defs>
    <g id="caret_right">
      <path
        d="M22.5,16.4c0,0,0-0.1,0-0.1c0,0,0-0.1,0-0.1
    c0.1-0.5-0.1-1-0.4-1.4c-0.1-0.1-0.2-0.2-0.4-0.3l-9.3-8.5c0,0,0,0,0,0c-0.7-0.6-1.8-0.5-2.4,0.1s-0.5,1.8,0.1,2.4l8.2,7.4
    l-8.1,7.4C9.5,24,9.4,25.1,10,25.8c0.6,0.7,1.7,0.8,2.4,0.1c0,0,0,0,0,0l9.3-8.5c0.1-0.1,0.2-0.2,0.3-0.3
    C22.3,16.9,22.4,16.7,22.5,16.4z"
      />
    </g>
  </defs>

  <defs>
    <g id="cb_external">
      <path d="M15.28,32c-3.38,0-6.77,0-10.16,0a6.93,6.93,0,0,1-2-.24A4.33,4.33,0,0,1,0,27.54V7.26A4.28,4.28,0,0,1,4.35,2.74c5.08,0,10.16,0,15.24,0,.78,0,1.42.19,1.38,1.11s-.72,1.06-1.46,1.06h-15A2.23,2.23,0,0,0,2.13,7.29q0,10,0,20.06a2.29,2.29,0,0,0,2.32,2.46c.32,0,.65,0,1,0H25c3,0,3.57-.58,3.57-3.63V15.69a8.42,8.42,0,0,1,0-.87,1,1,0,0,1,1.09-1.1,1,1,0,0,1,1.05,1.13c0,4.37.05,8.75,0,13.12a4.26,4.26,0,0,1-3.52,3.88,9.82,9.82,0,0,1-1.72.14Z" transform="translate(0 0)" />
      <path d="M27.27,2.46c-.8-.29-1.85-.66-2.89-1-.41-.15-.9-.31-.75-.88S24.22,0,24.68,0c2.12.06,4.25.13,6.37.17.69,0,1,.34.95,1-.07,2.2-.13,4.41-.19,6.61,0,.4-.12.74-.55.8s-.64-.24-.76-.61c-.35-1.13-.7-2.26-1.06-3.38l-.36-.25c-1.62,1.74-3.25,3.47-4.86,5.22-.59.64-1.07.83-1.77.09s-.81-1.18,0-2C24.09,6,25.65,4.22,27.27,2.46Z" transform="translate(0 0)" />
      <path d="M10.4,24.89c-.94,0-1.87,0-2.81,0A2.5,2.5,0,0,1,5,22.73c0-.11,0-.22,0-.32-.25-4.09.17-5.35,4.5-5.18,1.33.05,2.66,0,4,0,.68,0,.75.34.74.88s0,1-.77,1c-1.58-.05-3.16,0-4.75,0-1.2,0-1.52.35-1.56,1.56,0,.32,0,.64,0,1,0,1.05.53,1.51,1.53,1.51,1.55,0,3.1,0,4.64,0,.75,0,1,.2,1,1s-.35.87-1,.85c-1,0-1.94,0-2.91,0Z" transform="translate(0 0)"/>
      <path d="M25.72,19.93a2.45,2.45,0,0,0-2.44-2.63c-1.07-.09-2.15,0-3.23-.07-.68,0-1.49.18-2-.12s-.17-1.2-.22-1.83-.47-.66-.91-.6-1.26-.32-1.26.55a53,53,0,0,0,.15,7.67,2.28,2.28,0,0,0,2.34,2c.82,0,1.65,0,2.48,0s1.65,0,2.48,0a2.54,2.54,0,0,0,2.62-2.57C25.75,21.52,25.74,20.72,25.72,19.93Zm-4,3.17c-.86,0-1.72,0-2.59,0a1.24,1.24,0,0,1-1.3-1.29c-.24-2.76-.25-2.76,2.53-2.74.65,0,1.3,0,2,0a1.2,1.2,0,0,1,1.31,1.37c0,.25,0,.51,0,.76C23.58,22.79,23.28,23.09,21.69,23.1Z" transform="translate(0 0)"/>
    </g>
  </defs>
  <defs>
    <g id="cb_filled">
      <rect x="1" y="1" width="29.73" height="28" rx="3"  stroke-miterlimit="10" stroke-width="2"/>
      <path fill="#fff" stroke="#fff" stroke-width="0.5" d="M10.8,24.65c-1,0-2,0-2.93,0A2.61,2.61,0,0,1,5.2,22.4a1.88,1.88,0,0,1,0-.33c-.27-4.25.18-5.57,4.69-5.4,1.39.06,2.78,0,4.16,0,.72,0,.79.35.78.91s0,1-.81,1c-1.65-.05-3.3,0-5,0-1.26,0-1.59.37-1.63,1.62,0,.34,0,.68,0,1,0,1.09.56,1.58,1.6,1.58,1.61,0,3.23,0,4.84,0,.78,0,1,.21,1,1s-.36.9-1,.88c-1,0-2,0-3,0Z" transform="translate(-0.11 -1)"/>
      <path fill="#fff" stroke="#fff" stroke-width="0.5" d="M26.78,19.49a2.56,2.56,0,0,0-2.54-2.74c-1.12-.09-2.25,0-3.37-.07-.71,0-1.55.18-2.09-.13s-.19-1.25-.24-1.9-.49-.69-.95-.63-1.31-.34-1.31.57a54.61,54.61,0,0,0,.15,8,2.38,2.38,0,0,0,2.44,2.06c.86,0,1.73,0,2.59,0s1.73,0,2.59,0A2.66,2.66,0,0,0,26.78,22C26.82,21.14,26.81,20.31,26.78,19.49Zm-4.2,3.3c-.9,0-1.8,0-2.7,0a1.27,1.27,0,0,1-1.35-1.34c-.26-2.87-.27-2.87,2.64-2.85.67,0,1.35,0,2,0A1.25,1.25,0,0,1,24.56,20v.79C24.55,22.46,24.24,22.78,22.58,22.79Z" transform="translate(-0.11 -1)"/>
    </g>
  </defs>
    <defs>
    <g id="cb_outline">
      <rect x="1" y="1" width="29.73" height="28" rx="3" fill="none" stroke-miterlimit="10" stroke-width="2"/>
      <path stroke-width="0.5" d="M10.8,24.65c-1,0-2,0-2.93,0A2.61,2.61,0,0,1,5.2,22.4a1.88,1.88,0,0,1,0-.33c-.27-4.25.18-5.57,4.69-5.4,1.39.06,2.78,0,4.16,0,.72,0,.79.35.78.91s0,1-.81,1c-1.65-.05-3.3,0-5,0-1.26,0-1.59.37-1.63,1.62,0,.34,0,.68,0,1,0,1.09.56,1.58,1.6,1.58,1.61,0,3.23,0,4.84,0,.78,0,1,.21,1,1s-.36.9-1,.88c-1,0-2,0-3,0Z" transform="translate(-0.11 -1)"/>
      <path stroke-width="0.5" d="M26.78,19.49a2.56,2.56,0,0,0-2.54-2.74c-1.12-.09-2.25,0-3.37-.07-.71,0-1.55.18-2.09-.13s-.19-1.25-.24-1.9-.49-.69-.95-.63-1.31-.34-1.31.57a54.61,54.61,0,0,0,.15,8,2.38,2.38,0,0,0,2.44,2.06c.86,0,1.73,0,2.59,0s1.73,0,2.59,0A2.66,2.66,0,0,0,26.78,22C26.82,21.14,26.81,20.31,26.78,19.49Zm-4.2,3.3c-.9,0-1.8,0-2.7,0a1.27,1.27,0,0,1-1.35-1.34c-.26-2.87-.27-2.87,2.64-2.85.67,0,1.35,0,2,0A1.25,1.25,0,0,1,24.56,20v.79C24.55,22.46,24.24,22.78,22.58,22.79Z" transform="translate(-0.11 -1)"/>
    </g>
  </defs>

  <defs>
    <g id="checkmark">
      <path d="M16,31A15,15,0,1,1,31,16,15,15,0,0,1,16,31ZM16,1.07A14.93,14.93,0,1,0,30.93,16,15,15,0,0,0,16,1.07Z" fill="none"/>
      <path d="M16,.54A15.46,15.46,0,1,0,31.46,16,15.46,15.46,0,0,0,16,.54Zm0,29.89A14.43,14.43,0,1,1,30.43,16,14.43,14.43,0,0,1,16,30.43Z" />
      <path d="M21.63,9.43a1,1,0,0,0-1.32.48l-6.14,10-2.68-2.69a1,1,0,1,0-1.41,1.41s3.8,3.83,4,3.91a1,1,0,0,0,1.32-.48l6.75-11.34A1,1,0,0,0,21.63,9.43Z" stroke-miterlimit="10"/>
    </g>
  </defs>

  <defs>
    <g id="edit">
      <polygon points="0 24.54 0 31 6.46 31 25.52 11.94 19.06 5.48 0 24.54"/>
      <path d="M31,5,27,1a1.72,1.72,0,0,0-2.43,0L21.38,4.16l6.46,6.46L31,7.46A1.72,1.72,0,0,0,31,5Z" transform="translate(-0.5 -0.5)"/>
    </g>
  </defs>

  <defs>
    <g id="empty_files">
      <path d="M197.28,130.79,164.11,10.42a2.37,2.37,0,0,0-2.93-1.82L55.55,43.06A2.64,2.64,0,0,0,54,46.33L92,184a2.37,2.37,0,0,0,2.93,1.82l89.9-29.33Z" transform="translate(-51.91 -0.11)" fill="#fff" stroke="#e1e1e2" stroke-width="4" fill-rule="evenodd"/><path id="Rounded_Rectangle_15" data-name="Rounded Rectangle 15" d="M60.92,41.49a3.55,3.55,0,0,1,6.8-2L73.07,57.3a3.55,3.55,0,0,1-6.8,2l-1.94-6.45" transform="translate(-51.91 -0.11)" fill="none" stroke="#e1e1e2" stroke-width="2"/><line x1="106.97" y1="83.79" x2="60.87" y2="97.22" fill="none" stroke="#e1e1e2" stroke-linecap="round" stroke-linejoin="round" stroke-width="2"/><line x1="35.1" y1="104.73" x2="46.77" y2="101.33" fill="none" stroke="#e1e1e2" stroke-linecap="round" stroke-linejoin="round" stroke-width="2"/><line x1="49.36" y1="153.68" x2="90.99" y2="141.56" fill="none" stroke="#e1e1e2" stroke-linecap="round" stroke-linejoin="round" stroke-width="2"/><line x1="30.62" y1="89.34" x2="102.49" y2="68.41" fill="none" stroke="#e1e1e2" stroke-linecap="round" stroke-linejoin="round" stroke-width="2"/><line x1="39.58" y1="120.11" x2="111.45" y2="99.18" fill="none" stroke="#e1e1e2" stroke-linecap="round" stroke-linejoin="round" stroke-width="2"/><line x1="44.74" y1="137.83" x2="116.61" y2="116.9" fill="none" stroke="#e1e1e2" stroke-linecap="round" stroke-linejoin="round" stroke-width="2"/><line x1="79.67" y1="58.37" x2="26.14" y2="73.96" fill="none" stroke="#e1e1e2" stroke-linecap="round" stroke-linejoin="round" stroke-width="2"/><path id="Rounded_Rectangle_14_copy-2" data-name="Rounded Rectangle 14 copy-2" d="M240.05,128.89,224.25,4.42a2.44,2.44,0,0,0-2.64-2.29L112.38,18.55a2.58,2.58,0,0,0-2,3l18.07,142.32a2.44,2.44,0,0,0,2.64,2.29l93-14Z" transform="translate(-51.91 -0.11)" fill="#fff" stroke="#d1d2d2" stroke-width="4" fill-rule="evenodd"/><line x1="156.41" y1="72.22" x2="108.77" y2="78.18" fill="none" stroke="#d1d2d2" stroke-linecap="round" stroke-linejoin="round" stroke-width="2"/><line x1="82.13" y1="81.52" x2="94.19" y2="80.01" fill="none" stroke="#d1d2d2" stroke-linecap="round" stroke-linejoin="round" stroke-width="2"/><line x1="88.47" y1="132.11" x2="131.5" y2="126.72" fill="none" stroke="#d1d2d2" stroke-linecap="round" stroke-linejoin="round" stroke-width="2"/><line x1="162.75" y1="122.81" x2="144.82" y2="125.05" fill="none" stroke="#d1d2d2" stroke-linecap="round" stroke-linejoin="round" stroke-width="2"/><line x1="80.14" y1="65.62" x2="154.42" y2="56.32" fill="none" stroke="#d1d2d2" stroke-linecap="round" stroke-linejoin="round" stroke-width="2"/><line x1="84.13" y1="97.42" x2="158.41" y2="88.12" fill="none" stroke="#d1d2d2" stroke-linecap="round" stroke-linejoin="round" stroke-width="2"/><line x1="86.42" y1="115.73" x2="160.7" y2="106.43" fill="none" stroke="#d1d2d2" stroke-linecap="round" stroke-linejoin="round" stroke-width="2"/><line x1="133.47" y1="42.79" x2="78.15" y2="49.72" fill="none" stroke="#d1d2d2" stroke-linecap="round" stroke-linejoin="round" stroke-width="2"/><line x1="152.37" y1="39.93" x2="145.71" y2="40.77" fill="none" stroke="#d1d2d2" stroke-linecap="round" stroke-linejoin="round" stroke-width="2"/><path id="Rounded_Rectangle_15-2" data-name="Rounded Rectangle 15-2" d="M122.93,17.8a3.55,3.55,0,0,1,7-1l2.55,18.45a3.55,3.55,0,0,1-7,1l-.92-6.67" transform="translate(-51.91 -0.11)" fill="none" stroke="#d1d2d2" stroke-linecap="round" stroke-linejoin="round" stroke-width="2"/><path id="Rounded_Rectangle_14_copy-3" data-name="Rounded Rectangle 14 copy-3" stroke="#b7b7b7" d="M289.32,136.3V10.65A2.52,2.52,0,0,0,287,8H176.73a2.52,2.52,0,0,0-2.33,2.67V154.32a2.51,2.51,0,0,0,2.33,2.66h93.86Z" fill="#fff" transform="translate(-51.91 -0.11)" stroke-linecap="round" stroke-linejoin="round" stroke-width="4" fill-rule="evenodd"/><path id="Rounded_Rectangle_14_copy_2-3" data-name="Rounded Rectangle 14 copy 2-3" d="M288.85,137.92H271.72a2.52,2.52,0,0,0-2.43,2.62h0v17.77" transform="translate(-51.91 -0.11)" fill="none" stroke="#b7b7b7" stroke-width="4"/><path id="Rounded_Rectangle_15-3" data-name="Rounded Rectangle 15-3" d="M186,8a3.55,3.55,0,1,1,7.1,0V26.61a3.55,3.55,0,1,1-7.1,0V19.88" transform="translate(-51.91 -0.11)" fill="none" stroke="#b7b7b7" stroke-linecap="round" stroke-linejoin="round" stroke-width="2"/><line x1="218.33" y1="75.9" x2="170.31" y2="75.9" fill="#fff" stroke="#b7b7b7" stroke-linecap="round" stroke-linejoin="round" stroke-width="2"/><line x1="143.47" y1="75.9" x2="155.62" y2="75.9" fill="#fff" stroke="#b7b7b7" stroke-linecap="round" stroke-linejoin="round" stroke-width="2"/><line x1="143.47" y1="126.89" x2="186.83" y2="126.89" fill="#fff" stroke="#b7b7b7" stroke-linecap="round" stroke-linejoin="round" stroke-width="2"/><line x1="218.33" y1="126.89" x2="200.26" y2="126.89" fill="#fff" stroke="#b7b7b7" stroke-linecap="round" stroke-linejoin="round" stroke-width="2"/><line x1="143.47" y1="59.88" x2="218.33" y2="59.88" fill="#fff" stroke="#b7b7b7" stroke-linecap="round" stroke-linejoin="round" stroke-width="2"/><line x1="143.47" y1="91.92" x2="218.33" y2="91.92" fill="#fff" stroke="#b7b7b7" stroke-linecap="round" stroke-linejoin="round" stroke-width="2"/><line x1="143.47" y1="110.38" x2="218.33" y2="110.38" fill="#fff" stroke="#b7b7b7" stroke-linecap="round" stroke-linejoin="round" stroke-width="2"/><line x1="199.22" y1="43.85" x2="143.47" y2="43.85" fill="#fff" stroke="#b7b7b7" stroke-linecap="round" stroke-linejoin="round" stroke-width="2"/><line x1="218.33" y1="43.36" x2="211.61" y2="43.36" fill="#fff" stroke="#b7b7b7" stroke-linecap="round" stroke-linejoin="round" stroke-width="2"/>
    </g>
  </defs>
   <defs>
    <g id="empty_invites">
      <path style="fill: #dcdcdc; stroke: #dcdcdc; stroke-width: 4px; fill-rule: evenodd;" d="M51.77,97.765L202.7,50.189A2.463,2.463,0,0,1,205.79,51.8l26.248,83.265a2.464,2.464,0,0,1-1.609,3.09L79.5,185.73a2.464,2.464,0,0,1-3.09-1.609L50.161,100.855A2.463,2.463,0,0,1,51.77,97.765Z"/>
      <path style="fill: #dcdcdc; stroke: #dcdcdc; stroke-width: 4px; fill-rule: evenodd; opacity: 0.83;" d="M110.17,14.269l94.559,36.517a1.646,1.646,0,0,1,.809,2.567L149.013,137.5a2.826,2.826,0,0,1-3.214,1.013L51.24,101.992a1.647,1.647,0,0,1-.809-2.568l56.525-84.142A2.827,2.827,0,0,1,110.17,14.269Z"/>
      <path style="fill: #c9c9c9; stroke: #c9c9c9; stroke-width: 4px; fill-rule: evenodd;" d="M102.418,76.887l156.2-25.415a2.463,2.463,0,0,1,2.827,2.036l14.021,86.171a2.463,2.463,0,0,1-2.036,2.827l-156.2,25.416a2.464,2.464,0,0,1-2.827-2.036L100.382,79.713A2.464,2.464,0,0,1,102.418,76.887Z"/>
      <path style="fill: #c9c9c9; stroke: #c9c9c9; stroke-width: 4px; fill-rule: evenodd; opacity: 0.83;" d="M172.2,2.635l88.338,49.714a1.647,1.647,0,0,1,.432,2.657l-68.019,75.155a2.825,2.825,0,0,1-3.327.542L101.282,80.989a1.646,1.646,0,0,1-.432-2.657L168.869,3.176A2.825,2.825,0,0,1,172.2,2.635Z"/>
      <path style="fill: #b7b7b7; stroke: #b7b7b7; stroke-width: 4px; fill-rule: evenodd;" d="M154.536,66.917h157.19a3,3,0,0,1,3,3v86.218a3,3,0,0,1-3,3H154.536a3,3,0,0,1-3-3V69.917A3,3,0,0,1,154.536,66.917Z"/>
      <path style="fill: #b7b7b7; stroke: #b7b7b7; stroke-width: 4px; fill-rule: evenodd; opacity: 0.83;" d="M234.8,4.832L314,68.088a1.646,1.646,0,0,1,0,2.692L234.8,134.036a2.826,2.826,0,0,1-3.37,0L152.221,70.78a1.646,1.646,0,0,1,0-2.692L231.428,4.832A2.825,2.825,0,0,1,234.8,4.832Z"/>
      <path style="fill-rule: evenodd;fill: #fff;" d="M314,68.088a1.646,1.646,0,0,1,0,2.692L234.8,134.036a2.826,2.826,0,0,1-3.37,0L152.221,70.78a1.646,1.646,0,0,1,0-2.692"/>
      <path style="stroke: #b7b7b7; fill-rule: evenodd; fill: #fff; stroke-width: 4px;" d="M173.791,82.967c-1.536,0-2.781-.692-2.781-1.545V25.281c0-.853,1.245-1.545,2.781-1.545H293.385c1.536,0,2.781.692,2.781,1.545V81.422c0,0.853-1.245,1.545-2.781,1.545"/>
      <path style="fill: #b7b7b7; stroke: #b7b7b7; stroke-width: 4px; fill-rule: evenodd;" d="M195.308,48.289h76.544a3,3,0,0,1,3,3v0.774a3,3,0,0,1-3,3H195.308a3,3,0,0,1-3-3V51.289A3,3,0,0,1,195.308,48.289Z"/>
      <path style="fill: #b7b7b7; stroke: #b7b7b7; stroke-width: 4px; fill-rule: evenodd;" d="M195.308,69.457h76.544a3,3,0,0,1,3,3v0.774a3,3,0,0,1-3,3H195.308a3,3,0,0,1-3-3V72.457A3,3,0,0,1,195.308,69.457Z"/>
    </g>
  </defs>
   <defs>
    <g id="empty_projects">
      <path style="fill: #dcdcdc; stroke: #dcdcdc; stroke-width: 4px; fill-rule: evenodd;" d="M10.36,60.889L192.069,2.13a2.935,2.935,0,0,1,3.7,1.9l38.285,119.36a2.951,2.951,0,0,1-1.9,3.712L50.446,185.865a2.935,2.935,0,0,1-3.7-1.9L8.465,64.6A2.952,2.952,0,0,1,10.36,60.889Z"/>
      <path style="fill: #dcdcdc; stroke: #dcdcdc; stroke-width: 4px; fill-rule: evenodd;" d="M6.219,47.265L72.282,25.9a3.108,3.108,0,0,1,3.942,1.958L92.4,40.949a3.126,3.126,0,0,1-2.063,3.9L13.422,69.723A3.108,3.108,0,0,1,9.48,67.765l-5.324-16.6A3.126,3.126,0,0,1,6.219,47.265Z"/>
      <path style="fill: #c9c9c9; stroke: #c9c9c9; stroke-width: 4px; fill-rule: evenodd;" d="M85.744,34.872L274.758,7.982a2.94,2.94,0,0,1,3.32,2.507L295.6,134.646a2.948,2.948,0,0,1-2.5,3.335L104.086,164.87a2.939,2.939,0,0,1-3.32-2.507L83.249,38.207A2.948,2.948,0,0,1,85.744,34.872Z"/>
      <path style="fill: #c9c9c9; stroke: #c9c9c9; stroke-width: 4px; fill-rule: evenodd;" d="M83.97,20.739l68.719-9.776a3.112,3.112,0,0,1,3.553,2.6l13.729,15.66a3.122,3.122,0,0,1-2.694,3.491L87.266,44.1a3.112,3.112,0,0,1-3.553-2.6L81.277,24.231A3.121,3.121,0,0,1,83.97,20.739Z"/>
      <path style="fill: #b7b7b7; stroke: #b7b7b7;stroke-width: 4px; fill-rule: evenodd;" d="M166.426,22.72H357a3,3,0,0,1,3,3V150.808a3,3,0,0,1-3,3H166.426a3,3,0,0,1-3-3V25.72A3,3,0,0,1,166.426,22.72Z"/>
      <path style="fill: #b7b7b7; stroke: #b7b7b7;stroke-width: 4px; fill-rule: evenodd;" d="M166.586,8.5h69.331a3.113,3.113,0,0,1,3.151,3.073l11.393,17.411a3.113,3.113,0,0,1-3.151,3.073H166.586a3.113,3.113,0,0,1-3.152-3.073V11.575A3.113,3.113,0,0,1,166.586,8.5Z"/>
    </g>
  </defs>
  <defs>
    <g id="empty_search">
      <path d="M178.75,46.93a37.85,37.85,0,1,0,25.73,46.95A37.86,37.86,0,0,0,178.75,46.93ZM117.27,68.41a53,53,0,1,1,87.78,52.89,8.4,8.4,0,0,0-1.83,10l20.44,37.58a7.57,7.57,0,1,1-13.29,7.24L190,138.65a8.41,8.41,0,0,0-9.45-3.85,53,53,0,0,1-63.27-66.39Z" transform="translate(-113.13 -19.6)" fill="#fff" stroke="#e1e1e2" stroke-linecap="round" stroke-linejoin="round" stroke-width="4"/><path d="M196.18,43.06a37.85,37.85,0,1,0,20.73,49.36A37.87,37.87,0,0,0,196.18,43.06Zm-63.37,15a53,53,0,1,1,81.83,61.69,8.38,8.38,0,0,0-2.85,9.72L228.24,169a7.57,7.57,0,0,1-14,5.83l-16.39-39.35a8.4,8.4,0,0,0-9-4.8,53,53,0,0,1-56.05-72.58Z" transform="translate(-113.13 -19.6)" fill="#fff" stroke="#d1d2d2" stroke-linecap="round" stroke-linejoin="round" stroke-width="4"/><path d="M215.73,42.38a37.85,37.85,0,1,0,12.36,52.09A37.85,37.85,0,0,0,215.73,42.38Zm-65,4.41a53,53,0,1,1,70.6,74.27,8.43,8.43,0,0,0-4.41,9.13l9.75,41.65A7.57,7.57,0,1,1,212,175.29l-9.72-41.5a8.38,8.38,0,0,0-8.09-6.21,53,53,0,0,1-43.39-80.79Z" transform="translate(-113.13 -19.6)" fill="#fff" stroke="#b7b7b7" stroke-linecap="round" stroke-linejoin="round" stroke-width="4"/>
    </g>
  </defs>
  <defs>
    <g id="empty_storage">
      <path d="M255.27,52.24V18.48c0-6.94-5.4-12.62-12-12.62H94.81c-6.6,0-12,5.68-12,12.62V52.24a12.79,12.79,0,0,0,5.55,10.62,12.79,12.79,0,0,0-5.55,10.62v33.76c0,6.94,5.4,12.62,12,12.62H243.27c6.6,0,12-5.68,12-12.62V73.48a12.79,12.79,0,0,0-5.55-10.62A12.79,12.79,0,0,0,255.27,52.24Z" transform="translate(-80.81 -3.86)" fill="#fff" stroke="#e1e1e2" stroke-linecap="round" stroke-linejoin="round" stroke-width="4"/><path d="M268.92,52.24V18.48c0-6.94-5.4-12.62-12-12.62H108.45c-6.6,0-12,5.68-12,12.62V52.24c0,4.45,1.23,8.37,4.56,10.62-3.33,2.25-4.56,6.17-4.56,10.62v33.76c0,6.94,5.4,12.62,12,12.62H256.92c6.6,0,12-5.68,12-12.62V73.48a12.8,12.8,0,0,0-5.56-10.62A12.8,12.8,0,0,0,268.92,52.24Z" transform="translate(-80.81 -3.86)" fill="#fff" stroke="#d1d2d2" stroke-linecap="round" stroke-linejoin="round" stroke-width="4"/><rect x="29.09" y="59.48" width="172.46" height="56.09" rx="12" stroke-width="4" stroke="#b7b7b7" stroke-linecap="round" stroke-linejoin="round" fill="#fff"/><line x1="46.82" y1="84.08" x2="128.87" y2="84.08" fill="#fff" stroke="#b7b7b7" stroke-linecap="round" stroke-linejoin="round" stroke-width="4"/><circle cx="163.91" cy="92.78" r="5.74" fill="#fff" stroke="#b7b7b7" stroke-linecap="round" stroke-linejoin="round" stroke-width="4"/><circle cx="186.11" cy="92.78" r="5.74" fill="#fff" stroke="#b7b7b7" stroke-linecap="round" stroke-linejoin="round" stroke-width="4"/><rect x="29.09" y="2.2" width="172.46" height="56.09" rx="12" stroke-width="4" stroke="#b7b7b7" stroke-linecap="round" stroke-linejoin="round" fill="#fff"/><line x1="46.82" y1="26.47" x2="128.87" y2="26.47" fill="#fff" stroke="#b7b7b7" stroke-linecap="round" stroke-linejoin="round" stroke-width="4"/><circle cx="163.91" cy="35.17" r="5.74" fill="#fff" stroke="#b7b7b7" stroke-linecap="round" stroke-linejoin="round" stroke-width="4"/><circle cx="186.11" cy="35.17" r="5.74" fill="#fff" stroke="#b7b7b7" stroke-linecap="round" stroke-linejoin="round" stroke-width="4"/><line x1="117.13" y1="116.12" x2="117.13" y2="168.45" fill="#fff" stroke="#b7b7b7" stroke-linecap="round" stroke-linejoin="round" stroke-width="4"/><circle cx="117.13" cy="173.93" r="5.48" fill="#fff" stroke="#b7b7b7" stroke-linecap="round" stroke-linejoin="round" stroke-width="4"/><circle cx="207.03" cy="153.38" r="5.48" fill="#fff" stroke="#b7b7b7" stroke-linecap="round" stroke-linejoin="round" stroke-width="4"/><polyline points="169.65 116.12 169.65 153.38 201.55 153.38" fill="none" stroke="#b7b7b7" stroke-linecap="round" stroke-linejoin="round" stroke-width="4"/><circle cx="30.87" cy="153.38" r="5.48" fill="#fff" stroke="#b7b7b7" stroke-linecap="round" stroke-linejoin="round" stroke-width="4"/><polyline points="68.25 116.12 68.25 153.38 36.35 153.38" fill="none" stroke="#b7b7b7" stroke-linecap="round" stroke-linejoin="round" stroke-width="4"/>
    </g>
  </defs>
  <defs>
    <g id="empty_tasks">
      <rect x="70.07" y="25.1" width="114.8" height="148.09" rx="3" transform="translate(-72.87 35.72) rotate(-15.18)" stroke-width="4" stroke="#e1e1e2" stroke-linecap="round" stroke-linejoin="round" fill="#fff"/><rect x="77.13" y="31.63" width="100.18" height="135.21" rx="2" transform="translate(-72.91 35.66) rotate(-15.18)" stroke-width="2" stroke="#e1e1e2" stroke-linecap="round" stroke-linejoin="round" fill="#fff"/><path id="Shape_1_copy_3-7" data-name="Shape 1 copy 3-7" stroke="#e1e1e2" d="M85.66,84.89l3.86,1.53,4.4-13.9" fill="#fff" transform="translate(-51.36 -1.11)" stroke-linecap="round" stroke-linejoin="round" stroke-width="2" fill-rule="evenodd"/><path id="Shape_1_copy_3-7-2" data-name="Shape 1 copy 3-7" stroke="#e1e1e2" d="M93.49,113.73l3.85,1.54,4.41-13.91" fill="#fff" transform="translate(-51.36 -1.11)" stroke-linecap="round" stroke-linejoin="round" stroke-width="2" fill-rule="evenodd"/><path id="Shape_1_copy_3-7-3" data-name="Shape 1 copy 3-7" stroke="#e1e1e2" d="M101.13,143.36,105,144.9,109.39,131" fill="#fff" transform="translate(-51.36 -1.11)" stroke-linecap="round" stroke-linejoin="round" stroke-width="2" fill-rule="evenodd"/><path id="Rounded_Rectangle_2_copy-3" data-name="Rounded Rectangle 2 copy-3" stroke="#e1e1e2" d="M75.89,31.5l61.44-16.56a2.5,2.5,0,0,1,3.07,1.77l3.79,14a2.51,2.51,0,0,1-1.77,3.07h0L81,50.35a2.52,2.52,0,0,1-3.08-1.77l-3.78-14a2.5,2.5,0,0,1,1.76-3.07Z" fill="#fff" transform="translate(-51.36 -1.11)" stroke-linecap="round" stroke-linejoin="round" stroke-width="2" fill-rule="evenodd"/><line x1="109.26" y1="90.64" x2="69.22" y2="101.5" fill="#fff" stroke="#e1e1e2" stroke-linecap="round" stroke-linejoin="round" stroke-width="2"/><line x1="61.39" y1="72.65" x2="101.43" y2="61.79" fill="#fff" stroke="#e1e1e2" stroke-linecap="round" stroke-linejoin="round" stroke-width="2"/><line x1="117.27" y1="120.16" x2="77.23" y2="131.03" fill="#fff" stroke="#e1e1e2" stroke-linecap="round" stroke-linejoin="round" stroke-width="2"/><rect x="118.55" y="11.85" width="114.8" height="148.09" rx="3" transform="translate(-60.46 20.8) rotate(-6.95)" stroke-width="4" stroke="#d1d2d2" stroke-linecap="round" stroke-linejoin="round" fill="#fff"/><rect x="125.61" y="18.35" width="100.18" height="135.21" rx="2" transform="translate(-60.47 20.77) rotate(-6.95)" stroke-width="2" stroke="#d1d2d2" stroke-linecap="round" stroke-linejoin="round" fill="#fff"/><path id="Shape_1_copy_3-7-4" data-name="Shape 1 copy 3-7" stroke="#d1d2d2" d="M136.62,65.8l3.6,2.07,6.35-13.13" fill="#fff" transform="translate(-51.36 -1.11)" stroke-linecap="round" stroke-linejoin="round" stroke-width="2" fill-rule="evenodd"/><path id="Shape_1_copy_3-7-5" data-name="Shape 1 copy 3-7" stroke="#d1d2d2" d="M140.24,95.47l3.59,2.07,6.35-13.13" fill="#fff" transform="translate(-51.36 -1.11)" stroke-linecap="round" stroke-linejoin="round" stroke-width="2" fill-rule="evenodd"/><path id="Shape_1_copy_3-7-6" data-name="Shape 1 copy 3-7" stroke="#d1d2d2" d="M143.55,125.89l3.6,2.07,6.35-13.13" fill="#fff" transform="translate(-51.36 -1.11)" stroke-linecap="round" stroke-linejoin="round" stroke-width="2" fill-rule="evenodd"/><path id="Rounded_Rectangle_2_copy-3-2" data-name="Rounded Rectangle 2 copy-3" stroke="#d1d2d2" d="M134.59,11.57,197.77,4a2.52,2.52,0,0,1,2.79,2.19l1.74,14.41a2.51,2.51,0,0,1-2.19,2.78h0l-63.18,7.59a2.51,2.51,0,0,1-2.79-2.18L132.4,14.35a2.5,2.5,0,0,1,2.19-2.78Z" fill="#fff" transform="translate(-51.36 -1.11)" stroke-linecap="round" stroke-linejoin="round" stroke-width="2" fill-rule="evenodd"/><line x1="158.46" y1="82.21" x2="117.28" y2="87.23" fill="#fff" stroke="#d1d2d2" stroke-linecap="round" stroke-linejoin="round" stroke-width="2"/><line x1="113.66" y1="57.56" x2="154.85" y2="52.54" fill="#fff" stroke="#d1d2d2" stroke-linecap="round" stroke-linejoin="round" stroke-width="2"/><line x1="162.16" y1="112.58" x2="120.98" y2="117.6" fill="#fff" stroke="#d1d2d2" stroke-linecap="round" stroke-linejoin="round" stroke-width="2"/><rect x="123.24" y="5.74" width="114.8" height="148.09" rx="3" stroke-width="4" stroke="#b7b7b7" stroke-linecap="round" stroke-linejoin="round" fill="#fff"/><rect x="130.28" y="12.21" width="100.18" height="135.21" rx="2" stroke-width="2" stroke="#b7b7b7" stroke-linecap="round" stroke-linejoin="round" fill="#fff"/><path id="Shape_1_copy_3-7-7" data-name="Shape 1 copy 3-7" d="M195.39,56.19l3.31,2.5,7.9-12.27" transform="translate(-51.36 -1.11)" fill="none" stroke="#b7b7b7" stroke-linecap="round" stroke-width="2" fill-rule="evenodd"/><path id="Shape_1_copy_3-7-8" data-name="Shape 1 copy 3-7" d="M195.39,86.08l3.31,2.5,7.9-12.27" transform="translate(-51.36 -1.11)" fill="none" stroke="#b7b7b7" stroke-linecap="round" stroke-width="2" fill-rule="evenodd"/><path id="Shape_1_copy_3-7-9" data-name="Shape 1 copy 3-7" d="M195,116.68l3.32,2.49,7.89-12.27" transform="translate(-51.36 -1.11)" fill="none" stroke="#b7b7b7" stroke-linecap="round" stroke-width="2" fill-rule="evenodd"/><path id="Rounded_Rectangle_2_copy-3-3" data-name="Rounded Rectangle 2 copy-3" d="M199.93,2.11l63.63.11a2.5,2.5,0,0,1,2.51,2.5l0,14.52a2.5,2.5,0,0,1-2.5,2.5h0l-63.63-.11a2.51,2.51,0,0,1-2.51-2.5l0-14.52a2.51,2.51,0,0,1,2.51-2.5Z" transform="translate(-51.36 -1.11)" fill="#fff" stroke="#b7b7b7" stroke-width="2" fill-rule="evenodd"/><line x1="214.57" y1="81.33" x2="173.08" y2="81.33" fill="#fff" stroke="#b7b7b7" stroke-linecap="round" stroke-linejoin="round" stroke-width="2"/><line x1="173.08" y1="51.44" x2="214.57" y2="51.44" fill="#fff" stroke="#b7b7b7" stroke-linecap="round" stroke-linejoin="round" stroke-width="2"/><line x1="214.57" y1="111.92" x2="173.08" y2="111.92" fill="#fff" stroke="#b7b7b7" stroke-linecap="round" stroke-linejoin="round" stroke-width="2"/><rect x="275.38" y="102.94" width="15.81" height="69.69" rx="2" transform="translate(97.46 -148.2) rotate(38.79)" stroke-width="2" stroke="#b7b7b7" stroke-linecap="round" stroke-linejoin="round" fill="#fff"/><polygon points="210.09 163.84 215.99 168.58 208.93 171.32 201.87 174.06 203.03 166.57 204.19 159.09 210.09 163.84" fill="#fff" stroke="#b7b7b7" stroke-linecap="round" stroke-linejoin="round" stroke-width="2"/><line x1="241.75" y1="111.76" x2="254.15" y2="121.72" fill="#fff" stroke="#b7b7b7" stroke-linecap="round" stroke-linejoin="round" stroke-width="2"/>
    </g>
  </defs>

  <defs>
    <g id="error">
      <path d="M20.34,10.38,16,14.72l-4.34-4.34a.91.91,0,1,0-1.28,1.28L14.72,16l-4.34,4.34a.91.91,0,1,0,1.28,1.28L16,17.28l4.34,4.34a.91.91,0,0,0,1.28-1.28L17.28,16l4.34-4.34a.91.91,0,1,0-1.28-1.28Z" stroke-miterlimit="10"/>
      <path d="M16,31A15,15,0,1,1,31,16,15,15,0,0,1,16,31ZM16,1.07A14.93,14.93,0,1,0,30.93,16,15,15,0,0,0,16,1.07Z" fill="#fff"/>
      <path d="M16,.54A15.46,15.46,0,1,0,31.46,16,15.46,15.46,0,0,0,16,.54Zm0,29.89A14.43,14.43,0,1,1,30.43,16,14.43,14.43,0,0,1,16,30.43Z"/>
    </g>
  </defs>

  <defs>
    <g id="file" stroke-linecap="round" stroke-linejoin="round">
      <rect x="4.37" y="1.38" width="23.2" height="29.01" rx="5" fill="none" />
      <line x1="24.24" y1="13.78" x2="13.91" y2="13.78" fill="none" />
      <line x1="8.13" y1="13.78" x2="10.75" y2="13.78" fill="none" />
      <line x1="8.13" y1="10.11" x2="24.24" y2="10.11" fill="none" />
      <line x1="8.13" y1="17.45" x2="24.24" y2="17.45" fill="none" />
      <line x1="24.24" y1="21.67" x2="13.91" y2="21.67" fill="none" />
      <line x1="8.13" y1="21.67" x2="10.75" y2="21.67" fill="none" />
      <line x1="8.13" y1="25.44" x2="24.24" y2="25.44" fill="none" />
    </g>
  </defs>

  <defs>
    <g id="grid" stroke-linejoin="round" fill="#fff" stroke="#fff">
      <path d="M11.55,12.35H2.65a.79.79,0,0,1-.8-.8V3.05a.79.79,0,0,1,.8-.8h8.9a.79.79,0,0,1,.8.8v8.5C12.25,12,12,12.35,11.55,12.35Z" transform="translate(-1.35 -1.75)" />
      <path d="M29.35,12.35h-8.9a.79.79,0,0,1-.8-.8V3.05a.79.79,0,0,1,.8-.8h8.9a.79.79,0,0,1,.8.8v8.5A.86.86,0,0,1,29.35,12.35Z" transform="translate(-1.35 -1.75)" />
      <path d="M11.55,29.75H2.65a.79.79,0,0,1-.8-.8v-8.5a.79.79,0,0,1,.8-.8h8.9a.79.79,0,0,1,.8.8V29C12.25,29.45,12,29.75,11.55,29.75Z" transform="translate(-1.35 -1.75)" />
      <path d="M29.35,29.75h-8.9a.79.79,0,0,1-.8-.8v-8.5a.79.79,0,0,1,.8-.8h8.9a.79.79,0,0,1,.8.8V29A.79.79,0,0,1,29.35,29.75Z" transform="translate(-1.35 -1.75)" />
    </g>
  </defs>

  <defs>
    <g id="invite">
      <path stroke-width="3" d="M1.33,5.63H30.67a.63.63,0,0,1,.57.68V25.69a.63.63,0,0,1-.57.68H1.33a.63.63,0,0,1-.57-.68V6.31A.63.63,0,0,1,1.33,5.63Z" fill="none"  fill-rule="evenodd"/>
      <path stroke-width="2" d="M31.1,5.73,16.32,20a.45.45,0,0,1-.63,0L.9,5.73Z" fill="none"  stroke-linecap="round" stroke-linejoin="round" fill-rule="evenodd" style="isolation:isolate"/>
    </g>
  </defs>

  <defs>
    <g id="list" stroke-linejoin="round">
      <path d="M29.05,29.8H3a1.11,1.11,0,0,1-1.1-1.1V23.5A1.11,1.11,0,0,1,3,22.4h26.1a1.11,1.11,0,0,1,1.1,1.1v5.2A1.11,1.11,0,0,1,29.05,29.8Z" transform="translate(-1.35 -1.7)" fill-rule="evenodd" />
      <path d="M29.05,19.7H3a1.11,1.11,0,0,1-1.1-1.1V13.4A1.11,1.11,0,0,1,3,12.3h26.1a1.11,1.11,0,0,1,1.1,1.1v5.2A1.11,1.11,0,0,1,29.05,19.7Z" transform="translate(-1.35 -1.7)" />
      <path d="M29.05,9.6H3a1.11,1.11,0,0,1-1.1-1.1V3.3A1.11,1.11,0,0,1,3,2.2h26.1a1.11,1.11,0,0,1,1.1,1.1V8.5A1.11,1.11,0,0,1,29.05,9.6Z" transform="translate(-1.35 -1.7)" />
    </g>
  </defs>

  <defs>
    <g id="project">
      <path d="M30.13,7.84h-17c-.47-.9-1.14-3-1.48-3H1.87a1,1,0,0,0-1,1V28.16a1,1,0,0,0,1,1H30.13a1,1,0,0,0,1-1V8.84A1,1,0,0,0,30.13,7.84Z" fill="none" stroke-width="3" stroke-linecap="round" stroke-linejoin="round"/>
    </g>
  </defs>

  <defs>
    <g id="search">
      <path d="M14,9c-2.761,0 -5,2.239 -5,5c0,2.761 2.239,5 5,5c1.387,0 2.641,-0.564 3.548,-1.477c0.899,-0.905 1.452,-2.148 1.452,-3.523c0,-2.761 -2.239,-5 -5,-5Zm-7,5c0,-3.866 3.134,-7 7,-7c3.866,0 7,3.134 7,7c0,1.257 -0.332,2.436 -0.912,3.456c-0.244,0.431 -0.212,0.981 0.137,1.332l3.984,4.007c0.389,0.391 0.388,1.025 -0.004,1.414c-0.392,0.389 -1.025,0.388 -1.414,-0.004l-3.97,-3.992c-0.352,-0.354 -0.908,-0.387 -1.341,-0.138c-1.025,0.588 -2.214,0.925 -3.48,0.925c-3.866,0 -7,-3.134 -7,-7Z" />
    </g>
  </defs>

  <defs>
    <g id="stats_files" stroke-linecap="round" stroke-linejoin="join" stroke-width="1.2px">
      <path d="M9,25.18a.84.84,0,0,1-.86-.77V1.85A.85.85,0,0,1,9,1.08H26.67a.85.85,0,0,1,.86.77" transform="translate(-1.05 -0.43)" style="fill:none"/>
      <path d="M29.16,27.28H11.28a.86.86,0,0,1-.87-.86V4a.86.86,0,0,1,.87-.86H29.16A.86.86,0,0,1,30,4V26.42A.86.86,0,0,1,29.16,27.28Z" transform="translate(-1.05 -0.43)" style="fill:none;stroke-miterlimit:10;"/>
      <line x1="26.01" y1="13.08" x2="17.11" y2="13.08" fill="none"/>
      <line x1="12.14" y1="13.08" x2="15.39" y2="13.08" fill="none"/>
      <line x1="12.14" y1="23.12" x2="20.17" y2="23.12" fill="none"/>
      <line x1="26.01" y1="23.12" x2="22.66" y2="23.12" fill="none"/>
      <line x1="12.14" y1="9.93" x2="26.01" y2="9.93" fill="none"/>
      <line x1="12.14" y1="16.24" x2="26.01" y2="16.24" fill="none"/>
      <line x1="12.14" y1="19.87" x2="26.01" y2="19.87" fill="none"/>
      <line x1="22.47" y1="6.77" x2="12.14" y2="6.77" fill="none"/>
      <line x1="26.01" y1="6.67" x2="24.76" y2="6.67" fill="none"/>
      <line x1="10.23" y1="30.48" x2="11.18" y2="30.48" fill="none" stroke="#00a09f" opacity="0.5"/>
      <line x1="2.58" y1="30.48" x2="8.41" y2="30.48" fill="none" stroke="#00a09f" opacity="0.5" />
      <path d="M7.64,27.76a18.19,18.19,0,0,0-4,1.53H20.07" transform="translate(-1.05 -0.43)" fill="none" stroke="#00a09f"/>
      <line x1="12.91" y1="30.48" x2="21.03" y2="30.48" fill="none" stroke="#00a09f" opacity="0.5"/>
    </g>
  </defs>

  <defs>
    <g id="stats_filesize" stroke-width="1.2" stroke-miterlimit="10" stroke-linecap="round" stroke-linejoin="round">
      <path d="M28,27.57H7.63a1,1,0,0,1-1-1V1.82a1,1,0,0,1,1-1H27.86a1,1,0,0,1,1,1V26.6A1,1,0,0,1,28,27.57Z" transform="translate(-1.85 -0.2)" fill="none" stroke="#000"  />
      <line x1="23.79" y1="12.07" x2="13.72" y2="12.07" fill="none" stroke="#000" />
      <line x1="8.01" y1="12.17" x2="11.78" y2="12.17" fill="none" stroke="#000" />
      <line x1="8.01" y1="23.4" x2="17.11" y2="23.4" fill="none" stroke="#000" />
      <line x1="23.79" y1="23.4" x2="20.01" y2="23.4" fill="none" stroke="#000" />
      <line x1="8.01" y1="8.59" x2="23.79" y2="8.59" fill="none" stroke="#000" />
      <line x1="8.01" y1="15.65" x2="23.79" y2="15.65" fill="none" stroke="#000" />
      <line x1="8.01" y1="19.62" x2="23.79" y2="19.62" fill="none" stroke="#000" />
      <line x1="19.72" y1="5.01" x2="8.01" y2="5.01" fill="none" stroke="#000" />
      <line x1="23.79" y1="5.01" x2="22.33" y2="5.01" fill="none" stroke="#000" />
      <line x1="4.91" y1="30.95" x2="4.91" y2="28.92" fill="none" stroke="#00a09f" />
      <line x1="26.98" y1="30.95" x2="26.98" y2="28.92" fill="none" stroke="#00a09f" />
      <line x1="5.1" y1="29.98" x2="26.79" y2="29.98" fill="none" stroke="#00a09f" />
      <line x1="0.65" y1="0.65" x2="2.88" y2="0.65" fill="none" stroke="#00a09f" />
      <line x1="0.65" y1="27.37" x2="2.88" y2="27.37" fill="none" stroke="#00a09f" />
      <line x1="1.81" y1="0.94" x2="1.81" y2="27.08" fill="none" stroke="#00a09f"  />
    </g>
  </defs>

  <defs>
    <g id="stats_invites" stroke-linecap="round" stroke-miterlimit="10" stroke-width="1.3" stroke-linejoin="round">
      <polyline points="22.55 14.79 22.55 18.21 24.63 20.29" fill="none" />
      <path d="M1.17,21.33S4.68,8.91,17.32,13.84" transform="translate(-0.52 -0.85)" fill="none" />
      <path d="M17.49,6.72c0,3-.54,3.88-.9,4.42-.36.36-1.26.9-4.59.9s-4.42-.72-4.6-.9c-.36-.36-.9-1.45-.9-4.42A5.31,5.31,0,0,1,12.09,1.5,5.16,5.16,0,0,1,17.49,6.72Z" transform="translate(-0.52 -0.85)" fill="none" />
      <line x1="15.89" y1="26.77" x2="29.22" y2="26.77" fill="none" stroke="#00a09f" />
      <line x1="15.89" y1="29.75" x2="18.14" y2="29.75" fill="none" opacity="0.5" stroke="#00a09f"/>
      <line x1="20.39" y1="29.75" x2="25.89" y2="29.75" fill="none" stroke="#00a09f" opacity="0.5" stroke-dasharray="4.92 2.46" />
      <line x1="26.97" y1="29.75" x2="29.22" y2="29.75" fill="none" opacity="0.5" stroke="#00a09f"/>
      <path d="M23.07,12.4a6.31,6.31,0,1,1-6.3,6.3,6.32,6.32,0,0,1,6.3-6.3m0-.45a6.74,6.74,0,0,0-6.75,6.75,6.67,6.67,0,0,0,6.75,6.67,6.75,6.75,0,0,0,6.76-6.76A6.67,6.67,0,0,0,23.07,12Z" transform="translate(-0.52 -0.85)" fill="#00a09f" stroke="#00a09f"/>
    </g>
  </defs>

  <defs>
    <g id="stats_members" stroke-width="1.2" stroke-miterlimit="10" stroke-linecap="round">
      <path d="M9,19C10.36,15.38,13,13,16.05,13S21.87,15.5,23.11,19" transform="translate(0.02 -2.98)" fill="none" />
      <path d="M20,9.06c0,2.11-.37,2.85-.62,3.22s-1,.62-3.34.62-3.22-.49-3.34-.62-.62-1-.62-3.22a3.81,3.81,0,0,1,4-3.83A3.88,3.88,0,0,1,20,9.06Z" transform="translate(0.02 -2.98)" fill="none" />
      <path d="M20,13.52A6.42,6.42,0,0,1,25.29,10c2.66,0,5,2.13,6.07,5.11" transform="translate(0.02 -2.98)" fill="none" />
      <path d="M28.8,6.82a4.3,4.3,0,0,1-.53,2.66c-.21.21-.85.53-2.87.53s-2.76-.42-2.87-.53S22,8.63,22,6.82a3.25,3.25,0,0,1,3.4-3.19A3.32,3.32,0,0,1,28.8,6.82Z" transform="translate(0.02 -2.98)" fill="none" />
      <path d="M10,6.82a4.3,4.3,0,0,1-.53,2.66c-.32.21-.85.53-3,.53S3.71,9.59,3.6,9.48s-.53-.85-.53-2.66a3.25,3.25,0,0,1,3.4-3.19A3.34,3.34,0,0,1,10,6.82Z" transform="translate(0.02 -2.98)" fill="none" />
      <path d="M.63,15c1.16-3,3.4-5,6.06-5A6.42,6.42,0,0,1,12,13.52M.63,15h0m0,.11h0" transform="translate(0.02 -2.98)" fill="none" />
      <path d="M31,22.26a30.71,30.71,0,0,1-14.71,3.43c-6,0-11.46-1.43-15.19-3.72" transform="translate(0.02 -2.98)" fill="none" stroke="#00a09f" />
      <path d="M31,26A30.71,30.71,0,0,1,16.29,29.4c-6,0-11.46-1.43-15.19-3.72" transform="translate(0.02 -2.98)" fill="none" stroke="#00a09f" stroke-dasharray="4.18 2 0.84 2.5 4.18 2.5" opacity="0.5"/>
    </g>
  </defs>

  <defs>
    <g id="stats_tasks" stroke-linecap="round" stroke-miterlimit="10" stroke-width="1.2px" stroke-linejoin="round" >
      <line x1="10.27" y1="29.85" x2="11.22" y2="29.85" fill="none" stroke="#00a09f" opacity="0.5" />
      <line x1="12.82" y1="29.85" x2="20.56" y2="29.85" fill="none" stroke="#00a09f" opacity="0.5" />
      <line x1="10.18" y1="6.53"  x2="21.5"  y2="6.53"  fill="none" />
      <line x1="10.18" y1="12.79" x2="21.5"  y2="12.79" fill="none" />
      <line x1="10.18" y1="19.61" x2="18.77" y2="19.61" fill="none" />
      <polyline points="3.67 7.1 4.99 8.14 6.69 4.92"    fill="none" />
      <polyline points="3.67 13.36 4.99 14.4 6.69 11.17" fill="none" />
      <polyline points="3.76 20.18 4.99 21.32 6.78 18"   fill="none" />
      <path d="M14.14,26.69h-8a4.54,4.54,0,0,1-4.53-4.55V6.21A4.54,4.54,0,0,1,6.12,1.66H21.88a4.55,4.55,0,0,1,4.53,4.55v4.27" transform="translate(-0.56 -1.01)" fill="none" />
      <path d="M20.18,26.12l-3.4.67.38-3.61" transform="translate(-0.56 -1.01)" fill="none" stroke="#00a09f" />
      <path d="M27.63,13l2.55,2.56L20.08,25.74l-2.54-2.56L27.63,13m0-.57a.35.35,0,0,0-.28.09L17.16,22.9a.36.36,0,0,0,0,.57l2.64,2.65a.34.34,0,0,0,.28.1.35.35,0,0,0,.29-.1L30.56,15.88a.36.36,0,0,0,0-.57l-2.64-2.65c-.1-.1-.19-.19-.29-.19Z" transform="translate(-0.56 -1.01)" fill="#00a09f" stroke="#00a09f" />
      <path d="M1.21,26a4.65,4.65,0,0,0,4.15,2.84H21.12" transform="translate(-0.56 -1.01)" fill="none" stroke="#00a09f"  />
    </g>
  </defs>

  <defs>
    <g id="task" stroke-linecap="round" stroke-linejoin="round" stroke-width="1.2">
      <path d="M14.11,30.13H5.78A5.27,5.27,0,0,1,.49,24.84V7.09A5.27,5.27,0,0,1,5.78,1.8H23.52a5.28,5.28,0,0,1,5.3,5.29v4.22" transform="translate(0.01 -1.3)" fill="none" />
      <polygon points="20.4 27.75 17.06 24.91 16.28 29.12 20.4 27.75" fill="none" />
      <path d="M26.56,15.23l3,2.65a.29.29,0,0,1,0,.39L20.68,28.76a.32.32,0,0,1-.39,0l-3-2.65a.29.29,0,0,1,0-.39l3.63-4.32,5.39-6.27A.47.47,0,0,1,26.56,15.23Z" transform="translate(0.01 -1.3)" fill="none" />
      <path d="M27.93,13.37l3.34,2.84a.15.15,0,0,1,0,.2L30,17.88a.14.14,0,0,1-.19,0l-3.24-2.94a.14.14,0,0,1,0-.2l1.28-1.47A.09.09,0,0,1,27.93,13.37Z" transform="translate(0.01 -1.3)" fill="none" />
      <line x1="10.79" y1="6.87" x2="22.75" y2="6.87" fill="none" />
      <polyline points="4.42 7.46 5.79 8.73 7.95 5.01" fill="none" />
      <line x1="10.79" y1="14.81" x2="22.75" y2="14.81" fill="none" />
      <polyline points="4.71 15.4 6.09 16.67 8.24 12.95" fill="none" />
      <line x1="10.79" y1="22.75" x2="18.73" y2="22.75" fill="none" />
      <polyline points="4.32 23.34 5.7 24.61 7.85 20.79" fill="none" /></g>
  </defs>

  <defs>
    <g id="upload" stroke-width="2" stroke-linecap="round" stroke-linejoin="round" >
      <path stroke-width="3" d="M31.13,22.38v6.11A1.12,1.12,0,0,1,30,29.56H2.26a1.12,1.12,0,0,1-1.17-1.07V22.38" fill="none"  fill-rule="evenodd"/>
      <line stroke-width="3" x1="16.11" y1="20.02" x2="16.11" y2="4.37" fill="none"  />
      <path d="M20.91,11.2a.5.5,0,0,1-.69-.15L16.11,4.6,12,11.05a.5.5,0,1,1-.84-.54L15.69,3.4a.5.5,0,0,1,.84,0l4.53,7.11a.47.47,0,0,1,.08.27A.48.48,0,0,1,20.91,11.2Z"/>
    </g>
  </defs>


  <defs>
    <g id="user" stroke-width="3" stroke-linecap="round" stroke-linejoin="round">
      <ellipse cx="16" cy="7.82" rx="7.17" ry="6.96" fill="none" />
      <path d="M26.33,24.79c0,5.53-4.63,6.35-10.33,6.35S5.67,30.32,5.67,24.79A10.18,10.18,0,0,1,16,14.77,10.18,10.18,0,0,1,26.33,24.79Z" fill="none" />
    </g>
  </defs>

</svg>
