<svg xmlns="http://www.w3.org/2000/svg">
<!--
     fill-rule="evenodd"
     clip-rule="evenodd"
     stroke-linejoin="round"
     stroke-width="0"
     stroke-miterlimit="10"
     aria-labelledby="title"
     viewBox="0 0 32 32"
     preserveAspectRatio="xMidYMid meet"
-->

  <defs>
    <g id="caret_right">
      <path
        d="M22.5,16.4c0,0,0-0.1,0-0.1c0,0,0-0.1,0-0.1
    c0.1-0.5-0.1-1-0.4-1.4c-0.1-0.1-0.2-0.2-0.4-0.3l-9.3-8.5c0,0,0,0,0,0c-0.7-0.6-1.8-0.5-2.4,0.1s-0.5,1.8,0.1,2.4l8.2,7.4
    l-8.1,7.4C9.5,24,9.4,25.1,10,25.8c0.6,0.7,1.7,0.8,2.4,0.1c0,0,0,0,0,0l9.3-8.5c0.1-0.1,0.2-0.2,0.3-0.3
    C22.3,16.9,22.4,16.7,22.5,16.4z"
      />
    </g>
  </defs>

  <defs>
    <g id="cb_external">
      <path d="M15.28,32c-3.38,0-6.77,0-10.16,0a6.93,6.93,0,0,1-2-.24A4.33,4.33,0,0,1,0,27.54V7.26A4.28,4.28,0,0,1,4.35,2.74c5.08,0,10.16,0,15.24,0,.78,0,1.42.19,1.38,1.11s-.72,1.06-1.46,1.06h-15A2.23,2.23,0,0,0,2.13,7.29q0,10,0,20.06a2.29,2.29,0,0,0,2.32,2.46c.32,0,.65,0,1,0H25c3,0,3.57-.58,3.57-3.63V15.69a8.42,8.42,0,0,1,0-.87,1,1,0,0,1,1.09-1.1,1,1,0,0,1,1.05,1.13c0,4.37.05,8.75,0,13.12a4.26,4.26,0,0,1-3.52,3.88,9.82,9.82,0,0,1-1.72.14Z" transform="translate(0 0)" />
      <path d="M27.27,2.46c-.8-.29-1.85-.66-2.89-1-.41-.15-.9-.31-.75-.88S24.22,0,24.68,0c2.12.06,4.25.13,6.37.17.69,0,1,.34.95,1-.07,2.2-.13,4.41-.19,6.61,0,.4-.12.74-.55.8s-.64-.24-.76-.61c-.35-1.13-.7-2.26-1.06-3.38l-.36-.25c-1.62,1.74-3.25,3.47-4.86,5.22-.59.64-1.07.83-1.77.09s-.81-1.18,0-2C24.09,6,25.65,4.22,27.27,2.46Z" transform="translate(0 0)" />
      <path d="M10.4,24.89c-.94,0-1.87,0-2.81,0A2.5,2.5,0,0,1,5,22.73c0-.11,0-.22,0-.32-.25-4.09.17-5.35,4.5-5.18,1.33.05,2.66,0,4,0,.68,0,.75.34.74.88s0,1-.77,1c-1.58-.05-3.16,0-4.75,0-1.2,0-1.52.35-1.56,1.56,0,.32,0,.64,0,1,0,1.05.53,1.51,1.53,1.51,1.55,0,3.1,0,4.64,0,.75,0,1,.2,1,1s-.35.87-1,.85c-1,0-1.94,0-2.91,0Z" transform="translate(0 0)"/>
      <path d="M25.72,19.93a2.45,2.45,0,0,0-2.44-2.63c-1.07-.09-2.15,0-3.23-.07-.68,0-1.49.18-2-.12s-.17-1.2-.22-1.83-.47-.66-.91-.6-1.26-.32-1.26.55a53,53,0,0,0,.15,7.67,2.28,2.28,0,0,0,2.34,2c.82,0,1.65,0,2.48,0s1.65,0,2.48,0a2.54,2.54,0,0,0,2.62-2.57C25.75,21.52,25.74,20.72,25.72,19.93Zm-4,3.17c-.86,0-1.72,0-2.59,0a1.24,1.24,0,0,1-1.3-1.29c-.24-2.76-.25-2.76,2.53-2.74.65,0,1.3,0,2,0a1.2,1.2,0,0,1,1.31,1.37c0,.25,0,.51,0,.76C23.58,22.79,23.28,23.09,21.69,23.1Z" transform="translate(0 0)"/>
    </g>
  </defs>
  <defs>
    <g id="cb_filled">
      <rect x="1" y="1" width="29.73" height="28" rx="3"  stroke-miterlimit="10" stroke-width="2"/>
      <path fill="#fff" stroke="#fff" stroke-width="0.5" d="M10.8,24.65c-1,0-2,0-2.93,0A2.61,2.61,0,0,1,5.2,22.4a1.88,1.88,0,0,1,0-.33c-.27-4.25.18-5.57,4.69-5.4,1.39.06,2.78,0,4.16,0,.72,0,.79.35.78.91s0,1-.81,1c-1.65-.05-3.3,0-5,0-1.26,0-1.59.37-1.63,1.62,0,.34,0,.68,0,1,0,1.09.56,1.58,1.6,1.58,1.61,0,3.23,0,4.84,0,.78,0,1,.21,1,1s-.36.9-1,.88c-1,0-2,0-3,0Z" transform="translate(-0.11 -1)"/>
      <path fill="#fff" stroke="#fff" stroke-width="0.5" d="M26.78,19.49a2.56,2.56,0,0,0-2.54-2.74c-1.12-.09-2.25,0-3.37-.07-.71,0-1.55.18-2.09-.13s-.19-1.25-.24-1.9-.49-.69-.95-.63-1.31-.34-1.31.57a54.61,54.61,0,0,0,.15,8,2.38,2.38,0,0,0,2.44,2.06c.86,0,1.73,0,2.59,0s1.73,0,2.59,0A2.66,2.66,0,0,0,26.78,22C26.82,21.14,26.81,20.31,26.78,19.49Zm-4.2,3.3c-.9,0-1.8,0-2.7,0a1.27,1.27,0,0,1-1.35-1.34c-.26-2.87-.27-2.87,2.64-2.85.67,0,1.35,0,2,0A1.25,1.25,0,0,1,24.56,20v.79C24.55,22.46,24.24,22.78,22.58,22.79Z" transform="translate(-0.11 -1)"/>
    </g>
  </defs>
    <defs>
    <g id="cb_outline">
      <rect x="1" y="1" width="29.73" height="28" rx="3" fill="none" stroke-miterlimit="10" stroke-width="2"/>
      <path stroke-width="0.5" d="M10.8,24.65c-1,0-2,0-2.93,0A2.61,2.61,0,0,1,5.2,22.4a1.88,1.88,0,0,1,0-.33c-.27-4.25.18-5.57,4.69-5.4,1.39.06,2.78,0,4.16,0,.72,0,.79.35.78.91s0,1-.81,1c-1.65-.05-3.3,0-5,0-1.26,0-1.59.37-1.63,1.62,0,.34,0,.68,0,1,0,1.09.56,1.58,1.6,1.58,1.61,0,3.23,0,4.84,0,.78,0,1,.21,1,1s-.36.9-1,.88c-1,0-2,0-3,0Z" transform="translate(-0.11 -1)"/>
      <path stroke-width="0.5" d="M26.78,19.49a2.56,2.56,0,0,0-2.54-2.74c-1.12-.09-2.25,0-3.37-.07-.71,0-1.55.18-2.09-.13s-.19-1.25-.24-1.9-.49-.69-.95-.63-1.31-.34-1.31.57a54.61,54.61,0,0,0,.15,8,2.38,2.38,0,0,0,2.44,2.06c.86,0,1.73,0,2.59,0s1.73,0,2.59,0A2.66,2.66,0,0,0,26.78,22C26.82,21.14,26.81,20.31,26.78,19.49Zm-4.2,3.3c-.9,0-1.8,0-2.7,0a1.27,1.27,0,0,1-1.35-1.34c-.26-2.87-.27-2.87,2.64-2.85.67,0,1.35,0,2,0A1.25,1.25,0,0,1,24.56,20v.79C24.55,22.46,24.24,22.78,22.58,22.79Z" transform="translate(-0.11 -1)"/>
    </g>
  </defs>
  <defs>
    <g id="edit">
      <polygon points="0 24.54 0 31 6.46 31 25.52 11.94 19.06 5.48 0 24.54"/>
      <path d="M31,5,27,1a1.72,1.72,0,0,0-2.43,0L21.38,4.16l6.46,6.46L31,7.46A1.72,1.72,0,0,0,31,5Z" transform="translate(-0.5 -0.5)"/>
    </g>
  </defs>

  <defs>
    <g id="file" stroke-miterlimit="10">
      <path id="Rounded_Rectangle_14_copy-3" data-name="Rounded Rectangle 14 copy-3" d="M28.25,27.11V1.65a.52.52,0,0,0-.49-.54H4.61a.53.53,0,0,0-.49.54V30.76a.52.52,0,0,0,.49.54H24.32Z" transform="translate(-3.62 -0.61)" fill="none"/>
      <path id="Rounded_Rectangle_14_copy_2-3" data-name="Rounded Rectangle 14 copy 2-3" d="M28.1,26.86H24.5a.52.52,0,0,0-.51.53h0V31" transform="translate(-3.62 -0.61)" fill="none"/>
      <path id="Rounded_Rectangle_11-3" data-name="Rounded Rectangle 11-3" d="M8.31,7.54H23.92c.32,0,.58.19.58.43v.21c0,.24-.26.43-.58.43H8.31c-.32,0-.58-.19-.58-.43V8C7.73,7.73,8,7.54,8.31,7.54Z" transform="translate(-3.62 -0.61)" fill-rule="evenodd"/>
      <path id="Rounded_Rectangle_11_copy-3" data-name="Rounded Rectangle 11 copy-3" d="M8.3,12.48H23.91c.32,0,.58.19.58.42v.22c0,.23-.26.43-.58.43H8.3c-.32,0-.58-.2-.58-.43V12.9C7.72,12.67,8,12.48,8.3,12.48Z" transform="translate(-3.62 -0.61)" fill-rule="evenodd"/>
      <path id="Rounded_Rectangle_11_copy_2-3" data-name="Rounded Rectangle 11 copy 2-3" d="M8.46,17.41H24.07c.32,0,.58.19.58.43v.22c0,.23-.26.42-.58.42H8.46c-.32,0-.58-.19-.58-.42v-.22C7.88,17.6,8.14,17.41,8.46,17.41Z" transform="translate(-3.62 -0.61)" fill-rule="evenodd"/>
      <path id="Rounded_Rectangle_11_copy_3-3" data-name="Rounded Rectangle 11 copy 3-3" d="M8.46,22.35h15.6c.32,0,.58.19.58.43V23c0,.24-.26.43-.58.43H8.46c-.32,0-.58-.19-.58-.43v-.21C7.88,22.54,8.14,22.35,8.46,22.35Z" transform="translate(-3.62 -0.61)" fill-rule="evenodd"/></g>
  </defs>

  <defs>
    <g id="grid" stroke-linejoin="round" fill="#fff" stroke="#fff">
      <path d="M11.55,12.35H2.65a.79.79,0,0,1-.8-.8V3.05a.79.79,0,0,1,.8-.8h8.9a.79.79,0,0,1,.8.8v8.5C12.25,12,12,12.35,11.55,12.35Z" transform="translate(-1.35 -1.75)" />
      <path d="M29.35,12.35h-8.9a.79.79,0,0,1-.8-.8V3.05a.79.79,0,0,1,.8-.8h8.9a.79.79,0,0,1,.8.8v8.5A.86.86,0,0,1,29.35,12.35Z" transform="translate(-1.35 -1.75)" />
      <path d="M11.55,29.75H2.65a.79.79,0,0,1-.8-.8v-8.5a.79.79,0,0,1,.8-.8h8.9a.79.79,0,0,1,.8.8V29C12.25,29.45,12,29.75,11.55,29.75Z" transform="translate(-1.35 -1.75)" />
      <path d="M29.35,29.75h-8.9a.79.79,0,0,1-.8-.8v-8.5a.79.79,0,0,1,.8-.8h8.9a.79.79,0,0,1,.8.8V29A.79.79,0,0,1,29.35,29.75Z" transform="translate(-1.35 -1.75)" />
    </g>
  </defs>

  <defs>
    <g id="list" stroke-linejoin="round">
      <path d="M29.05,29.8H3a1.11,1.11,0,0,1-1.1-1.1V23.5A1.11,1.11,0,0,1,3,22.4h26.1a1.11,1.11,0,0,1,1.1,1.1v5.2A1.11,1.11,0,0,1,29.05,29.8Z" transform="translate(-1.35 -1.7)" fill-rule="evenodd" />
      <path d="M29.05,19.7H3a1.11,1.11,0,0,1-1.1-1.1V13.4A1.11,1.11,0,0,1,3,12.3h26.1a1.11,1.11,0,0,1,1.1,1.1v5.2A1.11,1.11,0,0,1,29.05,19.7Z" transform="translate(-1.35 -1.7)" />
      <path d="M29.05,9.6H3a1.11,1.11,0,0,1-1.1-1.1V3.3A1.11,1.11,0,0,1,3,2.2h26.1a1.11,1.11,0,0,1,1.1,1.1V8.5A1.11,1.11,0,0,1,29.05,9.6Z" transform="translate(-1.35 -1.7)" />
    </g>
  </defs>

  <defs>
    <g id="project">
      <path id="Rounded_Rectangle_1" data-name="Rounded Rectangle 1" d="M1.73,5h10.7c.67,0,1.22,2.21,1.9,2.21,7.46,0,15.86-.15,15.86-.15a.36.36,0,0,1,.35.36V27a.36.36,0,0,1-.35.36H1.73A.36.36,0,0,1,1.38,27V5.36A.37.37,0,0,1,1.73,5Z" transform="translate(-0.38 -4)" fill="none" stroke-width="2"/>
    </g>
  </defs>

  <defs>
    <g id="search">
      <path d="M14,9c-2.761,0 -5,2.239 -5,5c0,2.761 2.239,5 5,5c1.387,0 2.641,-0.564 3.548,-1.477c0.899,-0.905 1.452,-2.148 1.452,-3.523c0,-2.761 -2.239,-5 -5,-5Zm-7,5c0,-3.866 3.134,-7 7,-7c3.866,0 7,3.134 7,7c0,1.257 -0.332,2.436 -0.912,3.456c-0.244,0.431 -0.212,0.981 0.137,1.332l3.984,4.007c0.389,0.391 0.388,1.025 -0.004,1.414c-0.392,0.389 -1.025,0.388 -1.414,-0.004l-3.97,-3.992c-0.352,-0.354 -0.908,-0.387 -1.341,-0.138c-1.025,0.588 -2.214,0.925 -3.48,0.925c-3.866,0 -7,-3.134 -7,-7Z" />
    </g>
  </defs>

  <defs>
    <g id="stats_files" stroke-linecap="round" stroke-linejoin="join" stroke-width="1.2px">
      <path d="M9,25.18a.84.84,0,0,1-.86-.77V1.85A.85.85,0,0,1,9,1.08H26.67a.85.85,0,0,1,.86.77" transform="translate(-1.05 -0.43)" style="fill:none"/>
      <path d="M29.16,27.28H11.28a.86.86,0,0,1-.87-.86V4a.86.86,0,0,1,.87-.86H29.16A.86.86,0,0,1,30,4V26.42A.86.86,0,0,1,29.16,27.28Z" transform="translate(-1.05 -0.43)" style="fill:none;stroke-miterlimit:10;"/>
      <line x1="26.01" y1="13.08" x2="17.11" y2="13.08" fill="none"/>
      <line x1="12.14" y1="13.08" x2="15.39" y2="13.08" fill="none"/>
      <line x1="12.14" y1="23.12" x2="20.17" y2="23.12" fill="none"/>
      <line x1="26.01" y1="23.12" x2="22.66" y2="23.12" fill="none"/>
      <line x1="12.14" y1="9.93" x2="26.01" y2="9.93" fill="none"/>
      <line x1="12.14" y1="16.24" x2="26.01" y2="16.24" fill="none"/>
      <line x1="12.14" y1="19.87" x2="26.01" y2="19.87" fill="none"/>
      <line x1="22.47" y1="6.77" x2="12.14" y2="6.77" fill="none"/>
      <line x1="26.01" y1="6.67" x2="24.76" y2="6.67" fill="none"/>
      <line x1="10.23" y1="30.48" x2="11.18" y2="30.48" fill="none" stroke="#00a09f" opacity="0.5"/>
      <line x1="2.58" y1="30.48" x2="8.41" y2="30.48" fill="none" stroke="#00a09f" opacity="0.5" />
      <path d="M7.64,27.76a18.19,18.19,0,0,0-4,1.53H20.07" transform="translate(-1.05 -0.43)" fill="none" stroke="#00a09f"/>
      <line x1="12.91" y1="30.48" x2="21.03" y2="30.48" fill="none" stroke="#00a09f" opacity="0.5"/>
    </g>
  </defs>

  <defs>
    <g id="stats_filesize" stroke-width="1.2" stroke-miterlimit="10" stroke-linecap="round" stroke-linejoin="round">
      <path d="M28,27.57H7.63a1,1,0,0,1-1-1V1.82a1,1,0,0,1,1-1H27.86a1,1,0,0,1,1,1V26.6A1,1,0,0,1,28,27.57Z" transform="translate(-1.85 -0.2)" fill="none" stroke="#000"  />
      <line x1="23.79" y1="12.07" x2="13.72" y2="12.07" fill="none" stroke="#000" />
      <line x1="8.01" y1="12.17" x2="11.78" y2="12.17" fill="none" stroke="#000" />
      <line x1="8.01" y1="23.4" x2="17.11" y2="23.4" fill="none" stroke="#000" />
      <line x1="23.79" y1="23.4" x2="20.01" y2="23.4" fill="none" stroke="#000" />
      <line x1="8.01" y1="8.59" x2="23.79" y2="8.59" fill="none" stroke="#000" />
      <line x1="8.01" y1="15.65" x2="23.79" y2="15.65" fill="none" stroke="#000" />
      <line x1="8.01" y1="19.62" x2="23.79" y2="19.62" fill="none" stroke="#000" />
      <line x1="19.72" y1="5.01" x2="8.01" y2="5.01" fill="none" stroke="#000" />
      <line x1="23.79" y1="5.01" x2="22.33" y2="5.01" fill="none" stroke="#000" />
      <line x1="4.91" y1="30.95" x2="4.91" y2="28.92" fill="none" stroke="#00a09f" />
      <line x1="26.98" y1="30.95" x2="26.98" y2="28.92" fill="none" stroke="#00a09f" />
      <line x1="5.1" y1="29.98" x2="26.79" y2="29.98" fill="none" stroke="#00a09f" />
      <line x1="0.65" y1="0.65" x2="2.88" y2="0.65" fill="none" stroke="#00a09f" />
      <line x1="0.65" y1="27.37" x2="2.88" y2="27.37" fill="none" stroke="#00a09f" />
      <line x1="1.81" y1="0.94" x2="1.81" y2="27.08" fill="none" stroke="#00a09f"  />
    </g>
  </defs>

  <defs>
    <g id="stats_invites" stroke-linecap="round" stroke-miterlimit="10" stroke-width="1.3" stroke-linejoin="round">
      <polyline points="22.55 14.79 22.55 18.21 24.63 20.29" fill="none" />
      <path d="M1.17,21.33S4.68,8.91,17.32,13.84" transform="translate(-0.52 -0.85)" fill="none" />
      <path d="M17.49,6.72c0,3-.54,3.88-.9,4.42-.36.36-1.26.9-4.59.9s-4.42-.72-4.6-.9c-.36-.36-.9-1.45-.9-4.42A5.31,5.31,0,0,1,12.09,1.5,5.16,5.16,0,0,1,17.49,6.72Z" transform="translate(-0.52 -0.85)" fill="none" />
      <line x1="15.89" y1="26.77" x2="29.22" y2="26.77" fill="none" stroke="#00a09f" />
      <line x1="15.89" y1="29.75" x2="18.14" y2="29.75" fill="none" opacity="0.5" stroke="#00a09f"/>
      <line x1="20.39" y1="29.75" x2="25.89" y2="29.75" fill="none" stroke="#00a09f" opacity="0.5" stroke-dasharray="4.92 2.46" />
      <line x1="26.97" y1="29.75" x2="29.22" y2="29.75" fill="none" opacity="0.5" stroke="#00a09f"/>
      <path d="M23.07,12.4a6.31,6.31,0,1,1-6.3,6.3,6.32,6.32,0,0,1,6.3-6.3m0-.45a6.74,6.74,0,0,0-6.75,6.75,6.67,6.67,0,0,0,6.75,6.67,6.75,6.75,0,0,0,6.76-6.76A6.67,6.67,0,0,0,23.07,12Z" transform="translate(-0.52 -0.85)" fill="#00a09f" stroke="#00a09f"/>
    </g>
  </defs>

  <defs>
    <g id="stats_members" stroke-width="1.2" stroke-miterlimit="10" stroke-linecap="round">
      <path d="M9,19C10.36,15.38,13,13,16.05,13S21.87,15.5,23.11,19" transform="translate(0.02 -2.98)" fill="none" />
      <path d="M20,9.06c0,2.11-.37,2.85-.62,3.22s-1,.62-3.34.62-3.22-.49-3.34-.62-.62-1-.62-3.22a3.81,3.81,0,0,1,4-3.83A3.88,3.88,0,0,1,20,9.06Z" transform="translate(0.02 -2.98)" fill="none" />
      <path d="M20,13.52A6.42,6.42,0,0,1,25.29,10c2.66,0,5,2.13,6.07,5.11" transform="translate(0.02 -2.98)" fill="none" />
      <path d="M28.8,6.82a4.3,4.3,0,0,1-.53,2.66c-.21.21-.85.53-2.87.53s-2.76-.42-2.87-.53S22,8.63,22,6.82a3.25,3.25,0,0,1,3.4-3.19A3.32,3.32,0,0,1,28.8,6.82Z" transform="translate(0.02 -2.98)" fill="none" />
      <path d="M10,6.82a4.3,4.3,0,0,1-.53,2.66c-.32.21-.85.53-3,.53S3.71,9.59,3.6,9.48s-.53-.85-.53-2.66a3.25,3.25,0,0,1,3.4-3.19A3.34,3.34,0,0,1,10,6.82Z" transform="translate(0.02 -2.98)" fill="none" />
      <path d="M.63,15c1.16-3,3.4-5,6.06-5A6.42,6.42,0,0,1,12,13.52M.63,15h0m0,.11h0" transform="translate(0.02 -2.98)" fill="none" />
      <path d="M31,22.26a30.71,30.71,0,0,1-14.71,3.43c-6,0-11.46-1.43-15.19-3.72" transform="translate(0.02 -2.98)" fill="none" stroke="#00a09f" />
      <path d="M31,26A30.71,30.71,0,0,1,16.29,29.4c-6,0-11.46-1.43-15.19-3.72" transform="translate(0.02 -2.98)" fill="none" stroke="#00a09f" stroke-dasharray="4.18 2 0.84 2.5 4.18 2.5" opacity="0.5"/>
    </g>
  </defs>

  <defs>
    <g id="stats_tasks" stroke-linecap="round" stroke-miterlimit="10" stroke-width="1.2px" stroke-linejoin="round" >
      <line x1="10.27" y1="29.85" x2="11.22" y2="29.85" fill="none" stroke="#00a09f" opacity="0.5" />
      <line x1="12.82" y1="29.85" x2="20.56" y2="29.85" fill="none" stroke="#00a09f" opacity="0.5" />
      <line x1="10.18" y1="6.53"  x2="21.5"  y2="6.53"  fill="none" />
      <line x1="10.18" y1="12.79" x2="21.5"  y2="12.79" fill="none" />
      <line x1="10.18" y1="19.61" x2="18.77" y2="19.61" fill="none" />
      <polyline points="3.67 7.1 4.99 8.14 6.69 4.92"    fill="none" />
      <polyline points="3.67 13.36 4.99 14.4 6.69 11.17" fill="none" />
      <polyline points="3.76 20.18 4.99 21.32 6.78 18"   fill="none" />
      <path d="M14.14,26.69h-8a4.54,4.54,0,0,1-4.53-4.55V6.21A4.54,4.54,0,0,1,6.12,1.66H21.88a4.55,4.55,0,0,1,4.53,4.55v4.27" transform="translate(-0.56 -1.01)" fill="none" />
      <path d="M20.18,26.12l-3.4.67.38-3.61" transform="translate(-0.56 -1.01)" fill="none" stroke="#00a09f" />
      <path d="M27.63,13l2.55,2.56L20.08,25.74l-2.54-2.56L27.63,13m0-.57a.35.35,0,0,0-.28.09L17.16,22.9a.36.36,0,0,0,0,.57l2.64,2.65a.34.34,0,0,0,.28.1.35.35,0,0,0,.29-.1L30.56,15.88a.36.36,0,0,0,0-.57l-2.64-2.65c-.1-.1-.19-.19-.29-.19Z" transform="translate(-0.56 -1.01)" fill="#00a09f" stroke="#00a09f" />
      <path d="M1.21,26a4.65,4.65,0,0,0,4.15,2.84H21.12" transform="translate(-0.56 -1.01)" fill="none" stroke="#00a09f"  />
    </g>
  </defs>

  <defs>
    <g id="task" stroke-linecap="round" stroke-linejoin="round" stroke-width="1.2">
      <path d="M14.11,30.13H5.78A5.27,5.27,0,0,1,.49,24.84V7.09A5.27,5.27,0,0,1,5.78,1.8H23.52a5.28,5.28,0,0,1,5.3,5.29v4.22" transform="translate(0.01 -1.3)" fill="none" />
      <polygon points="20.4 27.75 17.06 24.91 16.28 29.12 20.4 27.75" fill="none" />
      <path d="M26.56,15.23l3,2.65a.29.29,0,0,1,0,.39L20.68,28.76a.32.32,0,0,1-.39,0l-3-2.65a.29.29,0,0,1,0-.39l3.63-4.32,5.39-6.27A.47.47,0,0,1,26.56,15.23Z" transform="translate(0.01 -1.3)" fill="none" />
      <path d="M27.93,13.37l3.34,2.84a.15.15,0,0,1,0,.2L30,17.88a.14.14,0,0,1-.19,0l-3.24-2.94a.14.14,0,0,1,0-.2l1.28-1.47A.09.09,0,0,1,27.93,13.37Z" transform="translate(0.01 -1.3)" fill="none" />
      <line x1="10.79" y1="6.87" x2="22.75" y2="6.87" fill="none" />
      <polyline points="4.42 7.46 5.79 8.73 7.95 5.01" fill="none" />
      <line x1="10.79" y1="14.81" x2="22.75" y2="14.81" fill="none" />
      <polyline points="4.71 15.4 6.09 16.67 8.24 12.95" fill="none" />
      <line x1="10.79" y1="22.75" x2="18.73" y2="22.75" fill="none" />
      <polyline points="4.32 23.34 5.7 24.61 7.85 20.79" fill="none" /></g>
  </defs>

  <defs>
    <g id="user" stroke-linejoin="round" stroke-linecap="round" stroke-width="3"  >
      <path d="M3.82,30a12.41,12.41,0,0,1,12.31-9.46,12.46,12.46,0,0,1,12.23,9.11" transform="translate(-2.32 -0.49)" fill="none" fill-rule="evenodd"/>
      <circle cx="13.77" cy="10.35" r="8.85" fill="none" />
    </g>
  </defs>

</svg>
